<svg width="683" height="683" viewBox="0 0 683 683" fill="none" xmlns="http://www.w3.org/2000/svg">
<path d="M85.6 200.267L86 227.2L122 227.333H158L158.267 370C158.4 448.4 158.533 514 158.533 515.6L158.667 518.667H222.4V346L222.533 173.333H85.3334L85.6 200.267ZM434.4 198.267C424 212.133 414.8 224 414 224.933C411.334 228.133 409.6 230.267 395.334 249.333C387.2 260 380 269.6 379.067 270.667C378.133 271.733 372.8 278.667 367.2 286C347.867 311.467 334.667 328.8 321.867 345.333C314.8 354.533 304.8 367.733 299.467 374.667C294.267 381.6 289.2 388.133 288.267 389.067C284 393.733 283.467 397.067 283.333 418.267V440H288C290.533 440 333.2 440.133 382.667 440.4L472.667 440.667V518.667H534.667V439.867L551.067 440C560 440.134 573.734 440.134 581.734 440.134L596 440V386H535.334L534.934 351.2L534.667 316.4L504.667 316.267L474.667 316.133L474.4 351.067L474 386H419.6C389.6 386 364.533 385.6 363.867 385.2C363.2 384.8 363.867 383.067 365.334 381.2C368.8 376.933 367.867 378.267 385.334 354.667C393.734 343.333 402 332.533 403.6 330.667C405.334 328.8 406.667 326.933 406.667 326.4C406.667 326 407.467 324.667 408.4 323.733C409.2 322.8 412.667 318.4 415.867 314C419.2 309.6 422.134 305.733 422.667 305.333C423.067 304.933 424.934 302.533 426.667 300C430.267 294.933 430.534 294.533 435.067 288.667C436.8 286.4 454 263.6 473.334 238C492.667 212.267 509.734 189.733 511.2 187.733C517.734 179.467 520.667 175.6 521.067 174.533C521.334 173.867 506.267 173.333 487.467 173.333H453.467L434.4 198.267Z" fill="black"/>
</svg>
