<svg width="19" height="19" viewBox="0 0 19 19" fill="none" xmlns="http://www.w3.org/2000/svg">
<path fill-rule="evenodd" clip-rule="evenodd" d="M5.54167 12.6667C5.54167 12.2312 5.89792 11.875 6.33333 11.875C6.76875 11.875 7.125 12.2312 7.125 12.6667C7.125 13.1021 6.76875 13.4583 6.33333 13.4583C5.89792 13.4583 5.54167 13.1021 5.54167 12.6667ZM9.5 11.875H12.6667C13.1021 11.875 13.4583 12.2312 13.4583 12.6667C13.4583 13.1021 13.1021 13.4583 12.6667 13.4583H9.5C9.06458 13.4583 8.70833 13.1021 8.70833 12.6667C8.70833 12.2312 9.06458 11.875 9.5 11.875ZM14.25 15.8333H4.75C4.31379 15.8333 3.95833 15.4779 3.95833 15.0417V10.2917H15.0417V15.0417C15.0417 15.4779 14.6862 15.8333 14.25 15.8333ZM4.75 4.74999H5.54167V5.54166C5.54167 5.97708 5.89792 6.33333 6.33333 6.33333C6.76875 6.33333 7.125 5.97708 7.125 5.54166V4.74999H11.875V5.54166C11.875 5.97708 12.2312 6.33333 12.6667 6.33333C13.1021 6.33333 13.4583 5.97708 13.4583 5.54166V4.74999H14.25C14.6862 4.74999 15.0417 5.10545 15.0417 5.54166V8.70833H3.95833V5.54166C3.95833 5.10545 4.31379 4.74999 4.75 4.74999ZM14.25 3.16666H13.4583V2.37499C13.4583 1.93958 13.1021 1.58333 12.6667 1.58333C12.2312 1.58333 11.875 1.93958 11.875 2.37499V3.16666H7.125V2.37499C7.125 1.93958 6.76875 1.58333 6.33333 1.58333C5.89792 1.58333 5.54167 1.93958 5.54167 2.37499V3.16666H4.75C3.44058 3.16666 2.375 4.23225 2.375 5.54166V15.0417C2.375 16.3511 3.44058 17.4167 4.75 17.4167H14.25C15.5594 17.4167 16.625 16.3511 16.625 15.0417V5.54166C16.625 4.23225 15.5594 3.16666 14.25 3.16666Z" fill="#343C44"/>
</svg>
