<svg width="287" height="152" viewBox="0 0 287 152" fill="none" xmlns="http://www.w3.org/2000/svg">
<path d="M79.894 135.409L49.9468 135.644L49.6499 97.8663L79.5971 97.6313L79.894 135.409Z" fill="#FFBE3D"/>
<path d="M61.9893 97.8241L62.4068 135.773L66.1207 135.738L65.3258 97.7888L61.9893 97.8241Z" fill="#FAFAFA"/>
<path d="M97.2362 97.7888L79.8695 97.9296L49.5948 98.1714L79.8996 102.248L80.1576 135.773L97.52 135.636L97.2362 97.7888Z" fill="#F67F11"/>
<path d="M88.4307 97.8285L89.0181 135.773L93.3885 135.733L92.6735 97.7888L88.4307 97.8285Z" fill="#FAFAFA"/>
<path d="M73.5574 87.4312C73.5574 87.5101 74.034 87.6067 74.903 87.6988C76.1314 87.8298 77.3652 87.8898 78.5993 87.8786C80.463 87.8873 82.3192 87.6202 84.1177 87.0846C84.3972 86.9859 84.6659 86.8535 84.9186 86.6898C85.2159 86.5028 85.4685 86.2411 85.6555 85.9264C85.8486 85.5883 85.9513 85.1977 85.9518 84.7989C85.951 84.4497 85.9106 84.102 85.8317 83.7636C85.5796 82.4963 85.2299 81.2548 84.7865 80.0522C84.5417 79.4241 84.2356 78.8269 83.8734 78.271C83.5126 77.6997 83.0577 77.2072 82.5319 76.8189C82.2498 76.6106 81.9347 76.4618 81.6028 76.3802C81.265 76.2994 80.9153 76.2994 80.5776 76.3802C80.0021 76.5606 79.4701 76.8782 79.0198 77.3103C77.5624 78.6027 76.3211 80.1629 75.3515 81.921C74.6993 83.0926 74.1993 84.358 73.8658 85.6807C73.6455 86.6196 73.6215 87.1548 73.6815 87.1723C73.8578 87.2294 74.2542 85.1192 75.9722 82.3466C76.9808 80.7471 78.2118 79.3305 79.6205 78.1482C79.9718 77.8259 80.3811 77.5882 80.8219 77.4506C81.0258 77.4066 81.2359 77.4087 81.4391 77.457C81.6423 77.5053 81.8343 77.5987 82.0033 77.7314C82.4147 78.051 82.7701 78.4493 83.0525 78.9071C83.3679 79.3992 83.6363 79.9255 83.8534 80.4777C84.2695 81.6179 84.6055 82.7911 84.8586 83.9873C85.0055 84.4134 84.9954 84.8854 84.8305 85.3034C84.576 85.6663 84.2202 85.9281 83.8174 86.0492C83.3612 86.2115 82.8973 86.3463 82.4277 86.4528C81.9672 86.5669 81.5107 86.6547 81.0661 86.7292C80.1811 86.8828 79.3482 86.9705 78.5793 87.0276C77.0455 87.1416 75.776 87.1636 74.923 87.2118C74.07 87.2601 73.5614 87.3522 73.5574 87.4312Z" fill="#F67F11"/>
<path d="M73.5574 87.8336C73.5574 87.7583 73.0514 87.5992 72.1145 87.3732C71.1776 87.1472 69.8098 86.8501 68.1614 86.4274C66.2221 85.9538 64.3214 85.3185 62.4768 84.5273C61.9708 84.3247 61.4912 84.0547 61.0497 83.7237C60.8618 83.5826 60.7054 83.3998 60.5912 83.188C60.5002 82.9997 60.4723 82.7842 60.5121 82.5769C60.5712 82.3008 60.6628 82.0337 60.7849 81.7817C60.9153 81.4846 61.0497 81.1833 61.1802 80.8819C61.4456 80.2831 61.7494 79.7042 62.0894 79.1492C62.4238 78.6104 62.8224 78.1195 63.2753 77.6886C63.6858 77.2754 64.1658 76.9475 64.6906 76.7218C65.1588 76.5274 65.6749 76.5038 66.1572 76.6548C66.6449 76.8368 67.0927 77.1215 67.4735 77.4919C68.9572 78.8674 70.2401 80.4682 71.2804 82.2421C71.9818 83.4439 72.5496 84.7275 72.9723 86.0674C73.2688 87.0259 73.3874 87.5741 73.4665 87.5616C73.5456 87.549 73.5416 86.9798 73.3597 85.9628C73.0746 84.5238 72.5869 83.1384 71.9129 81.8529C70.912 79.9402 69.6235 78.2128 68.0981 76.7385C67.6296 76.2587 67.0705 75.8893 66.4576 75.6545C65.7692 75.423 65.0275 75.4422 64.3506 75.7089C64.0195 75.835 63.7037 76.0022 63.4098 76.207C63.1226 76.4083 62.8492 76.6307 62.5915 76.8724C62.0768 77.3653 61.6262 77.9282 61.2513 78.5465C60.8868 79.1435 60.5606 79.7657 60.2749 80.409L59.8796 81.3339C59.7204 81.6729 59.606 82.0334 59.5396 82.4053C59.4653 82.8431 59.5336 83.2947 59.7334 83.686C59.918 84.0291 60.1717 84.3249 60.4765 84.5524C60.9901 84.9296 61.5483 85.2336 62.1368 85.4564C64.0462 86.2252 66.0196 86.8025 68.031 87.1807C69.7347 87.5155 71.1223 87.6871 72.0789 87.7918C73.0356 87.8964 73.5455 87.9048 73.5574 87.8336Z" fill="#FFBE3D"/>
<path d="M102.247 98.656L58.2251 99.0016L58.1269 86.4969L102.148 86.1514L102.247 98.656Z" fill="#F67F11"/>
<path d="M86.0526 98.779L46.2632 99.0913L46.1649 86.5866L85.9543 86.2743L86.0526 98.779Z" fill="#FFBE3D"/>
<path d="M57.8578 86.2636L58.1366 97.7888L62.8156 97.6991L62.4896 86.2285L57.8578 86.2636Z" fill="#FAFAFA"/>
<path d="M90.9096 86.3224L91.4466 97.7888L97.52 97.7497L97.1958 86.2285L90.9096 86.3224Z" fill="#FAFAFA"/>
<path d="M57.0505 135.852L43.372 135.959L43.2364 118.702L56.9149 118.595L57.0505 135.852Z" fill="#FFBE3D"/>
<path d="M47.9422 120.101L48.1919 136.599L50.4211 136.586L49.9437 120.084L47.9422 120.101Z" fill="#FAFAFA"/>
<path d="M63.5153 120.084L55.7295 120.142L42.1581 120.251L55.7421 122.022L55.8603 136.599L63.6418 136.54L63.5153 120.084Z" fill="#F67F11"/>
<path d="M60.3367 120.101L60.6281 136.599L62.8156 136.578L62.4563 120.084L60.3367 120.101Z" fill="#FAFAFA"/>
<path d="M53.7263 113.798C53.7263 113.962 54.6847 114.211 56.2982 114.296C57.2728 114.336 58.2474 114.217 59.1911 113.942C59.5724 113.83 59.9067 113.573 60.1361 113.215C60.2658 112.987 60.3353 112.723 60.3367 112.452C60.3366 112.243 60.3157 112.034 60.2743 111.83C60.1455 111.149 59.9635 110.482 59.7304 109.837C59.5971 109.485 59.4297 109.151 59.2312 108.84C59.0258 108.503 58.7639 108.214 58.4601 107.988C58.2813 107.856 58.0804 107.767 57.8696 107.725C57.6589 107.683 57.4427 107.689 57.2343 107.744C56.9039 107.854 56.5995 108.045 56.3428 108.302C55.587 108.998 54.9511 109.842 54.4662 110.793C53.6594 112.442 53.6683 113.633 53.8065 113.653C53.9447 113.673 54.2523 112.657 55.1438 111.291C55.6653 110.51 56.2871 109.818 56.9891 109.239C57.1332 109.102 57.302 109.002 57.4839 108.945C57.5483 108.934 57.614 108.938 57.6769 108.957C57.7398 108.976 57.7985 109.009 57.8494 109.054C58.0238 109.199 58.1746 109.376 58.2952 109.577C58.4413 109.813 58.5652 110.065 58.6651 110.33C58.8715 110.901 59.0384 111.489 59.1644 112.089C59.2312 112.368 59.2179 112.492 59.1956 112.522C59.105 112.646 58.9817 112.735 58.8434 112.776C58.4065 112.938 57.9596 113.062 57.5062 113.15C57.0604 113.24 56.6504 113.299 56.267 113.344C54.7248 113.524 53.7308 113.603 53.7263 113.798Z" fill="#F67F11"/>
<path d="M54.5056 114.213C54.5319 114.038 53.4773 113.752 51.819 113.29C50.8603 113.022 49.9203 112.684 49.0055 112.28C48.7747 112.183 48.5558 112.058 48.3535 111.906C48.2946 111.86 48.2455 111.802 48.2091 111.735C48.2091 111.698 48.2091 111.698 48.2091 111.629C48.2942 111.365 48.3996 111.109 48.5242 110.863C48.6541 110.576 48.8003 110.297 48.9617 110.028C49.115 109.781 49.2957 109.555 49.4999 109.354C49.6786 109.175 49.886 109.032 50.1125 108.93C50.287 108.852 50.4814 108.839 50.6639 108.893C50.8728 108.968 51.0649 109.087 51.2283 109.243C51.9668 109.908 52.6147 110.676 53.1536 111.527C54.0768 112.995 54.2693 114.121 54.4663 114.093C54.5363 114.093 54.5844 113.784 54.5275 113.253C54.4261 112.502 54.2026 111.774 53.8668 111.103C53.3755 110.096 52.7227 109.185 51.9371 108.413C51.6736 108.14 51.3571 107.931 51.0095 107.799C50.6006 107.656 50.1577 107.665 49.7537 107.822C49.562 107.891 49.3796 107.985 49.2112 108.104C49.0572 108.212 48.911 108.333 48.7736 108.464C48.4929 108.736 48.2472 109.047 48.0429 109.386C47.8516 109.698 47.6805 110.024 47.5309 110.36C47.4609 110.522 47.3953 110.678 47.3253 110.821C47.2351 111.019 47.1703 111.229 47.1327 111.444C47.0877 111.733 47.1338 112.03 47.264 112.289C47.38 112.501 47.5383 112.683 47.7278 112.824C48.0093 113.022 48.3157 113.177 48.6379 113.286C49.6225 113.667 50.6415 113.94 51.679 114.102C53.3899 114.356 54.4794 114.342 54.5056 114.213Z" fill="#FFBE3D"/>
<path d="M67.2573 119.062L47.152 119.22L47.1071 113.507L67.2124 113.35L67.2573 119.062Z" fill="#F67F11"/>
<path d="M59.8643 119.121L41.6901 119.264L41.6452 113.551L59.8194 113.409L59.8643 119.121Z" fill="#FFBE3D"/>
<path d="M61.9893 113.532L62.1223 120.084L63.6418 120.064L63.5586 113.478L61.9893 113.532Z" fill="#FAFAFA"/>
<path d="M230.814 135.745L206.281 135.938L206.038 104.991L230.571 104.798L230.814 135.745Z" fill="#EBEBEB"/>
<path d="M215.68 105.247L216.179 136.599L220.638 136.567L219.68 105.22L215.68 105.247Z" fill="#FAFAFA"/>
<path d="M244.366 105.22L229.993 105.333L204.939 105.527L230.019 108.809L230.232 135.773L244.601 135.661L244.366 105.22Z" fill="#E0E0E0"/>
<path d="M237.99 105.251L238.477 135.773L242.122 135.742L241.528 105.22L237.99 105.251Z" fill="#FAFAFA"/>
<path d="M225.635 96.2326C225.635 96.368 226.095 96.5071 226.892 96.6425C228.864 96.9461 230.878 97.0346 232.879 96.9057C233.339 96.8719 233.8 96.8305 234.26 96.7628C234.773 96.6998 235.281 96.6093 235.78 96.4921C236.093 96.4136 236.394 96.3064 236.678 96.1724C237.048 96 237.363 95.7592 237.599 95.4692C237.848 95.1457 237.984 94.7723 237.99 94.39C237.993 94.0986 237.951 93.8081 237.866 93.5251C237.628 92.6001 237.291 91.694 236.857 90.8176C236.61 90.341 236.301 89.8872 235.936 89.4638C235.742 89.2504 235.531 89.047 235.305 88.8546C235.058 88.6421 234.778 88.4563 234.472 88.3018C234.133 88.1224 233.757 87.995 233.362 87.9258C232.946 87.8578 232.517 87.8655 232.105 87.9484C231.468 88.0977 230.881 88.3625 230.387 88.723C228.979 89.6779 227.799 90.8367 226.906 92.1413C226.306 93.0087 225.887 93.9517 225.667 94.9315C225.533 95.6234 225.603 96.022 225.754 96.0596C226.109 96.1311 226.676 94.7096 228.333 92.9009C229.306 91.8573 230.457 90.9329 231.75 90.1557C232.004 89.9811 232.301 89.8529 232.621 89.7797C232.725 89.7679 232.831 89.7738 232.933 89.7971C233.034 89.8204 233.129 89.8605 233.21 89.9151C233.352 89.9966 233.483 90.0898 233.602 90.1933C233.731 90.3099 233.873 90.4566 234.002 90.5995C234.266 90.9126 234.492 91.2464 234.675 91.596C235.05 92.3655 235.358 93.1559 235.596 93.9613C235.644 94.0908 235.674 94.2246 235.683 94.3599C235.683 94.4464 235.683 94.4539 235.683 94.4727C235.529 94.6232 235.321 94.731 235.089 94.7811C234.689 94.8963 234.282 94.9942 233.869 95.0744C233.45 95.1609 233.035 95.2286 232.635 95.2925C231.829 95.4128 231.06 95.4993 230.332 95.567C228.914 95.6986 227.735 95.7776 226.92 95.8791C226.104 95.9807 225.639 96.0972 225.635 96.2326Z" fill="#E0E0E0"/>
<path d="M226.347 96.7653C226.403 96.4614 224.551 95.9687 221.632 95.2009C219.955 94.7629 218.312 94.2141 216.714 93.5586C216.318 93.4097 215.943 93.2124 215.6 92.9715C215.506 92.9101 215.428 92.8285 215.372 92.7333C215.372 92.6964 215.372 92.7333 215.372 92.6307C215.421 92.4658 215.487 92.3061 215.57 92.1544L215.925 91.4441C216.153 90.9901 216.409 90.5499 216.693 90.1262C216.954 89.7388 217.265 89.3843 217.619 89.071C217.785 88.9211 217.962 88.7838 218.15 88.6604C218.307 88.5546 218.477 88.4677 218.656 88.4017C218.939 88.2852 219.255 88.2635 219.552 88.3401C219.906 88.4561 220.232 88.6405 220.508 88.8821C221.801 89.9298 222.939 91.1412 223.891 92.4829C225.524 94.7986 225.893 96.5887 226.232 96.5394C226.377 96.5394 226.48 96.0426 226.386 95.1886C226.222 93.9806 225.839 92.8093 225.254 91.7274C224.397 90.1071 223.251 88.6426 221.867 87.3999C221.392 86.9551 220.824 86.6122 220.2 86.394C219.455 86.1613 218.651 86.1743 217.915 86.4309C217.572 86.5458 217.245 86.7002 216.942 86.8908C216.657 87.0663 216.388 87.2626 216.136 87.4779C215.642 87.9074 215.209 88.3975 214.849 88.9355C214.51 89.4396 214.207 89.965 213.941 90.508L213.58 91.2635C213.417 91.5876 213.3 91.9315 213.233 92.2858C213.148 92.7713 213.236 93.2702 213.482 93.7023C213.695 94.057 213.988 94.3614 214.339 94.5933C214.843 94.9242 215.391 95.1881 215.968 95.3775C217.704 95.9837 219.502 96.4131 221.331 96.6585C222.542 96.8362 223.764 96.9364 224.988 96.9582C225.833 96.9829 226.326 96.9131 226.347 96.7653Z" fill="#FAFAFA"/>
<path d="M249.122 105.637L213.063 105.92L212.982 95.6767L249.042 95.3936L249.122 105.637Z" fill="#E0E0E0"/>
<path d="M235.868 105.739L203.271 105.995L203.19 95.7511L235.787 95.4953L235.868 105.739Z" fill="#EBEBEB"/>
<path d="M213.201 95.3402L213.386 105.22L216.507 105.143L216.29 95.3116L213.201 95.3402Z" fill="#FAFAFA"/>
<path d="M241.296 95.3894L241.561 105.22L244.601 105.188L244.437 95.3116L241.296 95.3894Z" fill="#FAFAFA"/>
<path d="M202.24 77.5329C209.645 69.9627 221.244 66.779 231.478 69.5164C222.751 75.4569 212.455 78.6717 201.896 78.7528" fill="#49C0B8"/>
<path d="M212.159 42.4405C210.938 33.8289 214.286 24.1632 220.738 17.8851C220.951 26.4202 217.336 36.0222 212.159 42.4405Z" fill="#49C0B8"/>
<path d="M207 58.703C211.665 49.8587 219.088 42.7751 228.143 38.5257C225.451 48.438 216.965 56.548 206.936 58.7965" fill="#49C0B8"/>
<path d="M205.932 61.8612C211.134 62.0057 216.404 61.8229 221.436 60.4925C226.468 59.1621 231.287 56.6032 234.621 52.6205C224.439 52.6561 214.494 55.6882 206.026 61.3383" fill="#49C0B8"/>
<path d="M208.578 51.5069C205.936 41.6116 201.577 34.7683 193.797 29.2256C193.201 34.0901 194.363 39.0074 197.072 43.0922C199.782 47.1771 203.862 50.161 208.578 51.5069" fill="#49C0B8"/>
<path d="M188.931 68.5685C188.912 65.6825 189.747 62.8552 191.331 60.4419C192.915 58.0287 195.177 56.1371 197.834 55.0051C197.408 60.1057 193.385 66.0224 188.931 68.5685Z" fill="#49C0B8"/>
<path d="M186.46 60.2247C185.869 51.9617 179.995 44.3149 172.156 41.6116C173.938 49.8789 178.719 56.7605 186.46 60.2247Z" fill="#49C0B8"/>
<path d="M190.19 75.0378C188.357 72.4152 185.363 70.7873 182.262 69.9712C179.161 69.1551 175.924 69.0913 172.722 69.0233C174.904 71.391 177.574 73.258 180.548 74.4958C183.522 75.7337 186.729 76.313 189.948 76.194" fill="#49C0B8"/>
<path d="M193.912 96.1162C188.072 94.3161 181.769 94.7679 176.246 97.3824C170.723 99.997 166.38 104.585 164.074 110.241C174.912 108.192 185.609 103.376 193.912 96.1162Z" fill="#49C0B8"/>
<path d="M205.805 88.7883C204.005 94.1057 204.35 100.537 208.357 105.119C209.154 102.376 209.338 99.4919 208.897 96.67C208.456 93.8482 207.401 91.1575 205.805 88.7883" fill="#49C0B8"/>
<path d="M212.831 85.8342C213.123 89.2621 214.294 92.557 216.231 95.4011C218.168 98.2452 220.806 100.542 223.89 102.071C224.034 102.163 224.195 102.225 224.363 102.252C224.531 102.279 224.703 102.271 224.868 102.228C225.357 102.033 225.4 101.378 225.34 100.843C224.558 94.042 219.505 87.4409 212.831 85.8342Z" fill="#49C0B8"/>
<path d="M217.429 85.1413C218.957 86.7902 220.807 88.108 222.866 89.013C224.924 89.918 227.146 90.391 229.395 90.4025C231.643 90.4141 233.871 89.964 235.938 89.0802C238.006 88.1964 239.869 86.8977 241.414 85.2646C233.792 84.4145 224.992 83.8747 217.429 85.1413Z" fill="#49C0B8"/>
<path d="M218.569 24.2312C218.553 24.3081 218.53 24.3834 218.501 24.4565C218.441 24.6137 218.365 24.8263 218.267 25.0983C218.05 25.6764 217.744 26.5052 217.348 27.5679C216.953 28.6305 216.464 29.9482 215.915 31.4783L215.034 33.9224C214.732 34.7725 214.413 35.7161 214.082 36.681C212.729 40.5405 211.232 45.1821 209.611 50.3252C207.991 55.4684 206.349 61.1938 204.707 67.2083C203.065 73.2228 201.649 78.9993 200.428 84.2657C199.208 89.5321 198.216 94.297 197.481 98.318C197.291 99.3211 197.111 100.276 196.94 101.183C196.783 102.088 196.638 102.947 196.515 103.733C196.239 105.331 196.005 106.709 195.843 107.843C195.681 108.978 195.537 109.837 195.443 110.445C195.396 110.73 195.358 110.955 195.333 111.121C195.323 111.198 195.308 111.275 195.286 111.35C195.279 111.272 195.279 111.194 195.286 111.116C195.307 110.951 195.333 110.725 195.371 110.436C195.452 109.824 195.567 108.949 195.715 107.826C195.864 106.704 196.077 105.31 196.336 103.708C196.468 102.904 196.604 102.046 196.762 101.136C196.919 100.226 197.098 99.2744 197.281 98.267C197.995 94.2375 198.982 89.4726 200.169 84.1935C201.355 78.9143 202.81 73.1421 204.422 67.1191C206.034 61.0961 207.744 55.3961 209.352 50.2317C210.96 45.0673 212.504 40.4555 213.882 36.6002C214.222 35.6368 214.547 34.7201 214.856 33.8501L215.758 31.4103C216.323 29.8844 216.812 28.5752 217.238 27.5126C217.663 26.45 217.982 25.6381 218.207 25.0643L218.467 24.431C218.496 24.3622 218.531 24.2954 218.569 24.2312V24.2312Z" fill="#263238"/>
<path d="M176.677 46.0279C176.726 46.064 176.77 46.1054 176.809 46.1512L177.175 46.5337C177.494 46.8738 177.953 47.3838 178.527 48.0469C180.163 49.934 181.664 51.9339 183.019 54.0317C185.037 57.144 186.611 60.5215 187.698 64.0672C188.974 68.0584 189.739 72.6023 190.514 77.3459C192.066 86.8458 193.967 95.3554 195.345 101.51C196.039 104.575 196.621 107.057 196.996 108.8C197.183 109.65 197.332 110.309 197.421 110.781C197.468 110.997 197.502 111.167 197.532 111.299C197.546 111.358 197.555 111.417 197.557 111.478C197.533 111.422 197.514 111.363 197.502 111.303C197.468 111.176 197.421 111.006 197.366 110.793C197.247 110.326 197.085 109.667 196.872 108.825C196.447 107.091 195.864 104.613 195.133 101.557C193.704 95.4149 191.768 86.9053 190.216 77.3926C189.437 72.649 188.668 68.1222 187.43 64.1437C186.354 60.6162 184.803 57.2515 182.819 54.1422C181.485 52.0419 180.014 50.0314 178.417 48.1234C177.855 47.4433 177.409 46.9248 177.103 46.572C176.962 46.4062 176.847 46.2745 176.762 46.1682C176.73 46.1239 176.702 46.077 176.677 46.0279V46.0279Z" fill="#263238"/>
<path d="M219.705 84.8141C219.617 84.8447 219.525 84.8619 219.432 84.8651L218.641 84.9501L218.071 85.0096L217.399 85.1074C216.914 85.1796 216.361 85.2519 215.762 85.3837L214.813 85.5749L213.801 85.83C213.095 85.9872 212.368 86.255 211.589 86.4803C209.925 87.0566 208.31 87.7674 206.762 88.6056C205.224 89.4655 203.774 90.4734 202.432 91.6149C201.85 92.1162 201.297 92.6482 200.773 93.2089C200.305 93.688 199.866 94.1947 199.458 94.7263C199.11 95.1547 198.785 95.6016 198.484 96.0652C198.241 96.4102 198.018 96.7693 197.817 97.1406L197.413 97.825C197.37 97.908 197.317 97.9852 197.255 98.0545C197.277 97.9632 197.313 97.8758 197.362 97.7952L197.719 97.0854C197.901 96.7062 198.112 96.3411 198.348 95.993C198.637 95.5164 198.952 95.0566 199.293 94.6158C199.696 94.0722 200.13 93.5528 200.594 93.0601C201.118 92.4871 201.673 91.9436 202.257 91.4322C203.603 90.2668 205.066 89.2427 206.621 88.376C208.185 87.5294 209.819 86.8183 211.504 86.2508C212.291 86.0212 213.027 85.7705 213.741 85.6217L214.766 85.3794L215.723 85.2094C216.332 85.0861 216.889 85.0309 217.378 84.9714L218.059 84.8948L218.633 84.8651L219.428 84.8141C219.52 84.802 219.613 84.802 219.705 84.8141V84.8141Z" fill="#263238"/>
<path d="M221.878 46.2064C221.717 46.4015 221.536 46.5795 221.338 46.7378L219.768 48.0979C218.433 49.2371 216.578 50.7928 214.52 52.5015C212.461 54.2102 210.581 55.7446 209.216 56.8413L207.587 58.1164C207.396 58.28 207.187 58.4225 206.966 58.5415C207.13 58.346 207.314 58.168 207.514 58.0102L209.084 56.65C210.42 55.5109 212.274 53.9552 214.333 52.2465C216.391 50.5377 218.267 49.0075 219.632 47.9109L221.261 46.6357C221.454 46.4746 221.66 46.3309 221.878 46.2064Z" fill="#263238"/>
<path d="M223.754 56.2887C223.754 56.3652 219.773 57.6149 214.822 59.0813C209.871 60.5477 205.817 61.6699 205.796 61.5934C205.775 61.5169 209.777 60.263 214.728 58.8008C219.679 57.3386 223.728 56.2122 223.754 56.2887Z" fill="#263238"/>
<path d="M208.969 52.2762C208.809 52.0995 208.666 51.9073 208.544 51.7024L207.489 50.0957C206.596 48.7398 205.324 46.895 203.818 44.9271C202.312 42.9591 200.866 41.2503 199.799 40.0304C199.297 39.4524 198.871 38.9678 198.523 38.5853C198.364 38.415 198.221 38.23 198.097 38.0327C198.292 38.167 198.47 38.3256 198.625 38.5045C198.948 38.8233 199.407 39.2951 199.965 39.8902C201.07 41.0803 202.551 42.7805 204.061 44.7528C205.571 46.725 206.817 48.5995 207.672 49.9809C208.097 50.6738 208.433 51.2561 208.65 51.6429C208.781 51.8407 208.888 52.0533 208.969 52.2762V52.2762Z" fill="#263238"/>
<path d="M195.069 57.8699C194.79 58.4041 194.476 58.9196 194.129 59.4129C193.529 60.3522 192.717 61.6571 191.879 63.1321C191.041 64.607 190.331 65.9757 189.824 66.9576C189.577 67.5071 189.292 68.0396 188.974 68.5515C189.14 67.9647 189.362 67.3953 189.637 66.8513C190.092 65.8312 190.777 64.4455 191.619 62.9578C192.462 61.4701 193.321 60.1822 193.95 59.2683C194.278 58.7675 194.652 58.2992 195.069 57.8699V57.8699Z" fill="#263238"/>
<path d="M190.288 75.3056C190.267 75.3439 189.506 74.9698 188.255 74.4087C187.005 73.8477 185.278 73.1336 183.287 72.4195C181.296 71.7054 179.489 71.2166 178.162 70.8808C176.835 70.545 176.005 70.3537 176.035 70.3112C176.235 70.3064 176.436 70.3278 176.63 70.375C177.013 70.4302 177.558 70.5323 178.23 70.6768C179.984 71.0605 181.712 71.5517 183.406 72.1475C185.1 72.7384 186.756 73.4311 188.366 74.2217C188.982 74.5277 189.471 74.787 189.808 74.9826C189.98 75.0708 190.141 75.1793 190.288 75.3056Z" fill="#263238"/>
<path d="M194.057 96.1503C193.978 96.1881 193.895 96.2152 193.81 96.231L193.087 96.4138L190.424 97.0301C187.489 97.6459 184.587 98.412 181.73 99.3254C178.885 100.28 176.161 101.564 173.615 103.151C172.645 103.767 171.888 104.311 171.377 104.707C171.122 104.921 170.853 105.12 170.574 105.302C170.574 105.302 170.629 105.229 170.752 105.11C170.876 104.991 171.058 104.821 171.309 104.617C172.008 104.028 172.741 103.48 173.504 102.977C176.037 101.334 178.768 100.02 181.632 99.0661C184.499 98.1441 187.422 97.403 190.382 96.8473L193.066 96.2905C193.392 96.2192 193.723 96.1723 194.057 96.1503V96.1503Z" fill="#263238"/>
<path d="M207.595 101.285C207.519 101.285 207.042 98.4923 206.532 95.0196C206.021 91.5469 205.681 88.7203 205.758 88.7076C205.834 88.6948 206.311 91.5044 206.821 94.9771C207.331 98.4498 207.676 101.276 207.595 101.285Z" fill="#263238"/>
<path d="M221.695 96.1715C221.237 95.697 220.811 95.1929 220.419 94.6626C219.658 93.7147 218.603 92.4098 217.408 90.9901C216.213 89.5704 215.111 88.3037 214.307 87.3899C213.847 86.9173 213.421 86.4131 213.031 85.8809C213.188 85.976 213.331 86.0918 213.456 86.2252C213.703 86.4633 214.048 86.8118 214.473 87.2539C215.324 88.1337 216.447 89.3791 217.646 90.8031C218.845 92.227 219.875 93.5532 220.598 94.535C220.959 95.0281 221.244 95.4319 221.449 95.7124C221.552 95.8528 221.635 96.0074 221.695 96.1715V96.1715Z" fill="#263238"/>
<path d="M184.384 109.238V116.2H186.128L192.317 135.731H206.051L212.049 116.391L214.371 116.2V109.238H184.384Z" fill="#455A64"/>
<path d="M213.21 116.391C213.21 116.472 207.149 116.54 199.671 116.54C192.194 116.54 186.128 116.472 186.128 116.391C186.128 116.311 192.189 116.247 199.671 116.247C207.153 116.247 213.21 116.311 213.21 116.391Z" fill="#263238"/>
<path d="M223.086 71.6119C222.8 71.7156 222.505 71.7952 222.206 71.8499L219.798 72.4323C217.765 72.9338 214.975 73.7074 211.951 74.7106C208.927 75.7137 206.238 76.8061 204.295 77.6349L202.023 78.6253C201.749 78.7623 201.465 78.8774 201.173 78.9696C201.424 78.7976 201.69 78.6482 201.968 78.5233C202.487 78.2513 203.244 77.8815 204.205 77.4436C209.183 75.1739 214.383 73.4261 219.722 72.2282C220.742 72.003 221.576 71.8372 222.155 71.7394C222.461 71.6713 222.773 71.6286 223.086 71.6119V71.6119Z" fill="#263238"/>
<path d="M208.65 127.239C208.65 127.319 204.397 127.383 199.152 127.383C193.908 127.383 189.65 127.319 189.65 127.239C189.65 127.158 193.904 127.094 199.152 127.094C204.401 127.094 208.65 127.158 208.65 127.239Z" fill="#FAFAFA"/>
<path d="M209.186 125.619C209.186 125.7 204.677 125.764 199.118 125.764C193.559 125.764 189.046 125.7 189.046 125.619C189.046 125.538 193.555 125.475 199.118 125.475C204.682 125.475 209.186 125.543 209.186 125.619Z" fill="#FAFAFA"/>
<path d="M10 135.731C10 135.791 69.5525 135.842 142.996 135.842C216.44 135.842 276 135.791 276 135.731C276 135.672 216.463 135.621 142.996 135.621C69.5294 135.621 10 135.667 10 135.731Z" fill="#263238"/>
<path d="M193.718 41.3821L192.91 42.857L191.434 43.6646L192.91 44.4722L193.718 45.9472L194.526 44.4722L196.002 43.6646L194.526 42.857L193.718 41.3821Z" fill="#7480FF"/>
<path d="M188.324 21.1835L187.487 21.1283L186.81 20.6267L186.755 21.4683L186.253 22.1442L187.095 22.1994L187.771 22.6967L187.827 21.8594L188.324 21.1835Z" fill="#7480FF"/>
<path d="M52.2751 88.257L51.4371 88.2017L50.7608 87.7001L50.7055 88.5418L50.2036 89.2176L51.0458 89.2729L51.7221 89.7702L51.7774 88.9328L52.2751 88.257Z" fill="#7480FF"/>
<path d="M148.109 46.2915L147.271 46.2362L146.59 45.7389L146.535 46.5762L146.037 47.2521L146.875 47.3073L147.556 47.8047L147.607 46.9673L148.109 46.2915Z" fill="#7480FF"/>
<path d="M142.996 10.3744L142.158 10.3192L141.482 9.82185L141.426 10.6592L140.929 11.335L141.767 11.3903L142.443 11.8919L142.498 11.0503L142.996 10.3744Z" fill="#7480FF"/>
<path d="M168.75 32.6642L167.474 31.9289L166.798 30.624L166.062 31.8991L164.752 32.5792L166.028 33.3103L166.709 34.6195L167.445 33.3443L168.75 32.6642Z" fill="#7480FF"/>
<path d="M61.5432 105.14L60.2672 104.405L59.5909 103.1L58.8551 104.375L57.5493 105.051L58.8253 105.786L59.5016 107.091L60.2374 105.816L61.5432 105.14Z" fill="#7480FF"/>
<path d="M67.9531 81.8259L66.6771 81.0906L65.9966 79.7857L65.2607 81.0608L63.9549 81.7367L65.2309 82.472L65.9115 83.7812L66.6431 82.5018L67.9531 81.8259Z" fill="#7480FF"/>
<path d="M164.04 128.195C164.04 128.195 181.781 133.109 182.517 133.359C183.585 133.733 183.406 137.652 181.739 137.61C180.952 137.58 168.098 138.086 166.473 137.984C164.848 137.882 160.476 136.161 160.476 136.161L164.04 128.195Z" fill="#7480FF"/>
<path d="M171.441 134.97C171.531 134.97 171.65 134.044 172.224 133.066C172.798 132.088 173.534 131.502 173.479 131.434C173.423 131.366 172.564 131.859 171.964 132.917C171.365 133.976 171.365 134.97 171.441 134.97Z" fill="#263238"/>
<path d="M169.587 134.12C169.676 134.12 169.855 133.296 170.327 132.369C170.799 131.442 171.36 130.792 171.297 130.733C171.233 130.673 170.552 131.255 170.063 132.237C169.574 133.219 169.51 134.12 169.587 134.12Z" fill="#263238"/>
<path d="M167.851 133.665C167.941 133.665 167.873 132.773 168.277 131.787C168.681 130.801 169.31 130.193 169.247 130.129C169.183 130.065 168.396 130.609 168 131.68C167.605 132.752 167.779 133.695 167.851 133.665Z" fill="#263238"/>
<path d="M168.17 131.37C168.326 130.949 168.391 130.5 168.362 130.052C168.354 129.561 168.29 129.072 168.17 128.595C168.104 128.313 168.016 128.038 167.907 127.77C167.851 127.605 167.753 127.459 167.622 127.345C167.533 127.277 167.423 127.243 167.312 127.249C167.201 127.254 167.095 127.299 167.013 127.375C166.877 127.508 166.792 127.686 166.775 127.876C166.765 128.032 166.765 128.188 166.775 128.344C166.78 128.63 166.817 128.916 166.886 129.194C167.004 129.669 167.187 130.125 167.43 130.55C167.628 130.952 167.899 131.314 168.23 131.617C168.268 131.591 167.97 131.192 167.617 130.452C167.41 130.033 167.254 129.591 167.154 129.134C167.096 128.868 167.066 128.596 167.064 128.323C167.064 128.05 167.064 127.71 167.23 127.579C167.259 127.546 167.3 127.525 167.343 127.521C167.387 127.517 167.43 127.53 167.464 127.557C167.555 127.643 167.622 127.749 167.66 127.868C167.767 128.122 167.856 128.383 167.928 128.65C168.053 129.103 168.131 129.567 168.162 130.035C168.2 130.86 168.119 131.366 168.17 131.37Z" fill="#263238"/>
<path d="M168.145 131.192C167.782 131.04 167.389 130.976 166.996 131.005C166.566 131.003 166.138 131.056 165.72 131.162C165.466 131.215 165.221 131.305 164.993 131.43C164.847 131.502 164.729 131.62 164.657 131.766C164.585 131.912 164.562 132.077 164.593 132.237C164.634 132.39 164.715 132.53 164.828 132.641C164.941 132.753 165.082 132.832 165.236 132.871C165.497 132.937 165.77 132.937 166.031 132.871C166.823 132.638 167.518 132.153 168.009 131.489C167.679 131.68 167.364 131.895 167.065 132.131C166.735 132.356 166.365 132.516 165.976 132.603C165.759 132.656 165.533 132.656 165.316 132.603C165.215 132.575 165.122 132.521 165.047 132.446C164.973 132.372 164.919 132.279 164.891 132.178C164.874 132.078 164.89 131.975 164.938 131.886C164.986 131.797 165.062 131.726 165.155 131.685C165.358 131.572 165.575 131.488 165.801 131.434C166.191 131.323 166.592 131.253 166.996 131.226C167.703 131.166 168.136 131.238 168.145 131.192Z" fill="#263238"/>
<path d="M174.168 135.157C174.257 135.157 174.168 134.388 174.521 133.559C174.874 132.73 175.444 132.237 175.371 132.169C175.299 132.101 174.602 132.518 174.227 133.444C173.853 134.371 174.095 135.191 174.168 135.157Z" fill="#263238"/>
<path d="M161.79 135.978C162.01 136.106 162.24 136.214 162.479 136.301C163.124 136.548 163.785 136.753 164.457 136.913C166.683 137.402 168.959 137.617 171.237 137.555C173.9 137.525 176.299 137.406 178.043 137.334L180.101 137.227C180.354 137.226 180.606 137.199 180.854 137.147C180.599 137.101 180.339 137.083 180.08 137.096H178.017L171.212 137.227C168.954 137.285 166.697 137.101 164.478 136.679C162.786 136.36 161.79 135.922 161.79 135.978Z" fill="#263238"/>
<path d="M161.25 136.382C161.704 136.203 162.148 136.002 162.581 135.778C163.628 135.284 164.792 135.091 165.942 135.221C167.281 135.425 168.23 136.326 168.847 136.947C169.162 137.32 169.505 137.67 169.872 137.992C169.635 137.56 169.342 137.162 169 136.807C168.651 136.395 168.256 136.026 167.822 135.706C167.281 135.304 166.653 135.037 165.988 134.928C164.782 134.783 163.561 135.014 162.492 135.591C162.039 135.788 161.62 136.054 161.25 136.382V136.382Z" fill="#263238"/>
<path d="M179.068 137.151C178.994 136.922 178.907 136.698 178.808 136.479C178.622 135.944 178.578 135.369 178.681 134.812C178.784 134.255 179.03 133.734 179.395 133.3C179.676 132.96 179.901 132.798 179.88 132.764C179.859 132.73 179.599 132.858 179.272 133.189C178.842 133.622 178.553 134.173 178.442 134.772C178.331 135.372 178.404 135.99 178.651 136.547C178.842 136.964 179.046 137.168 179.068 137.151Z" fill="#263238"/>
<path d="M145.508 128.722C145.508 128.722 127.287 131.489 126.551 131.655C125.441 131.902 125.156 135.812 126.815 135.948C127.601 136.012 140.306 138.044 141.931 138.137C143.556 138.231 148.652 136.896 148.652 136.896L145.508 128.722Z" fill="#7480FF"/>
<path d="M137.354 134.567C137.265 134.567 137.257 133.623 136.806 132.582C136.355 131.54 135.687 130.881 135.751 130.809C135.815 130.737 136.602 131.349 137.078 132.467C137.554 133.585 137.427 134.584 137.354 134.567Z" fill="#263238"/>
<path d="M139.294 133.954C139.205 133.954 139.128 133.104 138.767 132.127C138.405 131.149 137.916 130.427 138.001 130.388C138.086 130.35 138.677 130.992 139.047 132.025C139.417 133.058 139.371 133.959 139.294 133.954Z" fill="#263238"/>
<path d="M141.072 133.695C140.987 133.695 141.157 132.807 140.885 131.782C140.613 130.758 140.034 130.082 140.119 130.018C140.204 129.955 140.889 130.597 141.17 131.719C141.451 132.841 141.14 133.733 141.072 133.695Z" fill="#263238"/>
<path d="M141.034 131.383C140.925 130.947 140.913 130.493 141 130.052C141.06 129.568 141.179 129.093 141.353 128.637C141.453 128.365 141.574 128.101 141.714 127.846C141.787 127.687 141.902 127.551 142.046 127.451C142.143 127.394 142.256 127.374 142.367 127.392C142.477 127.411 142.577 127.468 142.65 127.553C142.77 127.702 142.831 127.889 142.824 128.08C142.824 128.237 142.813 128.393 142.79 128.548C142.752 128.838 142.681 129.124 142.578 129.398C142.403 129.853 142.167 130.282 141.876 130.673C141.631 131.049 141.32 131.378 140.957 131.642C140.919 131.608 141.263 131.217 141.701 130.558C141.959 130.16 142.168 129.732 142.322 129.283C142.41 129.025 142.47 128.759 142.501 128.488C142.527 128.216 142.569 127.88 142.429 127.732C142.404 127.696 142.366 127.671 142.323 127.662C142.281 127.654 142.236 127.662 142.199 127.685C142.098 127.759 142.018 127.857 141.965 127.97C141.829 128.209 141.71 128.458 141.608 128.714C141.431 129.149 141.297 129.6 141.208 130.061C141.063 130.877 141.08 131.383 141.034 131.383Z" fill="#263238"/>
<path d="M141.076 131.209C141.449 131.098 141.842 131.076 142.225 131.145C142.646 131.196 143.061 131.297 143.458 131.447C143.703 131.532 143.935 131.65 144.147 131.799C144.283 131.889 144.386 132.021 144.441 132.174C144.495 132.327 144.498 132.494 144.449 132.65C144.39 132.797 144.292 132.926 144.167 133.024C144.041 133.122 143.892 133.185 143.735 133.206C143.467 133.238 143.195 133.205 142.943 133.109C142.186 132.781 141.555 132.217 141.144 131.502C141.445 131.731 141.729 131.981 141.995 132.25C142.295 132.513 142.643 132.717 143.02 132.849C143.23 132.923 143.454 132.946 143.675 132.917C143.78 132.903 143.879 132.861 143.963 132.797C144.047 132.733 144.114 132.649 144.156 132.552C144.184 132.454 144.179 132.349 144.142 132.254C144.105 132.159 144.038 132.078 143.951 132.025C143.763 131.892 143.559 131.784 143.343 131.702C142.968 131.544 142.578 131.427 142.178 131.353C141.519 131.238 141.076 131.255 141.076 131.209Z" fill="#263238"/>
<path d="M134.624 134.431C134.534 134.409 134.713 133.67 134.466 132.798C134.22 131.927 133.701 131.379 133.765 131.319C133.828 131.26 134.492 131.744 134.751 132.722C135.011 133.699 134.688 134.473 134.624 134.431Z" fill="#263238"/>
<path d="M146.831 136.717C146.599 136.821 146.357 136.901 146.108 136.955C145.44 137.126 144.76 137.251 144.075 137.329C141.808 137.551 139.523 137.495 137.269 137.164C134.628 136.815 132.263 136.411 130.545 136.135L128.512 135.782C128.261 135.752 128.014 135.695 127.776 135.612C128.028 135.604 128.28 135.622 128.529 135.667L130.575 135.927L137.308 136.866C139.542 137.191 141.805 137.277 144.058 137.121C145.78 136.977 146.818 136.671 146.831 136.717Z" fill="#263238"/>
<path d="M147.303 137.181C147.273 137.219 146.827 136.879 146.053 136.424C145.074 135.806 143.94 135.476 142.782 135.472C141.429 135.514 140.383 136.297 139.694 136.841C139.335 137.172 138.954 137.478 138.554 137.759C138.837 137.356 139.175 136.994 139.558 136.683C139.953 136.315 140.39 135.994 140.859 135.727C141.445 135.394 142.101 135.205 142.773 135.174C143.991 135.171 145.18 135.545 146.176 136.245C146.598 136.496 146.979 136.812 147.303 137.181V137.181Z" fill="#263238"/>
<path d="M88.8402 53.9084C88.9523 53.6785 89.14 53.494 89.3718 53.3856L88.9465 52.5355C88.9755 52.2307 89.0606 51.9338 89.1974 51.6599C89.4101 51.2943 90.1545 51.3241 90.1545 51.3241L90.0396 51.0818C89.9619 50.9103 89.9297 50.7216 89.946 50.534C89.9624 50.3464 90.0269 50.1662 90.1332 50.0107C90.1672 49.9639 90.2013 49.9172 90.2438 49.8662C90.5016 49.616 90.8294 49.45 91.1838 49.3901C91.1838 49.3901 90.7585 48.574 90.9499 48.2297C91.1489 47.9466 91.4266 47.728 91.7487 47.6011C92.0707 47.4742 92.423 47.4444 92.7618 47.5156C93.8965 47.961 94.9981 48.4866 96.0582 49.0883C96.1572 49.1421 96.2667 49.1737 96.3791 49.1811C96.4915 49.1884 96.6042 49.1713 96.7093 49.1309C96.8145 49.0905 96.9096 49.0277 96.9881 48.947C97.0666 48.8663 97.1267 48.7694 97.1641 48.6633C97.5425 47.5776 98.0863 46.5568 98.7761 45.6369C99.5758 44.6763 100.324 44.7528 100.762 44.9228C100.812 44.9419 100.856 44.9715 100.892 45.0094C100.929 45.0474 100.956 45.0929 100.973 45.1427C100.99 45.1925 100.996 45.2454 100.991 45.2977C100.985 45.35 100.968 45.4005 100.941 45.4456C100.512 46.1293 100.125 46.8391 99.7842 47.5709C99.5758 48.1277 99.3588 52.3187 99.3588 52.3187L100.507 54.5035L112.089 72.785C112.089 72.785 129.592 60.9983 129.528 60.705L130.353 74.2217L117.168 82.9778C116.038 83.7273 114.758 84.2207 113.418 84.4232C112.077 84.6257 110.708 84.5325 109.408 84.1501C108.107 83.7678 106.906 83.1055 105.888 82.2097C104.871 81.314 104.062 80.2066 103.519 78.9653L94.6418 59.7104L93.5657 58.1377L89.3846 55.4599C89.3846 55.4599 88.6913 54.2612 88.8402 53.9084Z" fill="#FFBE9D"/>
<path d="M90.7584 49.3944C90.7584 49.3944 90.784 49.4241 90.8393 49.4709L91.0902 49.6749C91.3241 49.8534 91.6431 50.0999 92.026 50.4017L93.4253 51.4644C93.689 51.6599 93.9527 51.8894 94.276 52.0764C94.436 52.1873 94.6201 52.2587 94.8131 52.2845C95.0061 52.3104 95.2025 52.2901 95.3861 52.2252C95.575 52.14 95.7262 51.9889 95.8115 51.8002C95.8873 51.6248 95.9208 51.434 95.9093 51.2433C95.8774 50.8875 95.7277 50.5525 95.484 50.2912C95.2687 50.0606 95.0355 49.8474 94.7864 49.6536L94.1569 49.1308L93.2382 48.3785L92.9872 48.1787C92.9277 48.1362 92.8979 48.1107 92.8936 48.1149L92.9745 48.1957L93.2126 48.4125L94.1059 49.1861L94.7269 49.7174C94.9701 49.9117 95.1977 50.1249 95.4074 50.355C95.6466 50.5956 95.7966 50.9104 95.8327 51.2476C95.8548 51.4221 95.8241 51.5991 95.7444 51.756C95.6648 51.9128 95.54 52.0422 95.3861 52.1275C95.2205 52.1953 95.0386 52.213 94.863 52.1785C94.6884 52.1447 94.5213 52.0799 94.3696 51.9872C94.0718 51.8044 93.7996 51.5621 93.5189 51.3879L92.111 50.338L91.154 49.6409L90.8903 49.4539L90.7584 49.3944Z" fill="#EB996E"/>
<path d="M89.8312 51.3623C89.8901 51.4234 89.9557 51.4776 90.0269 51.5239C90.1545 51.6216 90.3459 51.7619 90.5841 51.9277C91.0562 52.255 91.724 52.697 92.4853 53.1433C92.6767 53.2538 92.8596 53.3686 93.0553 53.4579C93.245 53.5471 93.4543 53.5866 93.6635 53.5726C93.8409 53.5514 94.0088 53.4808 94.1479 53.3688C94.287 53.2568 94.3919 53.108 94.4504 52.9393C94.5219 52.7117 94.5037 52.4653 94.3994 52.2507C94.3697 52.1946 94.334 52.1419 94.293 52.0934C94.2633 52.0594 94.2463 52.0467 94.242 52.0467C94.2377 52.0467 94.2973 52.1232 94.3611 52.2677C94.4383 52.4762 94.4383 52.7053 94.3611 52.9138C94.3066 53.0665 94.2096 53.2004 94.0815 53.2998C93.9534 53.3992 93.7995 53.46 93.638 53.4749C93.4456 53.4837 93.254 53.4443 93.0808 53.3601C92.8899 53.2678 92.7039 53.1656 92.5236 53.0541C91.7623 52.6077 91.0902 52.1784 90.6053 51.8639L90.0354 51.4899C89.9709 51.4419 89.9026 51.3992 89.8312 51.3623V51.3623Z" fill="#EB996E"/>
<path d="M89.291 53.2836C89.3533 53.3288 89.4203 53.3673 89.4909 53.3983L90.0566 53.6831C90.5372 53.9212 91.205 54.24 91.9408 54.5885C92.1204 54.6785 92.305 54.758 92.4938 54.8265C92.6773 54.8944 92.8759 54.9106 93.068 54.8733C93.157 54.8566 93.2413 54.8206 93.3148 54.7677C93.3883 54.7148 93.4493 54.6463 93.4933 54.5672C93.5643 54.4284 93.5882 54.2703 93.5614 54.1167C93.5148 53.9012 93.3963 53.7078 93.2254 53.5684C93.1105 53.4706 93.034 53.4324 93.0297 53.4409C93.0254 53.4494 93.0935 53.4961 93.1998 53.5981C93.3475 53.7415 93.4471 53.9271 93.4848 54.1294C93.5059 54.2651 93.482 54.4039 93.4168 54.5247C93.377 54.5913 93.3234 54.6485 93.2595 54.6925C93.1957 54.7366 93.1231 54.7663 93.0467 54.7798C92.8723 54.8109 92.6928 54.7932 92.5278 54.7288C92.3431 54.6604 92.1627 54.5809 91.9876 54.4907C91.2475 54.1464 90.5797 53.8362 90.0906 53.6151L89.5079 53.3643C89.44 53.3268 89.3669 53.2996 89.291 53.2836Z" fill="#EB996E"/>
<path d="M88.989 55.0603C89.2053 55.1354 89.4272 55.1937 89.6525 55.2346C90.0778 55.3281 90.6393 55.4513 91.273 55.5789L91.7367 55.6724C91.8828 55.7082 92.0329 55.7253 92.1833 55.7234C92.3273 55.7232 92.4669 55.6737 92.5788 55.5831C92.628 55.5422 92.6673 55.4908 92.6938 55.4327C92.7203 55.3746 92.7333 55.3112 92.732 55.2473C92.7246 55.1588 92.698 55.073 92.6539 54.9959C92.6098 54.9188 92.5493 54.8523 92.4768 54.801C92.429 54.7591 92.3697 54.7325 92.3066 54.7245C92.3066 54.7245 92.3662 54.7585 92.4512 54.835C92.5133 54.8876 92.5635 54.9526 92.5987 55.0258C92.6338 55.099 92.6532 55.1789 92.6554 55.2601C92.6552 55.3118 92.6433 55.3628 92.6204 55.4092C92.5976 55.4556 92.5645 55.4962 92.5235 55.5279C92.4258 55.602 92.3059 55.6409 92.1833 55.6384C92.0399 55.6359 91.8972 55.6174 91.7579 55.5831L91.2943 55.4854C90.6606 55.3578 90.0863 55.2473 89.6695 55.1708C89.4456 55.118 89.2181 55.0811 88.989 55.0603Z" fill="#EB996E"/>
<path d="M93.5274 54.2102C93.9195 54.1318 94.3184 54.0919 94.7183 54.0912C95.1153 54.1282 95.5073 54.2066 95.888 54.325C95.5396 54.1037 95.1354 53.9858 94.7226 53.9849C94.311 53.9483 93.8973 54.0263 93.5274 54.2102V54.2102Z" fill="#EB996E"/>
<path d="M156.023 50.2062C156.023 50.2062 161.909 45.2458 160.548 41.8284C159.187 38.411 155.406 36.7278 153.547 30.5007C152.063 25.5361 143.22 15.9554 132.74 23.1813C132.74 23.1813 129.192 22.6245 127.176 24.2397C125.16 25.8549 124.671 29.0768 123.816 32.796C122.497 38.53 121.774 42.9378 124.326 45.7431C126.878 48.5485 127.814 49.3008 127.678 52.4887C127.499 56.65 125.662 56.0932 127.253 59.1281L136.04 56.2632L136.134 53.8446L137.023 56.1187L142.127 54.2825L156.023 50.2062Z" fill="#263238"/>
<path d="M126.755 29.2851C127.325 30.5942 126.857 32.1074 126.33 33.4336C125.802 34.7598 125.16 36.1582 125.432 37.5609C125.917 40.0474 129.009 41.4331 129.35 43.9367C129.532 45.2798 128.86 46.6485 129.12 47.9832C129.379 49.3178 130.451 50.2445 131.595 50.8905C132.74 51.5366 134.003 51.9702 135.079 52.7268C135.079 52.7268 137.444 54.665 141.519 51.4729" fill="#263238"/>
<path d="M143.45 26.0334C143.978 25.9111 144.534 25.9912 145.006 26.258C145.478 26.5247 145.834 26.9587 146.002 27.4743V27.4743L154.445 55.4854C155.538 58.7625 151.412 62.2607 147.894 63.3999C144.339 64.5518 143.62 62.8643 142.493 59.7784C140.604 54.6268 139.941 52.68 139.941 52.7098C139.941 52.7395 135.228 53.5174 132.284 48.0342C130.821 45.3011 129.307 40.5107 128.214 36.5577C127.219 32.9958 128.044 27.9122 131.646 27.0748L143.45 26.0334Z" fill="#FFBE9D"/>
<path d="M131.191 39.4821C131.257 39.6777 131.396 39.84 131.58 39.9338C131.764 40.0276 131.977 40.0455 132.174 39.9837C132.271 39.9581 132.363 39.9133 132.443 39.852C132.523 39.7907 132.59 39.7141 132.639 39.6266C132.689 39.5391 132.721 39.4425 132.733 39.3425C132.745 39.2425 132.737 39.1411 132.71 39.0443C132.644 38.8493 132.504 38.6878 132.32 38.5941C132.137 38.5004 131.924 38.482 131.727 38.5427C131.63 38.5683 131.538 38.613 131.458 38.6743C131.378 38.7357 131.312 38.8123 131.262 38.8998C131.212 38.9873 131.18 39.0839 131.168 39.1839C131.156 39.2838 131.164 39.3852 131.191 39.4821Z" fill="#263238"/>
<path d="M130.026 38.4832C130.149 38.547 130.57 37.9349 131.374 37.6586C132.178 37.3823 132.905 37.5779 132.956 37.4503C132.986 37.3908 132.829 37.2463 132.531 37.1486C132.1 37.0296 131.643 37.0459 131.221 37.1953C130.803 37.3406 130.441 37.6144 130.187 37.9774C129.988 38.2324 129.962 38.4407 130.026 38.4832Z" fill="#263238"/>
<path d="M139.154 36.9403C139.219 37.1351 139.358 37.2968 139.54 37.3913C139.723 37.4857 139.935 37.5053 140.132 37.4461C140.229 37.4205 140.321 37.3758 140.401 37.3145C140.481 37.2531 140.548 37.1765 140.598 37.089C140.647 37.0015 140.679 36.9049 140.691 36.8049C140.704 36.705 140.696 36.6036 140.668 36.5067C140.603 36.3119 140.464 36.1502 140.281 36.0557C140.099 35.9613 139.886 35.9417 139.69 36.0009C139.592 36.0265 139.501 36.0712 139.421 36.1325C139.341 36.1939 139.274 36.2705 139.224 36.358C139.174 36.4455 139.142 36.5421 139.13 36.6421C139.118 36.742 139.126 36.8434 139.154 36.9403V36.9403Z" fill="#263238"/>
<path d="M138.031 36.0647C138.158 36.1327 138.579 35.5163 139.383 35.2401C140.187 34.9638 140.915 35.1593 140.966 35.0318C140.995 34.9723 140.838 34.832 140.519 34.7342C140.088 34.613 139.63 34.6294 139.209 34.781C138.79 34.9233 138.428 35.1959 138.175 35.5589C137.997 35.8309 137.971 36.0392 138.031 36.0647Z" fill="#263238"/>
<path d="M137.189 43.027C136.719 43.0402 136.253 43.113 135.802 43.2438C135.589 43.2948 135.377 43.3203 135.3 43.1928C135.211 42.9868 135.186 42.7587 135.228 42.5382C135.228 41.9772 135.266 41.3863 135.287 40.77C135.36 38.2537 135.334 36.2177 135.232 36.2134C135.13 36.2092 134.99 38.2494 134.922 40.7615C134.922 41.3778 134.9 41.9687 134.888 42.534C134.841 42.8291 134.903 43.1309 135.062 43.3841C135.114 43.4446 135.18 43.4925 135.254 43.5242C135.327 43.5558 135.407 43.5704 135.487 43.5669C135.611 43.5593 135.732 43.535 135.849 43.4946C136.314 43.3966 136.764 43.2395 137.189 43.027V43.027Z" fill="#263238"/>
<path d="M139.936 52.7098C142.69 51.8019 145.136 50.1461 147.001 47.9279C147.001 47.9279 146.427 52.6035 140.417 54.087L139.936 52.7098Z" fill="#EB996E"/>
<path d="M138.201 44.859C138.286 44.6134 138.433 44.3937 138.627 44.2211C138.821 44.0484 139.057 43.9285 139.311 43.8729C139.493 43.8271 139.683 43.8185 139.869 43.8477C140.054 43.8769 140.232 43.9433 140.391 44.0429C140.546 44.1384 140.668 44.2798 140.739 44.4473C140.81 44.6149 140.826 44.8004 140.787 44.978C140.709 45.1665 140.576 45.3272 140.405 45.4394C140.234 45.5515 140.034 45.6099 139.83 45.6071C139.404 45.6066 138.983 45.5199 138.592 45.3521C138.478 45.3197 138.372 45.2663 138.277 45.1948C138.234 45.1604 138.2 45.1139 138.182 45.0611C138.164 45.0083 138.162 44.9514 138.175 44.8973" fill="#EB996E"/>
<path d="M137.435 33.7694C137.559 33.9819 138.371 33.7141 139.375 33.6461C140.379 33.5781 141.217 33.6929 141.31 33.4676C141.348 33.3571 141.17 33.1701 140.808 33.0128C140.333 32.8179 139.818 32.7406 139.307 32.7875C138.794 32.8214 138.297 32.9774 137.856 33.2423C137.525 33.4549 137.376 33.6674 137.435 33.7694Z" fill="#263238"/>
<path d="M128.869 35.8054C129.09 35.9414 129.72 35.5589 130.524 35.3208C131.327 35.0828 132.059 35.0233 132.165 34.7853C132.208 34.6705 132.046 34.5132 131.697 34.424C131.221 34.3299 130.729 34.3556 130.265 34.4988C129.801 34.642 129.379 34.8982 129.039 35.2443C128.805 35.5079 128.767 35.7331 128.869 35.8054Z" fill="#263238"/>
<path d="M153.283 44.434C151.701 39.1378 150.117 33.8388 148.532 28.537C148.209 27.4488 147.835 26.2884 146.929 25.6041C146.023 24.9198 144.926 24.8815 143.854 24.8603C139.222 24.764 134.596 25.2206 130.073 26.2204C129.86 27.2958 130.791 28.3202 131.838 28.673C132.884 29.0258 134.016 28.8983 135.113 28.911C136.21 28.9238 137.414 29.1193 138.158 29.9311C138.903 30.743 139.03 32.1244 139.779 33.0255C141.055 34.5727 143.764 34.2454 145.045 35.8011C146.01 36.9785 145.751 38.7 146.07 40.1877C146.431 41.8879 146.431 41.8879 147.771 44.3617C148.583 45.8834 146.542 48.7908 148.575 52.561L152.522 51.4388L150.791 45.6156L153.139 51.0776L153.283 44.434Z" fill="#263238"/>
<path d="M139.571 42.9293C139.49 42.9761 139.532 43.1886 139.536 43.4946C139.562 43.8733 139.483 44.2518 139.306 44.588C139.13 44.9241 138.863 45.2048 138.537 45.3989C138.286 45.5689 138.086 45.6539 138.112 45.7474C138.137 45.8409 138.354 45.9217 138.733 45.8324C138.983 45.7659 139.217 45.6481 139.419 45.4864C139.622 45.3248 139.788 45.1227 139.908 44.8933C140.028 44.6638 140.099 44.4119 140.116 44.1535C140.134 43.8951 140.097 43.636 140.009 43.3926C139.851 43.0271 139.643 42.8825 139.571 42.9293Z" fill="#263238"/>
<path d="M140.744 30.1522C140.812 30.204 140.886 30.2456 140.966 30.2754C141.18 30.38 141.389 30.4964 141.591 30.624C142.515 31.1971 143.305 31.9628 143.906 32.8687C144.507 33.7746 144.906 34.7995 145.074 35.8734C145.176 36.6308 145.176 37.3985 145.074 38.1559C144.949 38.9827 144.899 39.8193 144.926 40.6552C144.953 41.091 145.043 41.5205 145.193 41.9304C145.353 42.3143 145.542 42.6853 145.759 43.0398C146.197 43.6637 146.501 44.3713 146.652 45.1183C146.735 45.8031 146.716 46.4962 146.597 47.1756C146.508 47.8259 146.393 48.4507 146.35 48.9905C146.231 49.8823 146.365 50.7896 146.737 51.6089C146.852 51.8238 146.995 52.0225 147.163 52.1997C147.286 52.3145 147.354 52.3697 147.358 52.3612C147.146 52.1213 146.964 51.8557 146.818 51.5706C146.491 50.763 146.384 49.8829 146.508 49.0203C146.563 48.4677 146.686 47.8684 146.784 47.2181C146.915 46.5172 146.939 45.8008 146.857 45.0928C146.691 43.5286 145.181 42.381 145.155 40.6637C145.129 39.8408 145.176 39.0172 145.296 38.2027C145.402 37.427 145.402 36.6405 145.296 35.8649C145.086 34.5499 144.53 33.3145 143.684 32.2859C143.12 31.5971 142.432 31.0203 141.655 30.5857C141.446 30.4653 141.229 30.3616 141.004 30.2754C140.924 30.2208 140.837 30.1792 140.744 30.1522V30.1522Z" fill="#263238"/>
<path d="M121.681 54.0529L121.753 54.1124C121.804 54.1464 121.876 54.2059 121.978 54.2655C122.279 54.4424 122.605 54.5741 122.944 54.6565C123.485 54.791 124.049 54.8113 124.598 54.716C125.335 54.5992 126.018 54.2594 126.555 53.7426C127.203 53.1095 127.616 52.2743 127.725 51.3751C127.796 50.8764 127.762 50.3684 127.627 49.8832C127.478 49.3732 127.242 48.8929 126.929 48.4635C126.218 47.5962 125.431 46.794 124.577 46.0662C124.15 45.67 123.762 45.2329 123.42 44.7613C123.082 44.2679 122.815 43.73 122.625 43.1631C122.276 42.0283 122.125 40.8422 122.178 39.6564C122.22 38.5463 122.335 37.4402 122.523 36.3452C122.827 34.4883 123.299 32.6629 123.935 30.8918C124.363 29.6951 124.86 28.5243 125.424 27.3851C125.624 26.9813 125.785 26.671 125.896 26.4627C125.96 26.3658 126.016 26.2634 126.062 26.1567C125.988 26.253 125.923 26.3554 125.866 26.4627C125.743 26.6625 125.568 26.9685 125.356 27.3681C124.758 28.4953 124.237 29.6611 123.795 30.8578C123.133 32.6322 122.64 34.4653 122.323 36.3324C122.127 37.4367 122.006 38.5529 121.961 39.6734C121.904 40.8837 122.058 42.0947 122.416 43.2523C122.61 43.8399 122.886 44.3967 123.237 44.9058C123.59 45.3895 123.989 45.8379 124.428 46.2447C125.274 46.9616 126.055 47.751 126.763 48.6037C127.065 49.0118 127.294 49.4692 127.44 49.9554C127.57 50.4168 127.606 50.8995 127.546 51.3751C127.445 52.2365 127.057 53.0388 126.444 53.6534C125.932 54.154 125.282 54.49 124.577 54.6182C124.044 54.7204 123.495 54.7117 122.965 54.5927C122.512 54.4795 122.079 54.2975 121.681 54.0529V54.0529Z" fill="#263238"/>
<path d="M157.864 48.2892C157.367 48.1605 156.902 47.9288 156.499 47.6091C155.444 46.6729 154.794 45.3637 154.687 43.9579C154.595 42.9931 154.57 42.0231 154.611 41.0548C154.672 39.929 154.585 38.7999 154.351 37.6969C154.208 37.0996 153.977 36.5267 153.666 35.9967C153.336 35.4361 152.875 34.9636 152.322 34.6195C151.17 33.9139 149.77 33.9479 148.494 33.5101C147.872 33.2924 147.313 32.9261 146.865 32.4432C146.434 31.9637 146.049 31.4442 145.717 30.8918C145.036 29.8206 144.381 28.6942 143.343 28.0269C142.845 27.7099 142.283 27.5053 141.697 27.4276C141.155 27.3548 140.606 27.3321 140.06 27.3596C139.092 27.4349 138.12 27.4264 137.155 27.3341C135.761 27.143 134.435 26.6148 133.292 25.7954C132.985 25.5704 132.69 25.3292 132.408 25.0728L132.191 24.8688L132.11 24.8008C132.439 25.2028 132.82 25.56 133.241 25.8634C134.383 26.7212 135.721 27.2807 137.133 27.4913C138.107 27.5926 139.087 27.6096 140.064 27.5424C141.093 27.5424 142.263 27.5424 143.233 28.2012C144.202 28.86 144.853 29.9269 145.534 31.0065C145.873 31.5729 146.266 32.1053 146.708 32.5962C147.175 33.1026 147.759 33.4877 148.409 33.7184C149.719 34.1689 151.114 34.1434 152.19 34.8065C153.201 35.4924 153.9 36.5496 154.134 37.7479C154.37 38.832 154.463 39.9423 154.411 41.0505C154.374 42.0279 154.408 43.0067 154.513 43.9792C154.638 45.4157 155.326 46.7448 156.427 47.6771C156.732 47.9176 157.08 48.0979 157.452 48.2085C157.548 48.2363 157.646 48.259 157.745 48.2765C157.784 48.2883 157.824 48.2926 157.864 48.2892V48.2892Z" fill="#7480FF"/>
<path d="M153.602 30.6835C153.325 30.7808 153.041 30.8561 152.752 30.9088C151.966 31.0046 151.169 30.8733 150.455 30.5305C149.414 29.9834 148.483 29.2501 147.707 28.367C147.239 27.8909 146.75 27.3808 146.197 26.9005C145.63 26.3889 144.982 25.9752 144.279 25.6764C143.564 25.3976 142.805 25.2535 142.037 25.2513C141.334 25.2495 140.631 25.2878 139.932 25.3661C139.269 25.4298 138.656 25.4978 138.052 25.5021C137.506 25.511 136.96 25.4669 136.423 25.3703C135.643 25.2481 134.91 24.9226 134.296 24.4267C134.085 24.2291 133.885 24.0206 133.697 23.8019C133.727 23.8711 133.766 23.9367 133.811 23.9974C133.861 24.0753 133.916 24.1492 133.977 24.2184C134.057 24.3165 134.145 24.4075 134.241 24.4905C134.854 25.0275 135.603 25.3849 136.406 25.5233C136.952 25.6326 137.508 25.6867 138.065 25.6849C138.665 25.6849 139.298 25.6254 139.966 25.5701C140.657 25.4966 141.351 25.4625 142.046 25.4681C142.786 25.4671 143.52 25.6026 144.211 25.8676C145.619 26.45 146.631 27.5678 147.575 28.4987C148.372 29.3923 149.332 30.1253 150.404 30.658C151.145 31.0006 151.972 31.1131 152.777 30.981C152.994 30.94 153.206 30.8729 153.407 30.7813C153.475 30.7552 153.541 30.7224 153.602 30.6835V30.6835Z" fill="#7480FF"/>
<path d="M122.829 42.602C122.724 42.3416 122.654 42.0687 122.621 41.7901C122.581 41.0278 122.794 40.2737 123.225 39.6436C123.718 38.7935 124.633 38.0794 125.56 37.1741C126.059 36.7016 126.477 36.1501 126.798 35.5419C127.108 34.8739 127.287 34.1523 127.325 33.4166C127.423 31.9076 127.163 30.4965 127.197 29.2171C127.148 28.0856 127.478 26.97 128.133 26.0462C128.591 25.4358 129.254 25.0115 130 24.8518C130.282 24.8113 130.568 24.8041 130.851 24.8305C130.782 24.7996 130.709 24.7795 130.634 24.771C130.424 24.7422 130.211 24.7422 130 24.771C129.216 24.9025 128.51 25.3244 128.023 25.9526C127.363 26.7135 127.023 27.9206 127.006 29.2171C126.989 30.5135 127.214 31.9332 127.117 33.4038C127.082 34.1154 126.912 34.8137 126.615 35.4611C126.309 36.0514 125.908 36.5871 125.428 37.0465C124.526 37.9477 123.595 38.7042 123.106 39.5969C122.67 40.2582 122.473 41.0486 122.548 41.8369C122.575 42.0477 122.636 42.2528 122.727 42.4447C122.754 42.5011 122.789 42.5539 122.829 42.602V42.602Z" fill="#7480FF"/>
<path d="M160.472 45.1481C160.565 45.1041 160.656 45.0544 160.744 44.9993C160.991 44.8329 161.213 44.6326 161.403 44.4042C161.755 43.9761 162.009 43.4773 162.15 42.9418C162.291 42.4063 162.315 41.8468 162.22 41.3013C162.151 40.9383 162.029 40.5874 161.858 40.26C161.655 39.9166 161.403 39.6045 161.11 39.3333C160.438 38.7813 159.694 38.3237 158.898 37.9732C158.033 37.6036 157.234 37.0954 156.533 36.4685C155.856 35.7242 155.393 34.8106 155.193 33.8246C154.938 32.8173 154.768 31.7971 154.432 30.8493C154.117 29.9431 153.702 29.0748 153.194 28.2607C152.342 26.8789 151.246 25.6622 149.962 24.669C149.099 23.9995 148.152 23.4451 147.146 23.0198C146.875 22.9009 146.598 22.7973 146.316 22.7095C146.221 22.6699 146.121 22.6414 146.019 22.6245C146.019 22.65 146.418 22.7775 147.112 23.1005C148.096 23.551 149.021 24.1221 149.864 24.8008C151.119 25.7968 152.187 27.0071 153.02 28.3755C153.515 29.1783 153.918 30.0336 154.223 30.9258C154.547 31.8524 154.717 32.8598 154.981 33.9012C155.188 34.9255 155.672 35.8735 156.38 36.6428C157.098 37.2838 157.917 37.8023 158.804 38.1772C159.587 38.5157 160.321 38.9575 160.986 39.4906C161.267 39.7474 161.51 40.0421 161.709 40.3662C161.877 40.6754 161.997 41.0077 162.067 41.3523C162.173 41.9512 162.139 42.5664 161.969 43.1503C161.839 43.5932 161.625 44.0072 161.339 44.3702C161.085 44.6656 160.793 44.9271 160.472 45.1481V45.1481Z" fill="#263238"/>
<path d="M121.63 42.9973C121.651 42.9973 121.451 42.7933 121.179 42.3895C120.804 41.8183 120.546 41.1782 120.422 40.5065C120.244 39.51 120.28 38.487 120.528 37.5056C120.859 36.3077 121.372 35.1679 122.051 34.1264C122.753 33 123.51 31.9799 124.148 31.015C124.726 30.1653 125.228 29.2664 125.649 28.3287C125.932 27.6935 126.139 27.0273 126.266 26.3437C126.299 26.1581 126.322 25.9708 126.334 25.7826C126.343 25.7178 126.343 25.6519 126.334 25.5871C126.334 25.5871 126.283 25.8549 126.177 26.3267C126.022 26.9997 125.798 27.655 125.509 28.2819C125.069 29.1997 124.557 30.0809 123.978 30.9173C123.335 31.8736 122.57 32.8895 121.851 34.0287C121.16 35.0895 120.642 36.253 120.315 37.4759C120.072 38.4866 120.052 39.5381 120.256 40.5575C120.401 41.2441 120.691 41.8919 121.106 42.4575C121.219 42.6096 121.344 42.7518 121.481 42.8825C121.525 42.9272 121.575 42.9658 121.63 42.9973V42.9973Z" fill="#263238"/>
<path d="M165.81 102.241L169.302 108.315C169.302 108.315 186.66 101.969 196.821 103.818C200.688 104.52 204.822 113.28 199.19 118.908C193.699 124.395 183.878 132.157 165.448 134.669C164.989 134.728 157.439 136.348 157.907 136.292C158.375 136.237 147.324 137.993 147.324 137.993L144.73 128.191L124.148 131.417C112.017 130.592 106.079 117.628 113.387 113.454C120.192 109.565 133.012 109.25 133.012 109.25L137.656 101.973L165.81 102.241Z" fill="#263238"/>
<path d="M146.903 138.371C146.852 138.039 146.703 137.147 146.406 135.315C146.24 134.337 146.04 133.147 145.78 131.778C145.649 131.09 145.504 130.363 145.33 129.593C145.24 129.207 145.147 128.816 145.032 128.412C144.977 128.212 144.917 128.012 144.845 127.808C144.779 127.589 144.673 127.384 144.53 127.205L144.5 127.353C148.881 125.798 154.36 123.745 160.195 121.284C163.785 119.758 167.171 118.219 170.152 116.608C171.574 115.867 172.939 115.022 174.236 114.079C175.444 113.186 176.524 112.294 177.536 111.529C179.536 109.947 181.364 108.927 182.713 108.494C183.01 108.388 183.312 108.299 183.619 108.226C183.841 108.164 184.067 108.115 184.295 108.081L184.72 108.005L184.865 107.971C184.816 107.965 184.766 107.965 184.716 107.971L184.291 108.026C184.059 108.051 183.828 108.092 183.602 108.149C183.291 108.214 182.984 108.298 182.683 108.4C181.854 108.669 181.056 109.023 180.301 109.459C179.303 110.036 178.346 110.682 177.439 111.393C176.418 112.162 175.337 113.046 174.125 113.943C172.832 114.876 171.471 115.711 170.055 116.442C167.077 118.032 163.696 119.566 160.11 121.088C154.279 123.545 148.809 125.615 144.441 127.192L144.317 127.239L144.411 127.341C144.53 127.503 144.621 127.684 144.679 127.876C144.751 128.072 144.811 128.272 144.87 128.467C144.985 128.862 145.083 129.258 145.172 129.636C145.351 130.401 145.504 131.128 145.64 131.812C145.912 133.181 146.125 134.363 146.304 135.34C146.482 136.318 146.627 137.062 146.729 137.593C146.78 137.852 146.818 138.052 146.852 138.184C146.865 138.247 146.882 138.31 146.903 138.371Z" fill="#7480FF"/>
<path d="M117.376 114.644H117.491L117.81 114.593C118.091 114.555 118.499 114.453 119.039 114.398C120.552 114.199 122.08 114.145 123.603 114.236C125.863 114.382 128.103 114.752 130.29 115.341C131.523 115.669 132.808 116.06 134.118 116.515C135.428 116.969 136.772 117.492 138.146 118.04C139.486 118.572 140.857 119.025 142.25 119.396C143.598 119.766 144.913 120.055 146.172 120.298C148.69 120.791 150.982 121.092 152.905 121.326C154.827 121.56 156.388 121.717 157.465 121.828L158.707 121.951L159.03 121.976C159.066 121.982 159.104 121.982 159.14 121.976H159.034L158.711 121.93L157.477 121.764L152.926 121.194C151.004 120.939 148.72 120.621 146.214 120.119C144.96 119.872 143.662 119.579 142.31 119.205C140.924 118.833 139.561 118.383 138.226 117.858C136.857 117.309 135.508 116.782 134.186 116.332C132.863 115.881 131.578 115.482 130.336 115.163C128.136 114.58 125.881 114.225 123.607 114.104C122.075 114.025 120.539 114.102 119.022 114.334C118.482 114.402 118.078 114.521 117.797 114.572L117.478 114.644C117.444 114.64 117.41 114.64 117.376 114.644V114.644Z" fill="#7480FF"/>
<path d="M149.09 111.116C149.09 111.261 150.008 111.495 151.552 111.639C155.584 111.969 159.642 111.536 163.513 110.364C164.989 109.896 165.852 109.467 165.81 109.327C165.712 109.021 162.067 109.99 157.473 110.466C152.879 110.942 149.119 110.793 149.09 111.116Z" fill="#263238"/>
<path d="M132.816 109.395C133.038 109.473 133.266 109.534 133.497 109.578C133.765 109.632 134.031 109.7 134.292 109.782C134.598 109.871 134.951 109.964 135.33 110.1C136.224 110.399 137.102 110.747 137.958 111.142C138.92 111.601 139.958 112.145 141.017 112.774C142.811 113.868 144.531 115.078 146.168 116.396C146.797 116.897 147.303 117.314 147.648 117.603C147.821 117.76 148.007 117.902 148.205 118.028C148.052 117.85 147.885 117.684 147.707 117.53C147.376 117.22 146.886 116.787 146.265 116.255C144.651 114.893 142.933 113.658 141.127 112.562C140.129 111.966 139.1 111.424 138.044 110.938C137.177 110.546 136.286 110.209 135.377 109.93C134.994 109.803 134.637 109.718 134.322 109.641C134.056 109.569 133.786 109.512 133.514 109.471C133.284 109.426 133.05 109.4 132.816 109.395V109.395Z" fill="#7480FF"/>
<path d="M152.114 118.036C152.534 117.973 152.944 117.856 153.335 117.688C154.287 117.324 155.217 116.906 156.12 116.434L158.813 115.018C159.196 114.842 159.567 114.64 159.923 114.415C159.514 114.528 159.118 114.684 158.741 114.878C158.03 115.201 157.069 115.694 156.01 116.234C154.951 116.774 153.985 117.241 153.266 117.543C152.548 117.845 152.105 118.002 152.114 118.036Z" fill="#7480FF"/>
<path d="M150.238 102.972C150.204 102.972 150.264 103.61 150.327 104.634C150.391 105.659 150.451 107.074 150.421 108.638C150.391 110.203 150.276 111.614 150.174 112.642C150.094 113.192 150.041 113.745 150.017 114.3C150.073 114.164 150.11 114.021 150.127 113.875C150.187 113.594 150.255 113.182 150.327 112.672C150.512 111.341 150.617 109.999 150.642 108.655C150.667 107.313 150.614 105.971 150.485 104.634C150.429 104.12 150.378 103.708 150.332 103.423C150.319 103.269 150.287 103.118 150.238 102.972Z" fill="#7480FF"/>
<path d="M148.303 103.601C148.303 103.601 148.379 103.669 148.486 103.797C148.635 103.975 148.729 104.192 148.758 104.422C148.782 104.587 148.77 104.756 148.724 104.916C148.678 105.076 148.598 105.225 148.49 105.353C148.341 105.485 148.159 105.574 147.964 105.611C147.768 105.647 147.567 105.63 147.38 105.561C147.194 105.492 147.029 105.374 146.905 105.219C146.78 105.064 146.701 104.878 146.674 104.681C146.678 104.513 146.718 104.347 146.791 104.195C146.865 104.044 146.97 103.909 147.099 103.801C147.27 103.645 147.483 103.542 147.711 103.504C147.877 103.478 147.971 103.504 147.975 103.474C147.979 103.444 147.886 103.419 147.703 103.419C147.445 103.426 147.197 103.519 146.997 103.682C146.841 103.8 146.715 103.951 146.627 104.125C146.54 104.299 146.493 104.491 146.491 104.685C146.51 104.927 146.599 105.159 146.746 105.352C146.892 105.546 147.091 105.693 147.319 105.778C147.547 105.862 147.794 105.88 148.032 105.829C148.269 105.777 148.487 105.659 148.66 105.489C148.784 105.338 148.872 105.162 148.918 104.973C148.965 104.784 148.968 104.587 148.928 104.396C148.883 104.141 148.754 103.908 148.562 103.733C148.409 103.618 148.307 103.593 148.303 103.601Z" fill="#7480FF"/>
<path d="M143.02 96.6008C143.114 96.7544 143.226 96.8969 143.352 97.0258C143.671 97.405 144.012 97.7655 144.373 98.1055C144.906 98.6132 145.475 99.0833 146.074 99.5124C146.811 100.035 147.586 100.502 148.392 100.911C149.202 101.309 150.041 101.645 150.902 101.918C151.606 102.137 152.326 102.308 153.054 102.428C153.542 102.513 154.035 102.569 154.53 102.594C154.711 102.612 154.893 102.612 155.074 102.594C155.074 102.552 154.304 102.509 153.079 102.271C152.36 102.128 151.65 101.944 150.953 101.718C148.56 100.937 146.355 99.6678 144.479 97.9907C143.552 97.1661 143.054 96.5753 143.02 96.6008Z" fill="#263238"/>
<path d="M135.258 101.319C135.258 101.383 136.023 101.383 136.925 101.612C137.827 101.842 138.507 102.182 138.541 102.126C137.597 101.433 136.416 101.142 135.258 101.319V101.319Z" fill="#263238"/>
<g opacity="0.3">
<path opacity="0.3" d="M153.109 102.382C149.411 101.704 146.062 99.7702 143.628 96.9068C143.407 97.5797 143.377 98.3007 143.541 98.9896C143.706 99.6786 144.058 100.308 144.56 100.809C143.479 101.319 142.212 100.979 141.029 100.809C139.847 100.639 138.401 100.809 137.835 101.859C143.125 102.348 148.442 102.5 153.751 102.314" fill="black"/>
</g>
<path d="M163.67 94.0505C164.203 93.546 164.825 93.144 165.504 92.8646C166.244 92.5774 167.036 92.443 167.83 92.4693C168.801 92.5041 169.751 92.7599 170.608 93.2173C172.462 94.178 173.585 95.8187 174.402 96.8685C174.718 97.3095 175.002 97.7726 175.252 98.2542C175.335 98.4352 175.433 98.6088 175.546 98.7728C175.492 98.5804 175.42 98.3938 175.329 98.216C175.11 97.7152 174.849 97.2344 174.546 96.7793C174.151 96.2097 173.64 95.5721 173.053 94.8751C172.395 94.1202 171.605 93.4908 170.722 93.0176C169.834 92.5458 168.848 92.2882 167.843 92.2652C167.023 92.2488 166.209 92.4037 165.452 92.72C164.944 92.9278 164.477 93.2259 164.074 93.5999C163.963 93.6979 163.86 93.8061 163.768 93.9229C163.696 94.0037 163.662 94.0462 163.67 94.0505Z" fill="#263238"/>
<path d="M152.535 53.2793L158.473 54.5418L155.504 65.6484L144.989 67.9054L137.776 62.792L136.785 56.667L142.969 54.3292L152.535 53.2793Z" fill="#FFBE9D"/>
<path d="M156.716 54.087C156.716 54.087 152.696 65.7504 145.27 64.6708C137.844 63.5911 138.465 56.0337 138.465 56.0337C138.465 56.0337 130.715 58.397 128.32 60.9091C125.926 63.4211 127.338 68.8831 127.338 68.8831L129.345 78.7528L133.718 97.6592C133.718 97.6592 132.046 102.819 136.321 104.094L137.669 101.969L163.304 102.692C163.304 102.692 168.787 109.008 170.497 106.832C172.207 104.656 173.849 100.405 173.849 100.405L162.071 55.4854L156.716 54.087Z" fill="#7480FF"/>
<path d="M130.345 59.4171C130.136 59.5361 112.145 72.5938 112.145 72.5938C112.145 72.5938 113.557 83.3391 104.914 81.6304C104.914 81.6304 108.402 90.616 113.123 88.7288C114.467 88.1932 131.051 77.7071 131.051 77.7071L134.569 70.222L130.345 59.4171Z" fill="#7480FF"/>
<path d="M156.716 54.6608C156.716 54.6608 157.141 54.6608 157.809 54.7373C161.331 55.0773 174.329 57.7679 175.533 66.9363C176.163 71.7309 176.341 85.7534 177.022 91.6319C177.022 91.6319 175.937 99.8015 175.533 101.315C174.814 104.009 161.79 99.6909 161.79 99.6909L161.765 73.7627L157.112 54.6735" fill="#7480FF"/>
<path d="M164.942 78.2172C164.93 78.2862 164.93 78.3566 164.942 78.4255C164.939 78.6273 164.925 78.8288 164.9 79.0291C164.807 79.7578 164.623 80.4719 164.351 81.1544C164.019 82.03 163.5 83.0246 163.007 84.1637C162.736 84.7614 162.508 85.3779 162.326 86.0085C162.144 86.6888 162.026 87.3846 161.973 88.087C161.897 89.4393 161.933 90.7955 162.08 92.142C162.186 93.3831 162.288 94.501 162.441 95.4319C162.557 96.1679 162.729 96.894 162.956 97.6039C163.041 97.8547 163.113 98.029 163.168 98.1735C163.19 98.2415 163.222 98.3059 163.262 98.3648C163.262 98.3648 163.181 98.0842 163.037 97.5784C162.846 96.8647 162.704 96.1391 162.611 95.4064C162.475 94.4798 162.39 93.3661 162.292 92.1292C162.162 90.7916 162.133 89.4459 162.207 88.104C162.257 87.4148 162.371 86.7318 162.547 86.0637C162.725 85.4427 162.945 84.8348 163.207 84.2445C163.7 83.1096 164.193 82.098 164.512 81.2096C164.777 80.508 164.94 79.7724 164.997 79.0248C165.015 78.8226 165.015 78.6192 164.997 78.417C164.985 78.3489 164.966 78.2821 164.942 78.2172V78.2172Z" fill="#263238"/>
<path d="M164.342 74.9443C164.304 74.9443 164.274 75.6031 164.125 76.6445C163.932 78.0151 163.615 79.3653 163.177 80.6783C163.045 81.0651 162.909 81.4349 162.752 81.7919C162.721 81.8746 162.685 81.9555 162.645 82.0342L162.492 82.268C162.393 82.4234 162.302 82.5837 162.22 82.7483C161.915 83.3133 161.751 83.9429 161.739 84.5845C161.737 85.022 161.822 85.4556 161.99 85.8597C162.049 86.0111 162.128 86.1541 162.224 86.2847C162.009 85.7584 161.898 85.1955 161.897 84.627C161.928 84.0139 162.099 83.4162 162.399 82.8801C162.479 82.727 162.573 82.574 162.671 82.421L162.824 82.1872C162.875 82.0995 162.918 82.007 162.951 81.9109C163.1 81.5539 163.236 81.1756 163.377 80.7888C163.823 79.4625 164.123 78.0913 164.27 76.6998C164.33 76.1685 164.347 75.7307 164.351 75.4246C164.367 75.2647 164.364 75.1035 164.342 74.9443V74.9443Z" fill="#263238"/>
<path d="M163.823 71.0508C163.857 71.0508 164.053 70.5195 164.436 69.6821C164.937 68.5883 165.539 67.5437 166.235 66.5623C166.937 65.5863 167.727 64.6771 168.596 63.8462C169.264 63.2086 169.714 62.8473 169.689 62.8175C169.566 62.8757 169.452 62.95 169.349 63.0386C169.053 63.2546 168.769 63.4859 168.498 63.7314C166.67 65.3503 165.234 67.3634 164.3 69.6184C164.125 70.0434 163.998 70.4047 163.926 70.6555C163.875 70.7825 163.841 70.9153 163.823 71.0508V71.0508Z" fill="#263238"/>
<path d="M126.959 63.4339C126.95 63.7788 126.979 64.1237 127.044 64.4625C127.121 65.0958 127.231 65.9672 127.329 66.932C127.427 67.8969 127.508 68.7725 127.563 69.4101C127.57 69.7551 127.612 70.0984 127.691 70.4345C127.739 70.0924 127.749 69.7459 127.721 69.4016C127.721 68.7598 127.652 67.8799 127.55 66.9108C127.448 65.9417 127.316 65.0661 127.202 64.4412C127.159 64.0974 127.078 63.7595 126.959 63.4339Z" fill="#263238"/>
<path d="M123.259 74.3492C123.259 74.3875 123.82 74.4428 124.692 74.6893C125.827 75.004 126.861 75.609 127.691 76.4448C128.132 76.9169 128.516 77.4391 128.835 78.0005C129.085 78.4671 129.304 78.9499 129.49 79.4456L129.698 80.0237C129.749 80.181 129.792 80.3297 129.834 80.4488C129.865 80.579 129.912 80.7047 129.975 80.8228C129.977 80.6886 129.957 80.555 129.915 80.4275L129.817 79.9727L129.639 79.3776C129.47 78.8647 129.261 78.3659 129.014 77.8857C128.692 77.3149 128.301 76.7865 127.848 76.313C126.996 75.4475 125.917 74.8404 124.735 74.5618C124.534 74.5064 124.329 74.4652 124.122 74.4385C123.969 74.4092 123.814 74.3894 123.659 74.379C123.528 74.3481 123.393 74.338 123.259 74.3492Z" fill="#263238"/>
<path d="M111.345 86.1785C111.457 86.0306 111.552 85.871 111.63 85.7024C111.719 85.5494 111.821 85.3539 111.928 85.1201C112.034 84.8863 112.162 84.6313 112.272 84.3295C112.552 83.6315 112.781 82.9141 112.957 82.183C113.17 81.2845 113.313 80.3706 113.382 79.4499C113.44 78.5306 113.425 77.6081 113.336 76.6913C113.258 75.9434 113.127 75.2019 112.944 74.4725C112.876 74.158 112.778 73.8817 112.706 73.6224C112.648 73.4128 112.577 73.207 112.493 73.0061C112.438 72.8288 112.364 72.6578 112.272 72.496C112.23 72.496 112.515 73.2483 112.791 74.4895C112.95 75.2157 113.063 75.9511 113.131 76.6913C113.207 77.5989 113.219 78.5108 113.165 79.4201C113.097 80.3282 112.963 81.2302 112.766 82.1192C112.6 82.84 112.39 83.5498 112.136 84.2445C111.685 85.4644 111.307 86.1615 111.345 86.1785Z" fill="#263238"/>
<path d="M116.019 82.9863C116.096 82.8431 116.154 82.6901 116.19 82.5315C116.308 82.1134 116.396 81.6872 116.453 81.2564C116.636 79.8049 116.499 78.3311 116.053 76.9378C115.62 75.5384 114.877 74.2543 113.88 73.1803C113.581 72.8341 113.164 72.6102 112.71 72.5513C112.586 72.5478 112.462 72.5725 112.349 72.6235C112.276 72.6618 112.238 72.6873 112.242 72.6958C112.392 72.6476 112.549 72.6274 112.706 72.6363C113.122 72.7277 113.495 72.9569 113.765 73.2866C114.707 74.3678 115.414 75.6329 115.841 77.0016C116.275 78.3739 116.431 79.8188 116.3 81.2521C116.19 82.3147 115.981 82.9736 116.019 82.9863Z" fill="#263238"/>
<path d="M145.27 80.8695C145.284 81.042 145.319 81.2121 145.376 81.3754C145.421 81.5713 145.478 81.7643 145.547 81.9534C145.629 82.2075 145.724 82.4572 145.832 82.7015C146.1 83.3437 146.425 83.961 146.801 84.5463C147.728 85.9887 148.939 87.2269 150.361 88.1847C150.939 88.5757 151.549 88.9156 152.186 89.2006C152.428 89.3137 152.677 89.413 152.93 89.4981C153.117 89.5754 153.309 89.6379 153.505 89.6851C153.668 89.7417 153.836 89.7815 154.007 89.8042C154.007 89.7617 153.309 89.5704 152.254 89.0603C151.636 88.7594 151.041 88.4113 150.476 88.0189C149.791 87.532 149.148 86.9889 148.554 86.3952C147.973 85.7882 147.445 85.1326 146.976 84.4357C146.596 83.8636 146.261 83.2624 145.976 82.6378C145.487 81.5709 145.313 80.8568 145.27 80.8695Z" fill="#263238"/>
<g opacity="0.3">
<path opacity="0.3" d="M160 85.0776L162.45 76.1515C162.569 75.7264 162.769 75.2036 163.215 75.1228C163.425 75.1155 163.631 75.1862 163.792 75.3212C163.953 75.4562 164.058 75.646 164.087 75.8539C164.147 76.2869 164.147 76.7259 164.087 77.1588C163.896 79.1013 163.743 80.419 162.837 81.9237C161.071 84.8566 162.233 86.2805 162.233 86.2805C162.092 89.8509 162.394 94.722 163.509 98.3903L162.458 102.815C161.463 99.5252 159.187 96.7835 158.804 93.3661C158.511 90.565 159.238 87.7894 160 85.0776Z" fill="black"/>
</g>
<g opacity="0.3">
<path opacity="0.3" d="M129.337 78.8123C126.423 80.3255 123.833 82.4168 120.996 84.0362C122.106 81.7197 123.973 79.4286 126.219 78.2002C126.805 77.8221 127.496 77.6391 128.193 77.6774C128.882 77.7752 129.375 78.162 129.269 78.8463" fill="black"/>
</g>
<g opacity="0.3">
<path opacity="0.3" d="M112.642 72.4067C113.637 72.3812 114.386 73.2866 114.875 74.1537C116.251 76.621 116.813 79.4587 116.483 82.2637C116.423 82.7653 116.236 83.3689 115.739 83.4666C115.555 83.4869 115.37 83.4468 115.211 83.3525C115.052 83.2581 114.928 83.1147 114.858 82.9438C114.722 82.6026 114.665 82.2348 114.692 81.8684C114.692 80.1682 114.811 78.4468 114.565 76.7678C114.318 75.0888 113.684 73.3886 112.438 72.2367" fill="black"/>
</g>
<path d="M157.63 75.5989H157.528L157.235 75.5776L156.082 75.5181L151.727 75.3184L136.3 74.6638H136.198V74.7615C136.07 79.9472 135.921 85.9149 135.772 92.2312V92.8646V92.9751H135.844C142.2 93.0484 148.545 93.5225 154.84 94.3948H154.921L154.942 94.314C156.163 89.8466 156.922 85.2662 157.209 80.6443C157.311 78.9696 157.328 77.6689 157.328 76.7593C157.328 76.3342 157.328 75.9687 157.328 75.7349V75.4756C157.328 75.4161 157.328 75.3864 157.328 75.3864C157.325 75.416 157.325 75.446 157.328 75.4756V75.7392C157.328 75.9772 157.328 76.3215 157.328 76.7593C157.328 77.6561 157.273 78.9696 157.158 80.6358C156.832 85.2458 156.049 89.8121 154.819 94.2672L154.925 94.195C148.603 93.2976 142.23 92.8106 135.844 92.7371L135.955 92.8518V92.2185C136.104 85.9022 136.24 79.9344 136.38 74.7488L136.278 74.8465L151.71 75.4204L156.069 75.5649L157.222 75.5989H157.618H157.63Z" fill="white"/>
<path d="M152.007 88.4823C152.067 88.4823 152.599 85.6217 153.194 82.0682C153.79 78.5148 154.224 75.6286 154.164 75.6159C154.104 75.6031 153.573 78.4765 152.977 82.0342C152.382 85.5919 151.965 88.4738 152.007 88.4823Z" fill="white"/>
<path d="M151.386 93.9655C151.615 93.2095 151.773 92.434 151.859 91.6489C152.015 90.8734 152.101 90.0852 152.114 89.2941C151.885 90.0515 151.727 90.8284 151.642 91.6149C151.48 92.3882 151.394 93.1755 151.386 93.9655V93.9655Z" fill="white"/>
<path d="M147.72 85.6386C147.78 85.514 147.821 85.3806 147.839 85.2434C147.903 84.9883 147.984 84.61 148.073 84.1467C148.252 83.2158 148.452 81.9237 148.596 80.487C148.741 79.0503 148.796 77.7412 148.809 76.7976C148.809 76.3215 148.809 75.9474 148.809 75.6754C148.813 75.5327 148.8 75.39 148.771 75.2504C148.702 75.7561 148.666 76.2659 148.664 76.7763C148.613 77.7199 148.532 79.0206 148.388 80.453C148.243 81.8854 148.069 83.1733 147.933 84.1085C147.831 84.6138 147.76 85.1248 147.72 85.6386V85.6386Z" fill="white"/>
<path d="M148.205 93.3959C148.437 92.4071 148.598 91.4027 148.686 90.3907C148.85 89.3886 148.938 88.3755 148.949 87.3601C148.717 88.349 148.557 89.3533 148.469 90.3652C148.304 91.3674 148.216 92.3805 148.205 93.3959V93.3959Z" fill="white"/>
<path d="M143.399 93.0516C143.443 92.8201 143.472 92.5857 143.484 92.3503L143.65 90.4375C143.79 88.8266 143.998 86.612 144.279 84.1425C144.56 81.6729 144.866 79.4669 145.096 77.8644C145.206 77.0908 145.3 76.449 145.368 75.9644C145.411 75.7329 145.437 75.4985 145.444 75.2631C145.37 75.4873 145.316 75.7178 145.283 75.9517C145.193 76.3767 145.079 77.0398 144.943 77.8389C144.67 79.4414 144.343 81.6644 144.058 84.117C143.773 86.5695 143.594 88.7925 143.492 90.429C143.445 91.2366 143.411 91.8912 143.399 92.346C143.376 92.5807 143.376 92.8169 143.399 93.0516Z" fill="white"/>
<path d="M139.307 93.2811C139.338 93.0444 139.349 92.8056 139.341 92.567C139.341 92.0697 139.341 91.4109 139.341 90.6203C139.341 88.9796 139.4 86.7098 139.515 84.2105C139.63 81.7112 139.809 79.4456 139.941 77.8092C140.009 77.0228 140.064 76.3682 140.106 75.8752C140.136 75.6384 140.149 75.3997 140.145 75.1611C140.082 75.3906 140.041 75.6254 140.021 75.8624C139.953 76.3172 139.873 76.9803 139.783 77.7964C139.605 79.4286 139.409 81.6942 139.286 84.1977C139.162 86.7013 139.149 88.9753 139.175 90.6203C139.175 91.4406 139.205 92.108 139.226 92.567C139.235 92.8067 139.262 93.0454 139.307 93.2811V93.2811Z" fill="white"/>
<g opacity="0.3">
<path opacity="0.3" d="M153.671 89.8339C153.004 90.2583 152.216 90.4496 151.429 90.378C150.647 90.3071 149.883 90.1074 149.166 89.7872C148.19 89.4238 147.31 88.8423 146.593 88.087C145.896 87.2217 145.454 86.1797 145.317 85.0776C145.176 83.977 145.139 82.8655 145.206 81.7579C145.202 81.7101 145.214 81.6622 145.24 81.6219C145.256 81.606 145.274 81.5933 145.295 81.5846C145.315 81.576 145.337 81.5715 145.359 81.5715C145.382 81.5715 145.404 81.576 145.424 81.5846C145.444 81.5933 145.463 81.606 145.478 81.6219C145.542 81.6873 145.587 81.7678 145.61 81.8557C146.261 83.7074 147.346 85.377 148.773 86.7255C150.2 88.074 151.929 89.0625 153.815 89.6087" fill="black"/>
</g>
<path d="M156.303 125.436L158.902 120.565L164.746 93.2301C164.746 93.2301 170.123 90.1442 174.529 96.9068C174.704 97.1789 168.472 116.757 166.733 122.202L166.49 127.413C166.49 127.413 166.797 133.58 166.49 134.12C166.216 134.499 165.842 134.793 165.41 134.97C165.41 134.97 165.64 136.513 163.866 136.671C163.866 136.671 163.713 138.371 162.403 138.137C162.047 138.094 161.704 137.975 161.397 137.789C161.091 137.603 160.827 137.353 160.625 137.057C160.625 137.057 160.625 139.212 159.468 138.983C158.311 138.753 158.124 137.827 157.911 137.521C157.699 137.215 157.452 134.048 157.452 134.048L157.473 128.828L154.462 131.268C153.611 131.693 152.314 132.237 151.591 131.587L156.303 125.436Z" fill="#FFBE9D"/>
<path d="M157.469 128.561C157.271 129.485 157.213 130.433 157.299 131.374C157.333 132.097 157.362 132.756 157.392 133.359C157.383 133.635 157.409 133.911 157.469 134.18C157.587 133.246 157.605 132.303 157.52 131.366C157.443 129.819 157.537 128.569 157.469 128.561Z" fill="#EB996E"/>
<path d="M160.786 132.199C160.616 133.915 160.594 135.643 160.718 137.363C160.889 135.647 160.911 133.919 160.786 132.199V132.199Z" fill="#EB996E"/>
<path d="M163.568 133.147C163.372 134.347 163.491 135.577 163.913 136.717C163.972 136.717 163.819 135.914 163.73 134.932C163.709 134.335 163.655 133.739 163.568 133.147V133.147Z" fill="#EB996E"/>
<path d="M165.359 132.543C165.287 133.326 165.365 134.115 165.589 134.868C165.663 134.481 165.663 134.083 165.589 133.695C165.583 133.3 165.505 132.91 165.359 132.543V132.543Z" fill="#EB996E"/>
<path d="M236 48.0419L239.913 41.1475C237.494 37.2228 236.632 32.5359 237.495 28.0079C238.359 23.48 240.886 19.4385 244.579 16.6779C248.273 13.9172 252.867 12.6371 257.457 13.089C262.047 13.541 266.302 15.6923 269.386 19.1202C272.47 22.5482 274.159 27.0047 274.121 31.614C274.084 36.2233 272.323 40.6519 269.184 44.0295C266.045 47.407 261.756 49.4891 257.159 49.8667C252.562 50.2442 247.989 48.8898 244.341 46.0697L236 48.0419Z" fill="#FFBE3D"/>
<path d="M265.529 10.8414L260.323 9.31815L254.741 31.641L258.242 32.6655L265.529 10.8414ZM253.386 42.5973C254.246 42.8489 255.048 42.7837 255.794 42.4016C256.548 41.9888 257.046 41.3678 257.289 40.5386C257.532 39.7093 257.442 38.9329 257.02 38.2094C256.607 37.4551 255.971 36.9521 255.111 36.7005C254.251 36.4489 253.459 36.534 252.736 36.9557C252.021 37.3468 251.543 37.9569 251.3 38.7862C251.057 39.6154 251.143 40.4072 251.555 41.1614C251.946 41.876 252.557 42.3546 253.386 42.5973Z" fill="#7480FF"/>
</svg>
