<svg width="701" height="422" viewBox="0 0 701 422" fill="none" xmlns="http://www.w3.org/2000/svg">
<path d="M142.909 411.245L57.6832 411.915L56.8383 304.332L142.064 303.663L142.909 411.245Z" fill="#FFBE3D"/>
<path d="M90.5355 306.57L91.9502 411.472L104.536 411.375L101.842 306.472L90.5355 306.57Z" fill="#FAFAFA"/>
<path d="M190.736 306.472L141.816 306.858L56.5355 307.52L141.901 318.682L142.627 410.472L191.536 410.099L190.736 306.472Z" fill="#F67F11"/>
<path d="M163.536 306.581L165.549 410.472L180.536 410.364L178.084 306.472L163.536 306.581Z" fill="#FAFAFA"/>
<path d="M126.536 275.269C126.536 275.481 127.92 275.739 130.444 275.986C134.012 276.338 137.595 276.499 141.18 276.469C146.593 276.492 151.985 275.776 157.208 274.339C158.02 274.075 158.8 273.72 159.535 273.281C160.398 272.779 161.132 272.078 161.675 271.234C162.236 270.327 162.534 269.28 162.536 268.21C162.533 267.274 162.416 266.341 162.187 265.434C161.454 262.036 160.439 258.706 159.151 255.481C158.44 253.797 157.551 252.196 156.499 250.705C155.451 249.173 154.129 247.853 152.602 246.811C151.783 246.253 150.868 245.854 149.904 245.635C148.923 245.418 147.907 245.418 146.926 245.635C145.254 246.119 143.709 246.97 142.401 248.129C138.168 251.595 134.563 255.778 131.747 260.493C129.852 263.635 128.4 267.028 127.431 270.575C126.791 273.092 126.722 274.528 126.896 274.575C127.408 274.728 128.559 269.069 133.549 261.634C136.479 257.345 140.054 253.546 144.146 250.376C145.166 249.511 146.355 248.874 147.635 248.505C148.228 248.387 148.838 248.393 149.428 248.522C150.018 248.652 150.576 248.902 151.067 249.258C152.262 250.115 153.294 251.183 154.114 252.411C155.03 253.731 155.81 255.142 156.441 256.623C157.649 259.68 158.625 262.826 159.36 266.034C159.787 267.176 159.758 268.442 159.279 269.563C158.539 270.536 157.506 271.238 156.336 271.563C155.011 271.998 153.664 272.36 152.3 272.645C150.962 272.951 149.636 273.187 148.345 273.387C145.774 273.798 143.355 274.034 141.122 274.187C136.667 274.492 132.98 274.551 130.502 274.681C128.024 274.81 126.547 275.057 126.536 275.269Z" fill="#F67F11"/>
<path d="M127.536 275.341C127.536 275.128 125.987 274.679 123.119 274.04C120.251 273.402 116.064 272.562 111.018 271.368C105.081 270.03 99.2626 268.234 93.6163 265.998C92.0672 265.426 90.5992 264.663 89.2477 263.728C88.6726 263.329 88.1936 262.812 87.844 262.214C87.5655 261.682 87.4801 261.073 87.602 260.487C87.7829 259.707 88.0634 258.952 88.437 258.24C88.8363 257.401 89.2478 256.549 89.6471 255.698C90.4597 254.005 91.3896 252.37 92.4303 250.801C93.4539 249.279 94.674 247.892 96.0606 246.674C97.3171 245.506 98.7866 244.58 100.393 243.942C101.826 243.393 103.406 243.326 104.882 243.753C106.375 244.267 107.746 245.072 108.912 246.118C113.454 250.005 117.381 254.529 120.565 259.541C122.712 262.937 124.45 266.564 125.745 270.351C126.652 273.059 127.015 274.608 127.257 274.573C127.499 274.537 127.487 272.929 126.93 270.055C126.058 265.989 124.565 262.074 122.502 258.441C119.437 253.036 115.493 248.155 110.824 243.989C109.39 242.634 107.678 241.59 105.802 240.926C103.695 240.272 101.424 240.326 99.3522 241.08C98.3387 241.436 97.3719 241.909 96.4721 242.487C95.5932 243.056 94.7562 243.685 93.9672 244.368C92.3917 245.76 91.0123 247.351 89.8649 249.098C88.7489 250.785 87.7504 252.543 86.876 254.361L85.6659 256.975C85.1785 257.933 84.8283 258.951 84.6251 260.002C84.3975 261.24 84.6066 262.515 85.2181 263.621C85.7832 264.591 86.5599 265.427 87.4931 266.069C89.0651 267.135 90.7739 267.994 92.5755 268.624C98.4205 270.796 104.461 272.428 110.618 273.496C115.834 274.443 120.081 274.927 123.01 275.223C125.938 275.519 127.499 275.542 127.536 275.341Z" fill="#FFBE3D"/>
<path d="M206.521 306.581L81.2423 307.565L80.9626 271.955L206.241 270.971L206.521 306.581Z" fill="#F67F11"/>
<path d="M160.435 306.932L47.2001 307.821L46.9204 272.21L160.156 271.321L160.435 306.932Z" fill="#FFBE3D"/>
<path d="M81.5355 271.582L82.3227 307.472L95.5355 307.193L94.6151 271.472L81.5355 271.582Z" fill="#FAFAFA"/>
<path d="M174.536 271.757L175.835 306.472L190.536 306.354L189.751 271.472L174.536 271.757Z" fill="#FAFAFA"/>
<path d="M77.8995 412.506L38.9723 412.812L38.5863 363.669L77.5135 363.363L77.8995 412.506Z" fill="#FFBE3D"/>
<path d="M54.5355 364.522L55.2405 413.472L61.5355 413.435L60.1874 364.472L54.5355 364.522Z" fill="#FAFAFA"/>
<path d="M99.1761 364.472L77.0694 364.646L38.5355 364.969L77.1053 370.223L77.4409 413.472L99.5355 413.298L99.1761 364.472Z" fill="#F67F11"/>
<path d="M87.5355 364.522L88.4759 413.472L95.5355 413.41L94.3761 364.472L87.5355 364.522Z" fill="#FAFAFA"/>
<path d="M69.5355 350.247C69.5355 350.645 72.1451 351.249 76.5389 351.454C79.1926 351.551 81.8465 351.263 84.4162 350.597C85.4544 350.326 86.3646 349.703 86.9893 348.835C87.3426 348.283 87.5319 347.643 87.5355 346.988C87.5353 346.481 87.4783 345.975 87.3656 345.48C87.015 343.831 86.5194 342.216 85.8848 340.653C85.5217 339.801 85.0659 338.992 84.5254 338.239C83.966 337.423 83.2529 336.722 82.4256 336.175C81.9387 335.857 81.3916 335.64 80.8178 335.539C80.244 335.437 79.6554 335.452 79.0878 335.584C78.1882 335.851 77.3592 336.313 76.6603 336.936C74.6022 338.621 72.8705 340.666 71.5503 342.97C69.3534 346.964 69.3777 349.849 69.754 349.897C70.1303 349.945 70.9677 347.483 73.3953 344.177C74.8154 342.283 76.5086 340.607 78.4202 339.205C78.8124 338.873 79.272 338.63 79.7675 338.492C79.9428 338.466 80.1217 338.476 80.293 338.522C80.4643 338.567 80.6242 338.648 80.7628 338.758C81.2377 339.108 81.6483 339.536 81.9765 340.025C82.3743 340.597 82.7119 341.207 82.9839 341.847C83.5459 343.231 84.0004 344.655 84.3433 346.108C84.5254 346.783 84.489 347.085 84.4283 347.157C84.1816 347.458 83.8461 347.673 83.4694 347.773C82.2798 348.164 81.0627 348.466 79.8281 348.678C78.6144 348.895 77.4978 349.04 76.4539 349.149C72.2543 349.583 69.5477 349.776 69.5355 350.247Z" fill="#F67F11"/>
<path d="M70.4092 351.225C70.4798 350.748 67.6438 349.968 63.1838 348.711C60.6057 347.979 58.0776 347.059 55.6173 345.957C54.9967 345.694 54.408 345.352 53.8639 344.939C53.7055 344.814 53.5733 344.656 53.4755 344.474C53.4755 344.373 53.4755 344.373 53.4755 344.184C53.7043 343.465 53.9877 342.767 54.3228 342.097C54.6724 341.314 55.0653 340.554 55.4996 339.822C55.9118 339.15 56.3977 338.534 56.947 337.986C57.4275 337.499 57.9854 337.107 58.5945 336.829C59.0638 336.617 59.5866 336.581 60.0772 336.729C60.6392 336.933 61.1559 337.258 61.5952 337.684C63.5814 339.494 65.3239 341.588 66.773 343.908C69.256 347.906 69.7738 350.974 70.3033 350.899C70.4916 350.899 70.621 350.056 70.468 348.61C70.1953 346.563 69.5942 344.581 68.6911 342.751C67.37 340.006 65.6142 337.526 63.5016 335.421C62.7929 334.677 61.9418 334.107 61.0068 333.749C59.907 333.36 58.7161 333.382 57.6295 333.812C57.1139 333.998 56.6233 334.256 56.1704 334.578C55.7563 334.874 55.363 335.202 54.9936 335.559C54.2387 336.302 53.578 337.148 53.0284 338.074C52.514 338.924 52.0539 339.81 51.6516 340.727C51.4633 341.167 51.2868 341.594 51.0985 341.984C50.856 342.523 50.6818 343.094 50.5807 343.682C50.4595 344.469 50.5836 345.277 50.9338 345.982C51.2458 346.559 51.6714 347.057 52.1811 347.441C52.9382 347.98 53.762 348.403 54.6288 348.698C57.2767 349.736 60.0172 350.482 62.8073 350.924C67.4085 351.615 70.3386 351.577 70.4092 351.225Z" fill="#FFBE3D"/>
<path d="M106.947 364.693L49.7299 365.143L49.6021 348.875L106.819 348.425L106.947 364.693Z" fill="#F67F11"/>
<path d="M85.9071 364.862L34.1857 365.268L34.0579 349L85.7794 348.594L85.9071 364.862Z" fill="#FFBE3D"/>
<path d="M92.5355 349.595L93.0993 364.472L99.5355 364.428L99.1831 349.472L92.5355 349.595Z" fill="#FAFAFA"/>
<path d="M572.407 412.204L502.59 412.752L501.898 324.621L571.715 324.073L572.407 412.204Z" fill="#EBEBEB"/>
<path d="M528.536 327.545L529.843 413.472L541.536 413.387L539.023 327.472L528.536 327.545Z" fill="#FAFAFA"/>
<path d="M611.873 327.472L571.285 327.781L500.536 328.315L571.359 337.337L571.96 411.472L612.536 411.164L611.873 327.472Z" fill="#E0E0E0"/>
<path d="M590.536 327.556L592.066 411.472L603.536 411.389L601.667 327.472L590.536 327.556Z" fill="#FAFAFA"/>
<path d="M557.639 301.14C557.639 301.572 558.865 302.017 560.986 302.449C566.238 303.418 571.598 303.701 576.926 303.289C578.152 303.181 579.378 303.049 580.604 302.833C581.97 302.632 583.322 302.343 584.65 301.969C585.484 301.718 586.286 301.376 587.041 300.948C588.026 300.398 588.866 299.629 589.493 298.703C590.157 297.67 590.518 296.478 590.535 295.257C590.542 294.327 590.431 293.399 590.204 292.496C589.571 289.542 588.673 286.65 587.519 283.851C586.86 282.33 586.038 280.881 585.067 279.529C584.548 278.848 583.987 278.198 583.387 277.584C582.727 276.906 581.981 276.313 581.168 275.819C580.266 275.246 579.264 274.84 578.213 274.619C577.105 274.402 575.962 274.426 574.866 274.691C573.17 275.167 571.607 276.013 570.292 277.164C566.543 280.213 563.401 283.912 561.023 288.077C559.426 290.847 558.311 293.858 557.725 296.986C557.369 299.195 557.553 300.468 557.958 300.588C558.902 300.816 560.41 296.278 564.824 290.503C567.414 287.171 570.477 284.219 573.922 281.738C574.598 281.181 575.388 280.771 576.239 280.538C576.517 280.5 576.8 280.519 577.07 280.593C577.34 280.668 577.591 280.796 577.808 280.97C578.186 281.23 578.535 281.528 578.85 281.858C579.194 282.231 579.574 282.699 579.917 283.155C580.62 284.155 581.22 285.22 581.707 286.337C582.708 288.793 583.527 291.317 584.16 293.888C584.289 294.302 584.367 294.729 584.392 295.161C584.392 295.437 584.392 295.461 584.392 295.521C583.982 296.002 583.429 296.346 582.811 296.506C581.745 296.874 580.661 297.186 579.562 297.442C578.446 297.718 577.342 297.934 576.276 298.139C574.13 298.523 572.082 298.799 570.145 299.015C566.369 299.435 563.23 299.687 561.06 300.012C558.89 300.336 557.651 300.708 557.639 301.14Z" fill="#E0E0E0"/>
<path d="M560.32 300.901C560.48 300.024 555.157 298.601 546.766 296.383C541.947 295.118 537.224 293.534 532.632 291.641C531.493 291.211 530.416 290.641 529.429 289.945C529.158 289.768 528.935 289.532 528.775 289.257C528.775 289.151 528.775 289.257 528.775 288.961C528.914 288.485 529.104 288.024 529.342 287.586L530.365 285.534C531.018 284.223 531.755 282.952 532.571 281.728C533.322 280.61 534.217 279.586 535.232 278.681C535.709 278.248 536.22 277.852 536.76 277.495C537.211 277.19 537.7 276.939 538.214 276.748C539.027 276.412 539.935 276.349 540.79 276.57C541.807 276.905 542.743 277.438 543.537 278.136C547.254 281.161 550.524 284.66 553.26 288.534C557.954 295.222 559.014 300.391 559.988 300.249C560.407 300.249 560.702 298.814 560.431 296.348C559.96 292.859 558.859 289.477 557.178 286.352C554.714 281.673 551.42 277.444 547.444 273.855C546.078 272.571 544.444 271.58 542.65 270.95C540.51 270.278 538.198 270.316 536.083 271.057C535.098 271.389 534.158 271.835 533.285 272.385C532.469 272.892 531.694 273.459 530.969 274.081C529.549 275.321 528.306 276.736 527.272 278.29C526.297 279.746 525.424 281.263 524.66 282.831L523.625 285.013C523.155 285.949 522.819 286.942 522.627 287.965C522.382 289.367 522.634 290.808 523.341 292.056C523.953 293.08 524.795 293.959 525.806 294.629C527.253 295.584 528.828 296.346 530.488 296.893C535.477 298.644 540.644 299.884 545.903 300.593C549.383 301.106 552.894 301.395 556.414 301.458C558.842 301.529 560.259 301.328 560.32 300.901Z" fill="#FAFAFA"/>
<path d="M624.51 326.462L521.89 327.268L521.661 298.097L624.28 297.291L624.51 326.462Z" fill="#E0E0E0"/>
<path d="M586.789 326.751L494.022 327.48L493.793 298.309L586.56 297.58L586.789 326.751Z" fill="#EBEBEB"/>
<path d="M522.536 298.556L523.151 327.472L533.536 327.245L532.815 298.472L522.536 298.556Z" fill="#FAFAFA"/>
<path d="M599.536 297.708L600.581 327.472L612.536 327.373L611.891 297.472L599.536 297.708Z" fill="#FAFAFA"/>
<path d="M491.09 246.427C512.164 224.869 545.173 215.802 574.297 223.598C549.461 240.515 520.158 249.67 490.109 249.901" fill="#49C0B8"/>
<path d="M519.317 146.491C515.843 121.968 525.37 94.4416 543.732 76.5631C544.338 100.869 534.049 128.213 519.317 146.491Z" fill="#49C0B8"/>
<path d="M504.635 192.804C517.911 167.617 539.035 147.444 564.807 135.343C557.144 163.571 532.996 186.667 504.453 193.07" fill="#49C0B8"/>
<path d="M501.596 201.797C516.4 202.209 531.398 201.688 545.718 197.9C560.037 194.111 573.752 186.824 583.242 175.482C554.266 175.583 525.961 184.218 501.863 200.309" fill="#49C0B8"/>
<path d="M509.125 172.311C501.608 144.131 489.201 124.643 467.062 108.858C465.366 122.711 468.671 136.715 476.383 148.348C484.094 159.98 495.705 168.478 509.125 172.311Z" fill="#49C0B8"/>
<path d="M453.214 220.899C453.159 212.68 455.535 204.628 460.043 197.756C464.55 190.883 470.989 185.497 478.549 182.273C477.339 196.798 465.888 213.648 453.214 220.899Z" fill="#49C0B8"/>
<path d="M446.181 197.137C444.499 173.606 427.782 151.83 405.474 144.131C410.545 167.675 424.151 187.272 446.181 197.137Z" fill="#49C0B8"/>
<path d="M456.797 239.322C451.58 231.853 443.058 227.217 434.234 224.893C425.41 222.569 416.198 222.387 407.083 222.194C413.295 228.936 420.894 234.253 429.357 237.778C437.82 241.303 446.946 242.953 456.107 242.614" fill="#49C0B8"/>
<path d="M467.389 299.348C450.769 294.222 432.831 295.509 417.113 302.954C401.395 310.4 389.036 323.465 382.475 339.572C413.317 333.738 443.76 320.023 467.389 299.348Z" fill="#49C0B8"/>
<path d="M501.233 278.48C496.113 293.623 497.093 311.937 508.496 324.986C510.765 317.175 511.29 308.962 510.035 300.926C508.78 292.89 505.775 285.227 501.233 278.48Z" fill="#49C0B8"/>
<path d="M521.23 270.067C522.061 279.829 525.393 289.213 530.906 297.312C536.418 305.411 543.925 311.953 552.702 316.307C553.11 316.569 553.568 316.744 554.047 316.821C554.526 316.898 555.016 316.875 555.486 316.755C556.878 316.198 556.999 314.334 556.83 312.809C554.602 293.441 540.222 274.643 521.23 270.067Z" fill="#49C0B8"/>
<path d="M534.315 268.094C538.663 272.79 543.929 276.543 549.786 279.12C555.644 281.697 561.968 283.044 568.368 283.077C574.767 283.11 581.105 281.828 586.989 279.311C592.873 276.795 598.177 273.096 602.573 268.445C580.882 266.025 555.837 264.487 534.315 268.094Z" fill="#49C0B8"/>
<path d="M537.559 94.6353C537.513 94.8543 537.448 95.0689 537.365 95.2769C537.196 95.7247 536.978 96.33 536.7 97.1046C536.082 98.7509 535.211 101.111 534.085 104.137C532.959 107.164 531.567 110.916 530.006 115.274L527.5 122.234C526.641 124.655 525.733 127.342 524.789 130.09C520.939 141.081 516.679 154.299 512.067 168.946C507.455 183.592 502.783 199.897 498.11 217.025C493.438 234.153 489.407 250.603 485.933 265.601C482.459 280.598 479.639 294.168 477.544 305.619C477.004 308.475 476.491 311.195 476.007 313.777C475.559 316.355 475.148 318.801 474.797 321.04C474.01 325.591 473.344 329.513 472.884 332.745C472.424 335.977 472.013 338.422 471.746 340.153C471.613 340.964 471.504 341.606 471.432 342.078C471.405 342.299 471.361 342.518 471.298 342.731C471.28 342.51 471.28 342.287 471.298 342.066C471.359 341.594 471.432 340.952 471.541 340.129C471.771 338.386 472.097 335.892 472.521 332.697C472.945 329.501 473.55 325.531 474.288 320.967C474.664 318.68 475.051 316.234 475.499 313.644C475.947 311.054 476.455 308.342 476.975 305.473C479.009 293.998 481.817 280.429 485.195 265.395C488.572 250.361 492.711 233.923 497.299 216.771C501.887 199.619 506.753 183.386 511.328 168.679C515.904 153.972 520.298 140.839 524.22 129.86C525.188 127.116 526.112 124.505 526.992 122.028L529.558 115.08C531.168 110.734 532.56 107.006 533.77 103.98C534.981 100.954 535.889 98.6419 536.53 97.0078L537.269 95.2042C537.353 95.0083 537.45 94.8182 537.559 94.6353Z" fill="#263238"/>
<path d="M418.341 156.708C418.478 156.811 418.604 156.928 418.716 157.059L419.757 158.148C420.665 159.117 421.972 160.569 423.606 162.457C428.262 167.832 432.533 173.527 436.389 179.501C442.13 188.364 446.612 197.982 449.704 208.08C453.335 219.446 455.514 232.386 457.717 245.895C462.135 272.948 467.546 297.182 471.468 314.709C473.441 323.437 475.099 330.506 476.165 335.469C476.697 337.89 477.121 339.766 477.375 341.109C477.508 341.727 477.605 342.211 477.69 342.586C477.731 342.753 477.755 342.923 477.762 343.095C477.692 342.935 477.639 342.769 477.605 342.598C477.508 342.235 477.375 341.751 477.218 341.146C476.879 339.814 476.419 337.938 475.813 335.541C474.603 330.603 472.945 323.546 470.863 314.842C466.796 297.351 461.288 273.118 456.87 246.028C454.655 232.519 452.464 219.628 448.941 208.298C445.88 198.252 441.466 188.67 435.82 179.815C432.023 173.834 427.838 168.109 423.292 162.675C421.694 160.739 420.423 159.262 419.551 158.257C419.152 157.785 418.825 157.41 418.583 157.107C418.491 156.981 418.41 156.848 418.341 156.708Z" fill="#263238"/>
<path d="M540.791 267.162C540.542 267.25 540.28 267.299 540.016 267.308L537.765 267.55L536.143 267.719L534.23 267.998C532.85 268.203 531.277 268.409 529.57 268.784L526.871 269.329L523.99 270.055C521.981 270.503 519.911 271.266 517.695 271.907C512.959 273.549 508.365 275.573 503.957 277.96C499.58 280.409 495.453 283.279 491.634 286.53C489.98 287.957 488.405 289.472 486.913 291.069C485.581 292.433 484.332 293.876 483.173 295.39C482.181 296.61 481.255 297.883 480.401 299.203C479.708 300.186 479.073 301.208 478.501 302.266L477.351 304.215C477.231 304.451 477.08 304.671 476.903 304.868C476.966 304.608 477.068 304.359 477.206 304.13L478.222 302.108C478.742 301.029 479.341 299.989 480.014 298.997C480.834 297.64 481.732 296.331 482.701 295.076C483.848 293.528 485.085 292.048 486.405 290.645C487.896 289.013 489.476 287.466 491.138 286.009C494.969 282.69 499.13 279.774 503.557 277.306C508.008 274.895 512.657 272.87 517.453 271.254C519.693 270.6 521.787 269.886 523.82 269.462L526.738 268.772L529.461 268.288C531.192 267.937 532.778 267.78 534.17 267.61L536.107 267.392L537.741 267.308L540.004 267.162C540.265 267.128 540.53 267.128 540.791 267.162Z" fill="#263238"/>
<path d="M546.977 157.216C546.517 157.772 546.002 158.279 545.439 158.729L540.973 162.603C537.172 165.847 531.894 170.277 526.036 175.143C520.177 180.009 514.827 184.379 510.941 187.502L506.305 191.133C505.761 191.599 505.169 192.005 504.538 192.344C505.005 191.787 505.528 191.28 506.099 190.831L510.566 186.957C514.367 183.713 519.644 179.283 525.503 174.417C531.362 169.551 536.7 165.193 540.585 162.07L545.221 158.439C545.769 157.98 546.356 157.571 546.977 157.216Z" fill="#263238"/>
<path d="M552.315 185.928C552.315 186.146 540.985 189.705 526.895 193.881C512.805 198.057 501.269 201.253 501.209 201.035C501.148 200.817 512.539 197.246 526.629 193.082C540.718 188.918 552.242 185.71 552.315 185.928Z" fill="#263238"/>
<path d="M510.239 174.502C509.782 173.998 509.377 173.451 509.029 172.867L506.027 168.292C503.485 164.431 499.865 159.177 495.58 153.573C491.295 147.968 487.18 143.102 484.141 139.628C482.713 137.982 481.503 136.602 480.51 135.513C480.058 135.028 479.652 134.501 479.3 133.939C479.855 134.322 480.359 134.773 480.801 135.283C481.721 136.19 483.028 137.534 484.614 139.229C487.761 142.618 491.973 147.46 496.27 153.076C500.567 158.693 504.114 164.031 506.547 167.965C507.758 169.938 508.714 171.596 509.331 172.698C509.704 173.261 510.009 173.867 510.239 174.502Z" fill="#263238"/>
<path d="M470.681 190.431C469.886 191.953 468.993 193.42 468.006 194.825C466.299 197.5 463.987 201.216 461.603 205.417C459.218 209.617 457.197 213.515 455.756 216.311C455.051 217.876 454.242 219.392 453.335 220.85C453.807 219.179 454.439 217.558 455.224 216.008C456.519 213.103 458.468 209.157 460.864 204.92C463.261 200.684 465.706 197.016 467.498 194.414C468.429 192.987 469.495 191.654 470.681 190.431Z" fill="#263238"/>
<path d="M457.076 240.084C457.015 240.193 454.848 239.128 451.29 237.53C447.731 235.932 442.816 233.899 437.151 231.865C431.486 229.832 426.342 228.44 422.565 227.483C418.789 226.527 416.428 225.982 416.513 225.861C417.083 225.848 417.653 225.909 418.208 226.043C419.297 226.2 420.846 226.491 422.759 226.902C427.751 227.995 432.67 229.394 437.49 231.091C442.31 232.773 447.023 234.746 451.604 236.998C453.359 237.869 454.751 238.608 455.708 239.164C456.199 239.416 456.658 239.725 457.076 240.084Z" fill="#263238"/>
<path d="M467.8 299.445C467.578 299.553 467.341 299.63 467.098 299.675L465.04 300.196L457.463 301.951C449.109 303.705 440.851 305.886 432.721 308.488C424.624 311.206 416.873 314.862 409.625 319.382C406.866 321.137 404.711 322.686 403.258 323.812C402.531 324.422 401.767 324.988 400.971 325.507C400.971 325.507 401.128 325.301 401.479 324.962C401.83 324.623 402.351 324.139 403.065 323.558C405.054 321.88 407.139 320.32 409.311 318.885C416.517 314.207 424.291 310.464 432.443 307.749C440.602 305.123 448.918 303.013 457.342 301.431L464.98 299.845C465.909 299.642 466.851 299.508 467.8 299.445Z" fill="#263238"/>
<path d="M506.329 314.068C506.111 314.068 504.756 306.115 503.303 296.226C501.851 286.336 500.882 278.287 501.1 278.25C501.318 278.214 502.674 286.215 504.126 296.105C505.579 305.994 506.559 314.044 506.329 314.068Z" fill="#263238"/>
<path d="M546.456 299.506C545.153 298.155 543.94 296.719 542.825 295.209C540.658 292.509 537.656 288.793 534.255 284.75C530.853 280.707 527.718 277.1 525.43 274.498C524.121 273.152 522.907 271.716 521.799 270.201C522.245 270.471 522.652 270.801 523.009 271.181C523.711 271.859 524.692 272.852 525.902 274.11C528.323 276.616 531.519 280.163 534.932 284.218C538.346 288.273 541.275 292.049 543.333 294.846C544.362 296.25 545.173 297.4 545.754 298.199C546.049 298.598 546.286 299.039 546.456 299.506Z" fill="#263238"/>
<path d="M440.274 336.715V356.543H445.237L462.849 412.163H501.935L519.003 357.088L525.612 356.543V336.715H440.274Z" fill="#455A64"/>
<path d="M522.307 357.088C522.307 357.318 505.058 357.511 483.778 357.511C462.498 357.511 445.237 357.318 445.237 357.088C445.237 356.858 462.486 356.676 483.778 356.676C505.07 356.676 522.307 356.858 522.307 357.088Z" fill="#263238"/>
<path d="M550.414 229.565C549.599 229.861 548.761 230.087 547.909 230.243L541.057 231.902C535.271 233.33 527.331 235.533 518.724 238.39C510.118 241.246 502.468 244.357 496.936 246.718L490.472 249.538C489.692 249.928 488.883 250.256 488.051 250.519C488.767 250.029 489.524 249.603 490.315 249.248C491.792 248.473 493.946 247.42 496.682 246.173C510.848 239.709 525.646 234.732 540.839 231.321C543.745 230.679 546.117 230.207 547.763 229.929C548.635 229.734 549.522 229.613 550.414 229.565Z" fill="#263238"/>
<path d="M509.331 387.978C509.331 388.208 497.227 388.39 482.302 388.39C467.377 388.39 455.26 388.208 455.26 387.978C455.26 387.748 467.364 387.567 482.302 387.567C497.239 387.567 509.331 387.748 509.331 387.978Z" fill="#FAFAFA"/>
<path d="M510.856 383.367C510.856 383.597 498.025 383.778 482.205 383.778C466.384 383.778 453.541 383.597 453.541 383.367C453.541 383.137 466.372 382.955 482.205 382.955C498.038 382.955 510.856 383.149 510.856 383.367Z" fill="#FAFAFA"/>
<path d="M-3.56628e-05 412.163C-3.56628e-05 412.333 156.941 412.478 350.49 412.478C544.039 412.478 701 412.333 701 412.163C701 411.994 544.1 411.849 350.49 411.849C156.88 411.849 -3.56628e-05 411.982 -3.56628e-05 412.163Z" fill="#263238"/>
<path d="M382.378 390.702C382.378 390.702 432.866 404.695 434.96 405.409C437.999 406.474 437.49 417.635 432.745 417.514C430.506 417.429 393.926 418.869 389.302 418.579C384.678 418.288 372.234 413.386 372.234 413.386L382.378 390.702Z" fill="#7480FF"/>
<path d="M403.44 409.997C403.694 409.997 404.033 407.358 405.667 404.574C407.301 401.79 409.396 400.119 409.238 399.926C409.081 399.732 406.636 401.136 404.929 404.15C403.222 407.164 403.222 409.997 403.44 409.997Z" fill="#263238"/>
<path d="M398.162 407.576C398.417 407.576 398.925 405.228 400.269 402.589C401.612 399.95 403.21 398.098 403.029 397.928C402.847 397.759 400.91 399.417 399.518 402.213C398.126 405.01 397.945 407.576 398.162 407.576Z" fill="#263238"/>
<path d="M393.224 406.281C393.478 406.281 393.284 403.739 394.434 400.93C395.584 398.122 397.376 396.391 397.194 396.21C397.013 396.028 394.773 397.577 393.647 400.628C392.522 403.678 393.018 406.365 393.224 406.281Z" fill="#263238"/>
<path d="M394.132 399.744C394.574 398.545 394.759 397.267 394.676 395.992C394.656 394.591 394.473 393.198 394.132 391.84C393.943 391.039 393.692 390.254 393.381 389.492C393.224 389.023 392.944 388.605 392.57 388.281C392.318 388.089 392.006 387.992 391.689 388.007C391.372 388.023 391.071 388.15 390.839 388.366C390.45 388.746 390.209 389.252 390.161 389.794C390.132 390.237 390.132 390.682 390.161 391.126C390.175 391.942 390.281 392.754 390.476 393.547C390.813 394.899 391.334 396.198 392.025 397.408C392.588 398.554 393.36 399.584 394.301 400.446C394.41 400.374 393.563 399.236 392.558 397.13C391.967 395.937 391.524 394.677 391.239 393.377C391.073 392.617 390.988 391.843 390.984 391.065C390.984 390.29 390.984 389.322 391.457 388.947C391.538 388.853 391.653 388.794 391.777 388.783C391.901 388.772 392.025 388.809 392.122 388.886C392.38 389.129 392.571 389.433 392.679 389.77C392.983 390.494 393.238 391.238 393.442 391.997C393.797 393.287 394.02 394.609 394.107 395.943C394.216 398.292 393.986 399.732 394.132 399.744Z" fill="#263238"/>
<path d="M394.059 399.236C393.027 398.804 391.907 398.622 390.791 398.703C389.566 398.7 388.346 398.85 387.159 399.151C386.436 399.301 385.738 399.558 385.089 399.914C384.674 400.12 384.338 400.456 384.133 400.872C383.927 401.287 383.864 401.758 383.952 402.213C384.068 402.65 384.298 403.047 384.62 403.364C384.941 403.681 385.342 403.907 385.779 404.017C386.522 404.205 387.3 404.205 388.043 404.017C390.298 403.354 392.274 401.973 393.672 400.083C392.734 400.628 391.836 401.238 390.984 401.911C390.046 402.55 388.994 403.006 387.886 403.254C387.269 403.406 386.626 403.406 386.009 403.254C385.72 403.175 385.456 403.022 385.244 402.809C385.032 402.597 384.878 402.333 384.799 402.044C384.75 401.76 384.797 401.467 384.933 401.213C385.069 400.959 385.286 400.757 385.549 400.64C386.128 400.32 386.747 400.08 387.389 399.926C388.499 399.61 389.639 399.411 390.791 399.333C392.8 399.163 394.035 399.369 394.059 399.236Z" fill="#263238"/>
<path d="M411.199 410.529C411.453 410.529 411.199 408.338 412.204 405.978C413.209 403.618 414.831 402.214 414.625 402.02C414.419 401.826 412.434 403.012 411.369 405.651C410.303 408.29 410.993 410.626 411.199 410.529Z" fill="#263238"/>
<path d="M375.975 412.865C376.599 413.231 377.256 413.539 377.936 413.785C379.771 414.49 381.652 415.073 383.564 415.529C389.898 416.92 396.377 417.534 402.859 417.356C410.437 417.272 417.264 416.933 422.226 416.727L428.085 416.424C428.805 416.419 429.523 416.342 430.228 416.194C429.501 416.063 428.762 416.014 428.025 416.049H422.154L402.786 416.424C396.362 416.588 389.938 416.065 383.625 414.863C378.807 413.955 375.975 412.708 375.975 412.865Z" fill="#263238"/>
<path d="M374.437 414.015C375.729 413.507 376.993 412.934 378.226 412.297C381.204 410.89 384.516 410.34 387.789 410.711C391.602 411.292 394.301 413.858 396.056 415.625C396.954 416.688 397.929 417.684 398.973 418.603C398.299 417.372 397.465 416.237 396.492 415.226C395.499 414.055 394.374 413.003 393.139 412.091C391.602 410.947 389.813 410.187 387.922 409.876C384.49 409.462 381.014 410.122 377.972 411.764C376.683 412.324 375.49 413.084 374.437 414.015Z" fill="#263238"/>
<path d="M425.144 416.206C424.934 415.556 424.687 414.917 424.405 414.294C423.875 412.769 423.75 411.133 424.043 409.546C424.336 407.958 425.036 406.475 426.076 405.24C426.875 404.271 427.516 403.811 427.456 403.714C427.395 403.618 426.657 403.981 425.725 404.925C424.502 406.156 423.679 407.727 423.363 409.433C423.048 411.139 423.255 412.901 423.957 414.488C424.502 415.674 425.083 416.255 425.144 416.206Z" fill="#263238"/>
<path d="M329.638 392.203C329.638 392.203 277.782 400.083 275.688 400.555C272.529 401.257 271.718 412.393 276.438 412.781C278.678 412.962 314.834 418.748 319.458 419.015C324.082 419.281 338.584 415.48 338.584 415.48L329.638 392.203Z" fill="#7480FF"/>
<path d="M306.434 408.847C306.18 408.847 306.155 406.16 304.872 403.194C303.589 400.228 301.689 398.352 301.87 398.146C302.052 397.941 304.291 399.684 305.647 402.867C307.003 406.051 306.639 408.895 306.434 408.847Z" fill="#263238"/>
<path d="M311.953 407.104C311.699 407.104 311.481 404.683 310.452 401.899C309.424 399.115 308.032 397.057 308.274 396.948C308.516 396.839 310.198 398.667 311.251 401.608C312.304 404.55 312.171 407.116 311.953 407.104Z" fill="#263238"/>
<path d="M317.013 406.365C316.771 406.365 317.255 403.835 316.481 400.918C315.706 398.001 314.06 396.076 314.302 395.895C314.544 395.713 316.493 397.541 317.292 400.737C318.09 403.932 317.207 406.474 317.013 406.365Z" fill="#263238"/>
<path d="M316.904 399.78C316.595 398.54 316.562 397.247 316.807 395.992C316.981 394.613 317.318 393.26 317.812 391.961C318.099 391.186 318.443 390.433 318.841 389.709C319.049 389.256 319.375 388.868 319.785 388.584C320.06 388.422 320.383 388.363 320.697 388.416C321.012 388.469 321.297 388.631 321.504 388.874C321.844 389.299 322.021 389.831 322 390.375C321.999 390.821 321.967 391.266 321.903 391.707C321.795 392.534 321.592 393.346 321.298 394.128C320.801 395.424 320.129 396.645 319.301 397.759C318.605 398.831 317.719 399.766 316.686 400.519C316.577 400.422 317.558 399.308 318.805 397.432C319.538 396.297 320.132 395.078 320.572 393.801C320.82 393.066 320.991 392.308 321.08 391.537C321.153 390.763 321.274 389.806 320.875 389.383C320.803 389.281 320.696 389.21 320.574 389.185C320.453 389.161 320.326 389.184 320.221 389.249C319.934 389.459 319.705 389.738 319.555 390.06C319.168 390.742 318.828 391.45 318.538 392.179C318.034 393.417 317.653 394.703 317.4 396.016C316.989 398.34 317.037 399.78 316.904 399.78Z" fill="#263238"/>
<path d="M317.025 399.284C318.086 398.969 319.205 398.907 320.294 399.103C321.494 399.247 322.673 399.535 323.804 399.962C324.501 400.204 325.161 400.542 325.765 400.967C326.152 401.222 326.445 401.596 326.6 402.033C326.756 402.47 326.764 402.946 326.624 403.388C326.455 403.808 326.178 404.176 325.821 404.454C325.464 404.733 325.039 404.912 324.591 404.973C323.829 405.064 323.056 404.969 322.339 404.695C320.184 403.762 318.388 402.157 317.219 400.119C318.075 400.772 318.884 401.484 319.64 402.25C320.495 402.999 321.485 403.578 322.557 403.957C323.155 404.165 323.793 404.232 324.421 404.15C324.719 404.109 325.002 403.991 325.241 403.809C325.481 403.626 325.669 403.385 325.789 403.109C325.869 402.83 325.856 402.532 325.751 402.261C325.646 401.99 325.455 401.761 325.208 401.608C324.671 401.231 324.09 400.922 323.477 400.688C322.41 400.239 321.298 399.907 320.16 399.696C318.284 399.369 317.025 399.417 317.025 399.284Z" fill="#263238"/>
<path d="M298.663 408.46C298.408 408.399 298.917 406.293 298.215 403.811C297.513 401.33 296.036 399.768 296.217 399.599C296.399 399.429 298.287 400.809 299.026 403.593C299.764 406.378 298.844 408.581 298.663 408.46Z" fill="#263238"/>
<path d="M333.403 414.972C332.742 415.267 332.052 415.495 331.345 415.65C329.443 416.136 327.51 416.492 325.559 416.715C319.108 417.344 312.604 417.186 306.192 416.243C298.675 415.25 291.944 414.1 287.054 413.313L281.268 412.309C280.555 412.223 279.853 412.061 279.174 411.825C279.892 411.801 280.61 411.854 281.317 411.982L287.139 412.72L306.301 415.395C312.66 416.321 319.1 416.564 325.511 416.122C330.413 415.71 333.366 414.839 333.403 414.972Z" fill="#263238"/>
<path d="M334.746 416.291C334.662 416.4 333.391 415.432 331.188 414.137C328.401 412.375 325.175 411.436 321.879 411.425C318.03 411.546 315.052 413.773 313.091 415.323C312.069 416.265 310.985 417.139 309.847 417.937C310.654 416.79 311.615 415.759 312.704 414.875C313.829 413.827 315.072 412.913 316.408 412.151C318.073 411.203 319.94 410.664 321.855 410.578C325.321 410.568 328.704 411.633 331.539 413.628C332.74 414.343 333.823 415.241 334.746 416.291Z" fill="#263238"/>
<path d="M168.368 179.15C168.688 178.495 169.222 177.969 169.882 177.661L168.671 175.24C168.754 174.372 168.996 173.527 169.385 172.746C169.991 171.705 172.109 171.79 172.109 171.79L171.782 171.1C171.561 170.612 171.469 170.074 171.516 169.54C171.562 169.006 171.746 168.493 172.048 168.05C172.145 167.917 172.242 167.784 172.363 167.638C173.097 166.926 174.03 166.453 175.038 166.283C175.038 166.283 173.828 163.958 174.372 162.978C174.939 162.172 175.729 161.549 176.646 161.188C177.562 160.826 178.565 160.742 179.529 160.944C182.758 162.213 185.893 163.71 188.91 165.423C189.192 165.576 189.503 165.666 189.823 165.687C190.143 165.708 190.464 165.659 190.763 165.544C191.062 165.429 191.333 165.251 191.556 165.021C191.78 164.791 191.951 164.515 192.057 164.213C193.134 161.121 194.682 158.214 196.645 155.594C198.921 152.859 201.051 153.076 202.298 153.561C202.437 153.615 202.563 153.699 202.667 153.807C202.771 153.916 202.85 154.045 202.898 154.187C202.946 154.329 202.963 154.479 202.947 154.628C202.932 154.777 202.883 154.921 202.806 155.049C201.584 156.996 200.484 159.018 199.514 161.102C198.921 162.687 198.303 174.623 198.303 174.623L201.571 180.844L234.532 232.906C234.532 232.906 284.343 199.34 284.161 198.505L286.51 236.998L248.985 261.933C245.771 264.068 242.128 265.473 238.313 266.049C234.498 266.626 230.602 266.361 226.901 265.272C223.199 264.183 219.78 262.297 216.885 259.746C213.99 257.195 211.688 254.041 210.142 250.506L184.879 195.673L181.817 191.194L169.918 183.568C169.918 183.568 167.945 180.154 168.368 179.15Z" fill="#FFBE9D"/>
<path d="M173.828 166.295C173.828 166.295 173.9 166.379 174.058 166.513L174.772 167.094C175.438 167.602 176.345 168.304 177.435 169.163L181.417 172.19C182.168 172.746 182.918 173.4 183.838 173.933C184.294 174.248 184.818 174.452 185.367 174.525C185.916 174.599 186.475 174.541 186.998 174.356C187.535 174.114 187.965 173.683 188.208 173.146C188.424 172.646 188.519 172.103 188.486 171.56C188.396 170.547 187.97 169.593 187.276 168.849C186.663 168.192 186 167.585 185.291 167.033L183.499 165.544L180.885 163.402L180.17 162.833C180.001 162.712 179.916 162.639 179.904 162.651L180.134 162.881L180.812 163.498L183.354 165.702L185.121 167.215C185.814 167.768 186.461 168.375 187.058 169.03C187.739 169.715 188.166 170.612 188.268 171.572C188.331 172.069 188.244 172.573 188.017 173.02C187.791 173.467 187.436 173.835 186.998 174.078C186.526 174.271 186.008 174.321 185.509 174.223C185.012 174.127 184.536 173.942 184.104 173.678C183.257 173.158 182.482 172.468 181.684 171.972L177.677 168.982L174.953 166.997L174.203 166.464L173.828 166.295Z" fill="#EB996E"/>
<path d="M171.189 171.899C171.356 172.073 171.543 172.227 171.746 172.359C172.109 172.637 172.654 173.037 173.331 173.509C174.675 174.441 176.575 175.7 178.742 176.971C179.287 177.286 179.807 177.612 180.364 177.867C180.904 178.121 181.5 178.233 182.095 178.193C182.6 178.133 183.078 177.932 183.474 177.613C183.87 177.294 184.168 176.87 184.335 176.39C184.538 175.742 184.486 175.04 184.189 174.429C184.105 174.269 184.003 174.119 183.887 173.981C183.802 173.884 183.754 173.848 183.741 173.848C183.729 173.848 183.899 174.066 184.08 174.477C184.3 175.071 184.3 175.724 184.08 176.317C183.925 176.752 183.649 177.133 183.285 177.417C182.92 177.7 182.482 177.873 182.023 177.915C181.475 177.94 180.93 177.828 180.437 177.588C179.894 177.325 179.364 177.034 178.851 176.717C176.684 175.446 174.772 174.223 173.392 173.327L171.77 172.262C171.586 172.126 171.392 172.004 171.189 171.899Z" fill="#EB996E"/>
<path d="M169.652 177.37C169.829 177.499 170.02 177.609 170.22 177.697L171.83 178.508C173.198 179.186 175.099 180.094 177.193 181.086C177.704 181.343 178.229 181.569 178.766 181.764C179.289 181.958 179.854 182.004 180.4 181.897C180.654 181.85 180.894 181.747 181.103 181.597C181.312 181.446 181.486 181.251 181.611 181.026C181.813 180.631 181.881 180.18 181.805 179.743C181.672 179.129 181.335 178.579 180.848 178.181C180.521 177.903 180.304 177.794 180.291 177.818C180.279 177.842 180.473 177.976 180.776 178.266C181.196 178.674 181.479 179.203 181.587 179.779C181.647 180.165 181.579 180.561 181.393 180.905C181.28 181.094 181.127 181.257 180.946 181.383C180.764 181.508 180.557 181.593 180.34 181.631C179.844 181.72 179.333 181.669 178.863 181.486C178.338 181.291 177.824 181.065 177.326 180.808C175.22 179.828 173.319 178.944 171.927 178.315L170.269 177.6C170.076 177.493 169.868 177.416 169.652 177.37Z" fill="#EB996E"/>
<path d="M168.792 182.43C169.408 182.644 170.039 182.81 170.68 182.926C171.891 183.193 173.489 183.544 175.292 183.907L176.612 184.173C177.027 184.275 177.455 184.324 177.883 184.318C178.293 184.318 178.69 184.177 179.008 183.919C179.148 183.803 179.26 183.656 179.335 183.491C179.411 183.325 179.448 183.145 179.444 182.963C179.423 182.711 179.347 182.466 179.222 182.247C179.097 182.027 178.924 181.838 178.718 181.692C178.582 181.572 178.413 181.497 178.234 181.474C178.234 181.474 178.403 181.571 178.645 181.789C178.822 181.938 178.965 182.123 179.065 182.332C179.165 182.54 179.22 182.768 179.226 182.999C179.226 183.146 179.192 183.292 179.127 183.424C179.062 183.556 178.967 183.671 178.851 183.762C178.573 183.973 178.232 184.083 177.883 184.076C177.475 184.069 177.069 184.017 176.672 183.919L175.353 183.641C173.549 183.277 171.915 182.963 170.729 182.745C170.091 182.594 169.444 182.489 168.792 182.43Z" fill="#EB996E"/>
<path d="M181.708 180.009C182.824 179.786 183.959 179.672 185.097 179.67C186.227 179.776 187.342 179.999 188.426 180.336C187.434 179.706 186.284 179.37 185.109 179.368C183.938 179.263 182.761 179.485 181.708 180.009Z" fill="#EB996E"/>
<path d="M359.561 168.607C359.561 168.607 376.314 154.481 372.44 144.748C368.567 135.016 357.806 130.223 352.516 112.49C348.291 98.3514 323.126 71.0676 293.3 91.6455C293.3 91.6455 283.205 90.0598 277.467 94.6595C271.73 99.2593 270.338 108.435 267.905 119.026C264.152 135.355 262.095 147.908 269.357 155.897C276.62 163.886 279.283 166.028 278.896 175.107C278.387 186.957 273.158 185.372 277.685 194.014L302.693 185.856L302.96 178.968L305.49 185.444L320.015 180.215L359.561 168.607Z" fill="#263238"/>
<path d="M276.269 109.028C277.891 112.756 276.56 117.065 275.059 120.842C273.558 124.618 271.73 128.601 272.504 132.595C273.884 139.677 282.684 143.623 283.653 150.752C284.173 154.577 282.261 158.475 282.999 162.276C283.738 166.077 286.788 168.716 290.044 170.555C293.3 172.395 296.895 173.63 299.958 175.785C299.958 175.785 306.688 181.304 318.284 172.214" fill="#263238"/>
<path d="M323.78 99.7677C325.284 99.4193 326.864 99.6475 328.209 100.407C329.553 101.167 330.564 102.403 331.042 103.871L355.07 183.641C358.181 192.973 346.439 202.935 336.429 206.179C326.309 209.46 324.264 204.654 321.056 195.866C315.682 181.195 313.793 175.651 313.793 175.736C313.793 175.821 300.381 178.036 292.005 162.421C287.841 154.638 283.532 140.996 280.421 129.739C277.588 119.595 279.937 105.118 290.189 102.733L323.78 99.7677Z" fill="#FFBE9D"/>
<path d="M288.894 138.067C289.08 138.624 289.477 139.086 290 139.353C290.523 139.62 291.13 139.671 291.69 139.495C291.968 139.422 292.228 139.295 292.455 139.12C292.683 138.946 292.873 138.727 293.015 138.478C293.157 138.229 293.248 137.954 293.283 137.669C293.317 137.384 293.294 137.096 293.215 136.82C293.027 136.265 292.63 135.805 292.107 135.538C291.585 135.271 290.98 135.219 290.419 135.392C290.142 135.464 289.882 135.592 289.654 135.766C289.427 135.941 289.236 136.159 289.094 136.408C288.952 136.658 288.861 136.933 288.827 137.217C288.793 137.502 288.815 137.791 288.894 138.067Z" fill="#263238"/>
<path d="M285.577 135.222C285.929 135.404 287.127 133.661 289.415 132.874C291.702 132.087 293.772 132.644 293.918 132.281C294.002 132.111 293.554 131.7 292.707 131.421C291.48 131.082 290.179 131.129 288.979 131.554C287.788 131.968 286.759 132.748 286.037 133.782C285.469 134.508 285.396 135.101 285.577 135.222Z" fill="#263238"/>
<path d="M311.554 130.828C311.74 131.383 312.134 131.844 312.654 132.112C313.174 132.381 313.778 132.437 314.338 132.269C314.615 132.196 314.876 132.068 315.103 131.894C315.331 131.719 315.521 131.501 315.663 131.252C315.805 131.002 315.896 130.727 315.93 130.443C315.965 130.158 315.942 129.869 315.863 129.593C315.677 129.039 315.283 128.578 314.763 128.309C314.243 128.04 313.639 127.984 313.079 128.153C312.802 128.226 312.542 128.353 312.314 128.528C312.087 128.702 311.896 128.921 311.754 129.17C311.612 129.419 311.521 129.694 311.487 129.979C311.452 130.264 311.475 130.552 311.554 130.828Z" fill="#263238"/>
<path d="M308.358 128.335C308.722 128.528 309.92 126.773 312.208 125.986C314.495 125.199 316.565 125.756 316.711 125.393C316.795 125.224 316.347 124.824 315.44 124.546C314.213 124.201 312.91 124.247 311.711 124.679C310.519 125.084 309.489 125.861 308.77 126.894C308.262 127.669 308.189 128.262 308.358 128.335Z" fill="#263238"/>
<path d="M305.962 148.162C304.625 148.199 303.299 148.407 302.016 148.779C301.41 148.925 300.805 148.997 300.587 148.634C300.333 148.047 300.261 147.398 300.381 146.77C300.381 145.172 300.49 143.49 300.551 141.734C300.757 134.568 300.684 128.77 300.394 128.758C300.103 128.746 299.704 134.556 299.51 141.71C299.51 143.465 299.449 145.148 299.413 146.758C299.282 147.598 299.458 148.458 299.909 149.179C300.059 149.351 300.245 149.488 300.455 149.578C300.665 149.668 300.892 149.709 301.12 149.699C301.471 149.678 301.817 149.609 302.149 149.493C303.471 149.214 304.753 148.767 305.962 148.162Z" fill="#263238"/>
<path d="M313.781 175.736C321.617 173.151 328.579 168.436 333.887 162.119C333.887 162.119 332.253 175.434 315.149 179.658L313.781 175.736Z" fill="#EB996E"/>
<path d="M308.843 153.379C309.085 152.68 309.502 152.054 310.055 151.562C310.609 151.07 311.279 150.729 312.002 150.571C312.52 150.44 313.06 150.416 313.588 150.499C314.117 150.582 314.623 150.771 315.076 151.055C315.517 151.327 315.863 151.729 316.065 152.207C316.266 152.684 316.314 153.212 316.202 153.718C315.979 154.255 315.601 154.712 315.115 155.032C314.63 155.351 314.06 155.517 313.479 155.509C312.267 155.508 311.069 155.261 309.956 154.783C309.632 154.691 309.329 154.539 309.06 154.335C308.935 154.237 308.841 154.105 308.79 153.955C308.738 153.804 308.731 153.642 308.77 153.488" fill="#EB996E"/>
<path d="M306.664 121.798C307.015 122.403 309.327 121.641 312.183 121.447C315.04 121.253 317.425 121.58 317.691 120.939C317.8 120.624 317.292 120.091 316.263 119.643C314.911 119.088 313.445 118.868 311.99 119.002C310.53 119.098 309.115 119.543 307.862 120.297C306.918 120.902 306.494 121.508 306.664 121.798Z" fill="#263238"/>
<path d="M282.285 127.596C282.914 127.984 284.706 126.894 286.994 126.216C289.281 125.538 291.363 125.369 291.666 124.691C291.787 124.364 291.327 123.916 290.335 123.662C288.979 123.394 287.578 123.467 286.257 123.875C284.936 124.283 283.738 125.013 282.769 125.998C282.103 126.749 281.995 127.39 282.285 127.596Z" fill="#263238"/>
<path d="M351.766 152.169C347.263 137.086 342.756 121.996 338.245 106.897C337.325 103.799 336.259 100.494 333.681 98.5451C331.103 96.5963 327.98 96.4873 324.93 96.4268C311.749 96.1528 298.583 97.4531 285.711 100.3C285.105 103.363 287.756 106.28 290.734 107.285C293.712 108.289 296.932 107.926 300.055 107.963C303.178 107.999 306.603 108.556 308.722 110.868C310.84 113.18 311.203 117.114 313.333 119.68C316.965 124.086 324.675 123.154 328.319 127.584C331.067 130.937 330.328 135.839 331.236 140.076C332.265 144.918 332.265 144.918 336.078 151.963C338.39 156.296 332.58 164.576 338.366 175.313L349.599 172.117L344.672 155.534L351.354 171.088L351.766 152.169Z" fill="#263238"/>
<path d="M312.74 147.884C312.51 148.017 312.631 148.622 312.643 149.493C312.717 150.572 312.49 151.65 311.988 152.607C311.486 153.564 310.728 154.364 309.799 154.916C309.085 155.401 308.516 155.643 308.588 155.909C308.661 156.175 309.278 156.405 310.356 156.151C311.068 155.962 311.734 155.626 312.31 155.166C312.886 154.705 313.36 154.13 313.701 153.477C314.043 152.823 314.244 152.106 314.294 151.37C314.343 150.634 314.238 149.896 313.987 149.203C313.539 148.162 312.946 147.75 312.74 147.884Z" fill="#263238"/>
<path d="M316.081 111.497C316.272 111.645 316.484 111.763 316.711 111.848C317.322 112.146 317.916 112.477 318.49 112.841C321.12 114.473 323.368 116.653 325.078 119.233C326.789 121.813 327.924 124.732 328.404 127.79C328.694 129.947 328.694 132.133 328.404 134.29C328.045 136.645 327.904 139.027 327.98 141.408C328.057 142.648 328.314 143.872 328.743 145.039C329.196 146.132 329.734 147.189 330.352 148.198C331.599 149.975 332.464 151.99 332.894 154.117C333.129 156.067 333.076 158.041 332.737 159.976C332.483 161.828 332.156 163.607 332.035 165.145C331.696 167.684 332.078 170.268 333.137 172.601C333.464 173.213 333.871 173.779 334.347 174.284C334.698 174.611 334.892 174.768 334.904 174.744C334.299 174.06 333.783 173.304 333.366 172.492C332.434 170.192 332.129 167.686 332.483 165.229C332.64 163.656 332.991 161.949 333.27 160.097C333.641 158.101 333.71 156.061 333.475 154.045C333.003 149.59 328.706 146.322 328.634 141.432C328.558 139.088 328.692 136.743 329.033 134.423C329.336 132.214 329.336 129.975 329.033 127.766C328.437 124.021 326.853 120.503 324.445 117.574C322.841 115.612 320.883 113.969 318.672 112.732C318.078 112.389 317.459 112.093 316.82 111.848C316.594 111.693 316.344 111.574 316.081 111.497Z" fill="#263238"/>
<path d="M261.828 179.561L262.034 179.731C262.179 179.828 262.385 179.997 262.676 180.166C263.532 180.67 264.458 181.045 265.423 181.28C266.964 181.663 268.568 181.721 270.132 181.45C272.228 181.117 274.171 180.149 275.7 178.678C277.545 176.875 278.719 174.496 279.029 171.935C279.23 170.515 279.136 169.068 278.75 167.687C278.327 166.234 277.656 164.867 276.765 163.644C274.741 161.174 272.501 158.889 270.071 156.817C268.855 155.688 267.753 154.444 266.779 153.101C265.817 151.696 265.055 150.164 264.515 148.549C263.524 145.318 263.094 141.94 263.244 138.563C263.364 135.402 263.692 132.252 264.225 129.133C265.09 123.845 266.435 118.647 268.244 113.603C269.462 110.195 270.876 106.861 272.48 103.617C273.049 102.467 273.509 101.583 273.824 100.99C274.007 100.714 274.165 100.423 274.296 100.119C274.086 100.393 273.9 100.685 273.739 100.99C273.388 101.559 272.892 102.431 272.287 103.569C270.586 106.779 269.102 110.099 267.844 113.506C265.96 118.56 264.558 123.78 263.656 129.097C263.099 132.242 262.755 135.42 262.627 138.611C262.464 142.058 262.903 145.507 263.922 148.803C264.472 150.477 265.258 152.062 266.258 153.512C267.262 154.89 268.397 156.167 269.648 157.325C272.054 159.367 274.278 161.615 276.293 164.043C277.153 165.205 277.804 166.508 278.218 167.892C278.587 169.206 278.69 170.581 278.52 171.935C278.232 174.388 277.128 176.673 275.385 178.423C273.928 179.849 272.077 180.806 270.071 181.171C268.553 181.462 266.992 181.437 265.484 181.099C264.194 180.776 262.961 180.258 261.828 179.561Z" fill="#263238"/>
<path d="M364.802 163.147C363.386 162.781 362.062 162.121 360.917 161.211C357.914 158.545 356.066 154.816 355.76 150.813C355.499 148.065 355.427 145.303 355.542 142.545C355.718 139.339 355.469 136.124 354.804 132.983C354.395 131.282 353.739 129.65 352.855 128.141C351.914 126.545 350.602 125.199 349.03 124.219C345.75 122.21 341.767 122.306 338.136 121.06C336.366 120.44 334.774 119.397 333.5 118.021C332.273 116.656 331.178 115.176 330.231 113.603C328.295 110.553 326.431 107.345 323.477 105.445C322.058 104.542 320.46 103.959 318.793 103.738C317.248 103.531 315.688 103.466 314.132 103.544C311.38 103.759 308.613 103.735 305.865 103.472C301.899 102.928 298.126 101.423 294.874 99.0898C293.999 98.4492 293.158 97.7623 292.356 97.032L291.739 96.451L291.509 96.2574C292.445 97.4023 293.528 98.4196 294.729 99.2835C297.977 101.726 301.784 103.32 305.804 103.92C308.575 104.208 311.365 104.256 314.144 104.065C317.074 104.065 320.402 104.065 323.162 105.941C325.922 107.817 327.774 110.856 329.711 113.93C330.677 115.543 331.795 117.059 333.052 118.457C334.383 119.899 336.045 120.996 337.894 121.653C341.622 122.936 345.592 122.863 348.655 124.752C351.531 126.705 353.519 129.716 354.186 133.128C354.859 136.215 355.123 139.377 354.973 142.533C354.868 145.317 354.965 148.104 355.264 150.873C355.62 154.964 357.578 158.749 360.711 161.404C361.578 162.089 362.568 162.603 363.628 162.917C363.903 162.997 364.182 163.062 364.463 163.111C364.573 163.145 364.688 163.157 364.802 163.147Z" fill="#7480FF"/>
<path d="M352.673 113.01C351.884 113.287 351.075 113.502 350.252 113.652C348.015 113.925 345.747 113.551 343.716 112.574C340.754 111.016 338.104 108.928 335.896 106.413C334.565 105.057 333.173 103.605 331.599 102.237C329.986 100.78 328.141 99.6019 326.14 98.7509C324.107 97.9572 321.944 97.5468 319.761 97.5404C317.759 97.5353 315.759 97.6445 313.769 97.8673C311.881 98.0488 310.138 98.2425 308.419 98.2546C306.865 98.2801 305.312 98.1544 303.783 97.8794C301.564 97.5314 299.477 96.6045 297.73 95.1921C297.131 94.6295 296.561 94.0356 296.024 93.4128C296.112 93.61 296.221 93.7967 296.351 93.9696C296.491 94.1915 296.649 94.402 296.823 94.599C297.05 94.8782 297.301 95.1374 297.573 95.3737C299.317 96.903 301.449 97.9209 303.734 98.3151C305.289 98.6263 306.87 98.7804 308.455 98.7751C310.162 98.7751 311.966 98.6056 313.866 98.4483C315.832 98.239 317.808 98.142 319.785 98.1578C321.891 98.155 323.98 98.5407 325.946 99.2956C329.953 100.954 332.834 104.137 335.521 106.788C337.787 109.333 340.52 111.42 343.571 112.938C345.679 113.913 348.032 114.234 350.325 113.857C350.943 113.741 351.544 113.55 352.117 113.289C352.311 113.214 352.497 113.121 352.673 113.01Z" fill="#7480FF"/>
<path d="M265.096 146.951C264.799 146.21 264.599 145.433 264.503 144.639C264.391 142.469 264.995 140.321 266.222 138.527C267.626 136.106 270.229 134.072 272.868 131.494C274.289 130.148 275.479 128.578 276.39 126.846C277.275 124.943 277.784 122.889 277.891 120.793C278.169 116.496 277.431 112.478 277.528 108.834C277.388 105.612 278.325 102.435 280.191 99.804C281.493 98.0657 283.381 96.8575 285.505 96.4026C286.307 96.2873 287.119 96.267 287.926 96.3421C287.73 96.2541 287.522 96.1969 287.308 96.1726C286.71 96.0905 286.103 96.0905 285.505 96.1726C283.272 96.5471 281.263 97.7485 279.876 99.5377C278 101.704 277.032 105.142 276.983 108.834C276.935 112.526 277.576 116.569 277.298 120.757C277.201 122.783 276.716 124.772 275.87 126.616C275.001 128.297 273.859 129.822 272.492 131.131C269.926 133.697 267.275 135.852 265.883 138.393C264.643 140.277 264.083 142.528 264.298 144.773C264.375 145.373 264.546 145.957 264.806 146.504C264.884 146.664 264.982 146.815 265.096 146.951Z" fill="#7480FF"/>
<path d="M372.222 154.202C372.489 154.077 372.748 153.935 372.997 153.778C373.699 153.305 374.331 152.734 374.873 152.084C375.873 150.865 376.598 149.444 376.999 147.919C377.4 146.394 377.468 144.801 377.197 143.247C377.002 142.214 376.655 141.214 376.168 140.282C375.589 139.304 374.872 138.415 374.038 137.643C372.126 136.071 370.008 134.768 367.744 133.77C365.282 132.717 363.009 131.27 361.013 129.485C359.086 127.365 357.769 124.763 357.2 121.955C356.474 119.087 355.99 116.182 355.034 113.482C354.137 110.902 352.956 108.429 351.511 106.11C349.085 102.175 345.968 98.7105 342.312 95.8821C339.856 93.9755 337.162 92.3967 334.299 91.1855C333.529 90.8469 332.741 90.5519 331.938 90.3019C331.666 90.1891 331.382 90.1079 331.091 90.0598C331.091 90.1324 332.229 90.4955 334.202 91.4155C337.003 92.6983 339.634 94.3248 342.033 96.2573C345.605 99.094 348.645 102.541 351.015 106.437C352.423 108.724 353.572 111.159 354.441 113.7C355.361 116.339 355.845 119.208 356.595 122.173C357.186 125.09 358.563 127.79 360.578 129.981C362.622 131.806 364.953 133.283 367.477 134.351C369.705 135.315 371.793 136.573 373.687 138.091C374.486 138.822 375.178 139.661 375.745 140.584C376.221 141.465 376.564 142.411 376.761 143.393C377.063 145.098 376.967 146.85 376.483 148.513C376.112 149.774 375.504 150.953 374.692 151.987C373.967 152.828 373.137 153.573 372.222 154.202Z" fill="#263238"/>
<path d="M261.683 148.077C261.743 148.077 261.175 147.496 260.4 146.346C259.333 144.72 258.6 142.897 258.245 140.984C257.739 138.146 257.842 135.233 258.548 132.438C259.489 129.027 260.951 125.781 262.881 122.815C264.879 119.607 267.033 116.702 268.849 113.954C270.495 111.534 271.924 108.974 273.122 106.304C273.927 104.495 274.516 102.598 274.877 100.651C274.971 100.123 275.036 99.5892 275.071 99.0535C275.097 98.8688 275.097 98.6813 275.071 98.4967C275.071 98.4967 274.925 99.2593 274.623 100.603C274.183 102.52 273.547 104.386 272.722 106.171C271.472 108.785 270.015 111.294 268.365 113.676C266.537 116.399 264.358 119.292 262.312 122.536C260.347 125.558 258.872 128.871 257.943 132.353C257.25 135.232 257.192 138.226 257.773 141.129C258.186 143.085 259.011 144.929 260.194 146.54C260.514 146.973 260.87 147.378 261.259 147.75C261.386 147.877 261.528 147.987 261.683 148.077Z" fill="#263238"/>
<path d="M387.414 316.791L397.351 334.089C397.351 334.089 446.75 316.017 475.668 321.282C486.671 323.279 498.437 348.227 482.411 364.253C466.784 379.881 438.834 401.984 386.385 409.137C385.077 409.307 363.592 413.919 364.923 413.761C366.255 413.604 334.807 418.603 334.807 418.603L327.423 390.69L268.849 399.877C234.327 397.529 217.428 360.61 238.224 348.723C257.592 337.648 294.075 336.752 294.075 336.752L307.293 316.029L387.414 316.791Z" fill="#263238"/>
<path d="M333.609 419.68C333.463 418.736 333.04 416.194 332.192 410.977C331.72 408.193 331.151 404.804 330.413 400.906C330.038 398.945 329.626 396.875 329.13 394.684C328.876 393.583 328.609 392.469 328.283 391.319C328.125 390.75 327.956 390.182 327.75 389.601C327.564 388.976 327.26 388.392 326.854 387.882L326.769 388.305C339.237 383.875 354.828 378.028 371.435 371.02C381.652 366.674 391.287 362.293 399.772 357.705C403.819 355.596 407.703 353.188 411.393 350.503C414.83 347.961 417.905 345.419 420.786 343.24C426.475 338.737 431.68 335.832 435.517 334.597C436.362 334.297 437.223 334.042 438.096 333.835C438.728 333.657 439.371 333.52 440.02 333.423L441.231 333.205L441.642 333.108C441.501 333.092 441.359 333.092 441.219 333.108L440.008 333.266C439.347 333.337 438.692 333.454 438.047 333.617C437.162 333.802 436.289 334.04 435.433 334.331C433.074 335.095 430.802 336.105 428.654 337.345C425.813 338.988 423.091 340.828 420.508 342.853C417.602 345.043 414.528 347.561 411.078 350.115C407.398 352.771 403.526 355.15 399.494 357.233C391.021 361.76 381.398 366.13 371.193 370.463C354.598 377.46 339.031 383.355 326.6 387.845L326.249 387.979L326.515 388.269C326.855 388.73 327.113 389.246 327.278 389.794C327.484 390.351 327.653 390.92 327.823 391.477C328.149 392.602 328.428 393.728 328.682 394.806C329.19 396.984 329.626 399.054 330.013 401.003C330.788 404.901 331.393 408.266 331.902 411.05C332.41 413.834 332.822 415.952 333.112 417.465C333.257 418.204 333.366 418.773 333.463 419.148C333.5 419.328 333.548 419.506 333.609 419.68Z" fill="#7480FF"/>
<path d="M249.578 352.113H249.905L250.813 351.967C251.612 351.858 252.774 351.568 254.311 351.41C258.616 350.843 262.965 350.689 267.299 350.95C273.731 351.365 280.105 352.419 286.328 354.098C289.838 355.03 293.494 356.143 297.222 357.439C300.95 358.734 304.775 360.223 308.685 361.784C312.5 363.298 316.401 364.587 320.366 365.645C324.203 366.699 327.944 367.522 331.527 368.212C338.692 369.616 345.217 370.475 350.688 371.141C356.159 371.807 360.602 372.255 363.664 372.569L367.199 372.92L368.119 372.993C368.223 373.009 368.329 373.009 368.434 372.993H368.131L367.211 372.86L363.701 372.388L350.749 370.766C345.277 370.039 338.777 369.132 331.648 367.703C328.077 367.001 324.385 366.166 320.536 365.101C316.593 364.041 312.713 362.76 308.915 361.264C305.017 359.702 301.18 358.201 297.416 356.918C293.651 355.635 289.996 354.497 286.461 353.589C280.198 351.929 273.781 350.919 267.312 350.575C262.951 350.348 258.579 350.567 254.263 351.229C252.726 351.423 251.576 351.761 250.777 351.907L249.869 352.113C249.772 352.1 249.675 352.1 249.578 352.113Z" fill="#7480FF"/>
<path d="M339.83 342.066C339.83 342.477 342.445 343.143 346.839 343.555C358.312 344.493 369.86 343.261 380.877 339.923C385.077 338.592 387.535 337.369 387.414 336.97C387.135 336.098 376.762 338.858 363.689 340.214C350.616 341.569 339.915 341.146 339.83 342.066Z" fill="#263238"/>
<path d="M293.518 337.163C294.15 337.385 294.797 337.559 295.455 337.684C296.219 337.838 296.974 338.032 297.718 338.265C298.59 338.519 299.595 338.785 300.672 339.173C303.218 340.024 305.715 341.014 308.153 342.138C310.888 343.446 313.842 344.995 316.856 346.786C321.961 349.902 326.858 353.347 331.514 357.1C333.306 358.528 334.746 359.714 335.727 360.537C336.219 360.986 336.75 361.391 337.313 361.748C336.876 361.241 336.403 360.768 335.896 360.332C334.952 359.448 333.56 358.213 331.793 356.7C327.197 352.822 322.309 349.305 317.171 346.181C314.33 344.485 311.4 342.941 308.395 341.557C305.928 340.441 303.393 339.483 300.805 338.689C299.716 338.325 298.699 338.083 297.803 337.865C297.047 337.659 296.279 337.497 295.503 337.381C294.849 337.252 294.185 337.179 293.518 337.163Z" fill="#7480FF"/>
<path d="M348.437 361.772C349.633 361.593 350.8 361.259 351.911 360.779C354.621 359.744 357.268 358.552 359.839 357.209L367.501 353.178C368.591 352.675 369.647 352.101 370.661 351.459C369.497 351.782 368.369 352.224 367.296 352.778C365.274 353.698 362.539 355.102 359.525 356.64C356.51 358.177 353.763 359.508 351.717 360.368C349.671 361.227 348.412 361.675 348.437 361.772Z" fill="#7480FF"/>
<path d="M343.099 318.873C343.002 318.873 343.171 320.689 343.353 323.606C343.534 326.523 343.704 330.554 343.619 335.009C343.534 339.463 343.208 343.482 342.917 346.411C342.689 347.976 342.539 349.552 342.469 351.132C342.628 350.745 342.734 350.338 342.784 349.922C342.953 349.123 343.147 347.949 343.353 346.496C343.878 342.704 344.177 338.885 344.249 335.057C344.319 331.235 344.17 327.411 343.801 323.606C343.643 322.142 343.498 320.967 343.365 320.156C343.329 319.719 343.239 319.289 343.099 318.873Z" fill="#7480FF"/>
<path d="M337.591 320.665C337.591 320.665 337.809 320.858 338.111 321.222C338.535 321.728 338.804 322.346 338.886 323.001C338.954 323.472 338.922 323.951 338.79 324.408C338.659 324.865 338.431 325.289 338.124 325.652C337.7 326.028 337.183 326.282 336.627 326.386C336.071 326.491 335.496 326.443 334.965 326.246C334.435 326.05 333.967 325.713 333.613 325.271C333.259 324.83 333.031 324.3 332.955 323.739C332.967 323.26 333.081 322.788 333.29 322.356C333.499 321.924 333.797 321.541 334.165 321.234C334.653 320.789 335.258 320.495 335.908 320.386C336.381 320.314 336.647 320.386 336.659 320.302C336.671 320.217 336.405 320.144 335.884 320.144C335.15 320.166 334.443 320.43 333.875 320.895C333.433 321.229 333.073 321.661 332.823 322.156C332.573 322.651 332.44 323.197 332.434 323.751C332.49 324.441 332.742 325.1 333.16 325.651C333.577 326.202 334.144 326.622 334.792 326.863C335.44 327.103 336.144 327.153 336.82 327.007C337.496 326.861 338.116 326.526 338.608 326.039C338.96 325.611 339.211 325.109 339.343 324.57C339.475 324.032 339.484 323.471 339.37 322.928C339.242 322.201 338.876 321.537 338.329 321.04C337.894 320.713 337.603 320.641 337.591 320.665Z" fill="#7480FF"/>
<path d="M322.557 300.728C322.826 301.166 323.142 301.572 323.501 301.939C324.41 303.019 325.38 304.045 326.406 305.013C327.926 306.459 329.543 307.798 331.248 309.02C333.347 310.507 335.552 311.838 337.845 313.003C340.151 314.136 342.538 315.095 344.987 315.871C346.993 316.495 349.039 316.98 351.112 317.324C352.501 317.567 353.904 317.724 355.312 317.796C355.827 317.846 356.346 317.846 356.862 317.796C356.862 317.675 354.671 317.554 351.184 316.876C349.138 316.47 347.117 315.945 345.132 315.302C338.322 313.078 332.049 309.463 326.709 304.687C324.07 302.338 322.654 300.656 322.557 300.728Z" fill="#263238"/>
<path d="M300.466 314.165C300.466 314.346 302.645 314.346 305.211 315C307.777 315.653 309.714 316.622 309.811 316.464C307.124 314.489 303.763 313.662 300.466 314.165Z" fill="#263238"/>
<g opacity="0.3">
<path opacity="0.3" d="M351.269 317.191C340.746 315.263 331.213 309.754 324.288 301.6C323.658 303.516 323.572 305.569 324.04 307.531C324.508 309.493 325.512 311.287 326.939 312.712C323.864 314.165 320.257 313.196 316.892 312.712C313.527 312.228 309.411 312.712 307.802 315.702C322.857 317.095 337.986 317.528 353.097 316.997" fill="black"/>
</g>
<path d="M381.325 293.466C382.842 292.029 384.61 290.884 386.542 290.088C388.651 289.271 390.903 288.888 393.163 288.963C395.926 289.062 398.629 289.791 401.068 291.093C406.345 293.829 409.541 298.501 411.865 301.491C412.765 302.747 413.574 304.066 414.286 305.437C414.521 305.953 414.8 306.447 415.121 306.914C414.969 306.366 414.762 305.835 414.504 305.328C413.882 303.902 413.137 302.533 412.276 301.237C411.151 299.615 409.698 297.799 408.028 295.814C406.155 293.664 403.907 291.872 401.394 290.524C398.867 289.181 396.061 288.447 393.2 288.382C390.867 288.335 388.549 288.776 386.397 289.677C384.949 290.269 383.62 291.118 382.475 292.183C382.157 292.462 381.865 292.77 381.603 293.103C381.398 293.333 381.301 293.454 381.325 293.466Z" fill="#263238"/>
<path d="M349.635 177.358L366.533 180.953L358.084 212.583L328.161 219.01L307.632 204.448L304.812 187.006L322.412 180.348L349.635 177.358Z" fill="#FFBE9D"/>
<path d="M361.534 179.658C361.534 179.658 350.095 212.873 328.96 209.799C307.826 206.724 309.593 185.202 309.593 185.202C309.593 185.202 287.538 191.932 280.724 199.086C273.909 206.24 277.927 221.794 277.927 221.794L283.641 249.901L296.084 303.743C296.084 303.743 291.327 318.438 303.492 322.069L307.329 316.017L380.284 318.074C380.284 318.074 395.887 336.062 400.753 329.864C405.619 323.667 410.291 311.562 410.291 311.562L376.774 183.641L361.534 179.658Z" fill="#7480FF"/>
<path d="M286.485 194.837C285.892 195.176 234.69 232.362 234.69 232.362C234.69 232.362 238.708 262.962 214.112 258.096C214.112 258.096 224.038 283.685 237.474 278.311C241.299 276.785 288.495 246.923 288.495 246.923L298.505 225.607L286.485 194.837Z" fill="#7480FF"/>
<path d="M361.534 181.292C361.534 181.292 362.744 181.292 364.645 181.51C374.667 182.479 411.659 190.141 415.085 216.25C416.876 229.904 417.385 269.838 419.321 286.578C419.321 286.578 416.235 309.843 415.085 314.153C413.039 321.827 375.975 309.529 375.975 309.529L375.902 235.69L362.66 181.329" fill="#7480FF"/>
<path d="M384.944 248.376C384.911 248.572 384.911 248.773 384.944 248.969C384.935 249.544 384.894 250.118 384.823 250.688C384.56 252.763 384.035 254.797 383.262 256.74C382.318 259.234 380.841 262.066 379.437 265.31C378.665 267.013 378.018 268.768 377.5 270.564C376.981 272.501 376.645 274.483 376.495 276.483C376.279 280.334 376.38 284.196 376.798 288.031C377.1 291.565 377.391 294.749 377.827 297.4C378.157 299.496 378.647 301.564 379.291 303.585C379.533 304.299 379.739 304.796 379.897 305.207C379.958 305.401 380.048 305.584 380.163 305.752C380.163 305.752 379.933 304.953 379.521 303.513C378.98 301.48 378.575 299.414 378.311 297.327C377.924 294.688 377.681 291.517 377.403 287.994C377.032 284.185 376.951 280.353 377.161 276.531C377.303 274.569 377.628 272.624 378.129 270.721C378.633 268.953 379.26 267.222 380.006 265.54C381.41 262.308 382.814 259.428 383.722 256.898C384.474 254.9 384.939 252.805 385.102 250.676C385.151 250.1 385.151 249.521 385.102 248.945C385.066 248.751 385.013 248.561 384.944 248.376Z" fill="#263238"/>
<path d="M383.237 239.055C383.129 239.055 383.044 240.932 382.62 243.897C382.071 247.8 381.168 251.645 379.921 255.385C379.546 256.486 379.158 257.539 378.71 258.556C378.622 258.791 378.521 259.022 378.408 259.246L377.972 259.912C377.691 260.354 377.432 260.811 377.197 261.28C376.331 262.889 375.862 264.682 375.829 266.509C375.823 267.755 376.066 268.989 376.544 270.14C376.711 270.571 376.935 270.978 377.209 271.351C376.598 269.852 376.281 268.249 376.277 266.63C376.365 264.884 376.854 263.182 377.706 261.655C377.936 261.219 378.202 260.783 378.48 260.347L378.916 259.682C379.063 259.432 379.184 259.168 379.279 258.895C379.703 257.878 380.09 256.801 380.49 255.699C381.76 251.922 382.613 248.018 383.032 244.055C383.201 242.542 383.25 241.295 383.262 240.423C383.307 239.968 383.299 239.509 383.237 239.055Z" fill="#263238"/>
<path d="M381.761 227.968C381.858 227.968 382.414 226.455 383.504 224.07C384.929 220.955 386.643 217.98 388.624 215.185C390.621 212.406 392.87 209.817 395.342 207.45C397.243 205.635 398.526 204.606 398.453 204.521C398.104 204.687 397.778 204.898 397.485 205.15C396.644 205.766 395.836 206.424 395.064 207.123C389.862 211.734 385.776 217.467 383.116 223.888C382.62 225.099 382.257 226.128 382.051 226.842C381.908 227.204 381.81 227.582 381.761 227.968Z" fill="#263238"/>
<path d="M276.85 206.276C276.825 207.258 276.906 208.241 277.092 209.205C277.31 211.009 277.625 213.491 277.903 216.238C278.182 218.986 278.412 221.48 278.569 223.295C278.587 224.278 278.709 225.255 278.932 226.212C279.07 225.238 279.099 224.252 279.017 223.271C279.017 221.443 278.823 218.938 278.533 216.178C278.242 213.418 277.867 210.924 277.54 209.145C277.418 208.166 277.187 207.204 276.85 206.276Z" fill="#263238"/>
<path d="M266.319 237.361C266.319 237.47 267.917 237.627 270.398 238.329C273.629 239.225 276.57 240.948 278.932 243.328C280.187 244.673 281.279 246.16 282.188 247.759C282.9 249.088 283.523 250.462 284.052 251.874L284.645 253.52C284.791 253.968 284.912 254.392 285.033 254.731C285.119 255.102 285.253 255.46 285.432 255.796C285.439 255.414 285.382 255.033 285.263 254.67L284.984 253.375L284.476 251.681C283.995 250.22 283.4 248.799 282.697 247.432C281.782 245.806 280.668 244.302 279.38 242.953C276.956 240.488 273.884 238.759 270.519 237.966C269.947 237.808 269.365 237.691 268.776 237.615C268.34 237.532 267.9 237.475 267.457 237.446C267.084 237.358 266.7 237.329 266.319 237.361Z" fill="#263238"/>
<path d="M232.414 271.048C232.733 270.627 233.005 270.172 233.225 269.692C233.479 269.256 233.77 268.7 234.072 268.034C234.375 267.368 234.738 266.642 235.053 265.782C235.85 263.795 236.501 261.752 237.002 259.67C237.609 257.111 238.014 254.508 238.212 251.886C238.377 249.268 238.332 246.641 238.079 244.03C237.858 241.901 237.486 239.789 236.965 237.712C236.772 236.816 236.493 236.029 236.287 235.291C236.122 234.694 235.92 234.108 235.682 233.536C235.524 233.031 235.313 232.544 235.053 232.083C234.932 232.083 235.743 234.226 236.53 237.76C236.981 239.828 237.304 241.922 237.498 244.03C237.714 246.615 237.747 249.212 237.595 251.802C237.4 254.388 237.02 256.956 236.457 259.488C235.986 261.541 235.388 263.562 234.665 265.54C233.382 269.014 232.305 270.999 232.414 271.048Z" fill="#263238"/>
<path d="M245.717 261.957C245.936 261.55 246.099 261.114 246.201 260.662C246.539 259.472 246.79 258.258 246.952 257.031C247.471 252.897 247.083 248.7 245.814 244.733C244.58 240.747 242.466 237.09 239.628 234.032C238.777 233.046 237.592 232.408 236.3 232.241C235.945 232.231 235.594 232.301 235.271 232.446C235.065 232.555 234.956 232.628 234.968 232.652C235.394 232.515 235.841 232.457 236.287 232.483C237.472 232.743 238.534 233.396 239.302 234.335C241.983 237.414 243.994 241.016 245.209 244.914C246.443 248.822 246.887 252.937 246.516 257.019C246.201 260.045 245.608 261.921 245.717 261.957Z" fill="#263238"/>
<path d="M328.96 255.929C328.999 256.42 329.1 256.905 329.263 257.37C329.391 257.928 329.553 258.477 329.747 259.016C329.981 259.739 330.252 260.45 330.558 261.146C331.322 262.975 332.246 264.733 333.318 266.4C335.954 270.508 339.402 274.034 343.45 276.761C345.093 277.875 346.831 278.843 348.642 279.654C349.332 279.976 350.039 280.259 350.761 280.502C351.291 280.722 351.837 280.9 352.395 281.034C352.858 281.195 353.337 281.309 353.823 281.373C353.823 281.252 351.838 280.707 348.836 279.255C347.076 278.398 345.384 277.406 343.776 276.289C341.827 274.903 339.997 273.356 338.305 271.665C336.652 269.936 335.15 268.07 333.814 266.085C332.733 264.456 331.782 262.744 330.97 260.965C329.578 257.927 329.081 255.893 328.96 255.929Z" fill="#263238"/>
<g opacity="0.3">
<path opacity="0.3" d="M370.879 267.913L377.851 242.493C378.19 241.283 378.759 239.794 380.03 239.564C380.627 239.543 381.212 239.744 381.67 240.129C382.128 240.513 382.428 241.054 382.511 241.646C382.681 242.879 382.681 244.129 382.511 245.362C381.966 250.894 381.531 254.646 378.952 258.931C373.929 267.283 377.234 271.338 377.234 271.338C376.834 281.506 377.694 295.378 380.865 305.824L377.875 318.425C375.043 309.056 368.567 301.249 367.477 291.517C366.642 283.54 368.712 275.636 370.879 267.913Z" fill="black"/>
</g>
<g opacity="0.3">
<path opacity="0.3" d="M283.617 250.071C275.325 254.38 267.953 260.335 259.879 264.947C263.039 258.35 268.353 251.826 274.744 248.328C276.412 247.251 278.378 246.73 280.36 246.839C282.321 247.117 283.725 248.219 283.423 250.167" fill="black"/>
</g>
<g opacity="0.3">
<path opacity="0.3" d="M236.106 231.829C238.938 231.756 241.069 234.335 242.461 236.804C246.376 243.83 247.977 251.912 247.036 259.9C246.867 261.328 246.334 263.047 244.918 263.325C244.395 263.383 243.868 263.269 243.416 263C242.964 262.731 242.612 262.323 242.412 261.836C242.024 260.865 241.863 259.817 241.94 258.774C241.94 253.932 242.279 249.03 241.577 244.248C240.875 239.467 239.072 234.625 235.525 231.345" fill="black"/>
</g>
<path d="M364.136 240.92H363.846L363.011 240.859L359.73 240.69L347.335 240.121L303.432 238.257H303.141V238.535C302.778 253.303 302.354 270.297 301.931 288.285V290.088V290.403H302.137C320.223 290.612 338.279 291.962 356.196 294.446H356.426L356.486 294.216C359.959 281.494 362.121 268.45 362.938 255.288C363.229 250.519 363.277 246.814 363.277 244.224C363.277 243.014 363.277 241.973 363.277 241.307V240.569C363.277 240.399 363.277 240.314 363.277 240.314C363.266 240.399 363.266 240.484 363.277 240.569V241.319C363.277 241.997 363.277 242.977 363.277 244.224C363.277 246.778 363.12 250.519 362.793 255.264C361.865 268.392 359.635 281.396 356.135 294.083L356.438 293.877C338.446 291.322 320.308 289.935 302.137 289.725L302.451 290.052V288.249C302.875 270.261 303.262 253.266 303.662 238.499L303.371 238.777L347.287 240.411L359.694 240.823L362.974 240.92H364.1H364.136Z" fill="white"/>
<path d="M348.134 277.609C348.304 277.609 349.817 269.462 351.511 259.343C353.206 249.223 354.441 241.004 354.271 240.968C354.102 240.932 352.589 249.114 350.894 259.246C349.199 269.377 348.013 277.584 348.134 277.609Z" fill="white"/>
<path d="M346.367 293.224C347.017 291.071 347.467 288.862 347.71 286.627C348.156 284.418 348.4 282.173 348.437 279.921C347.785 282.077 347.336 284.29 347.093 286.53C346.632 288.732 346.389 290.974 346.367 293.224Z" fill="white"/>
<path d="M335.933 269.511C336.105 269.156 336.219 268.776 336.272 268.385C336.453 267.659 336.683 266.581 336.937 265.262C337.446 262.611 338.015 258.931 338.426 254.84C338.838 250.749 338.995 247.02 339.031 244.333C339.031 242.977 339.031 241.912 339.031 241.137C339.043 240.731 339.006 240.325 338.923 239.927C338.727 241.367 338.626 242.819 338.62 244.273C338.475 246.96 338.245 250.664 337.833 254.743C337.422 258.822 336.925 262.49 336.538 265.153C336.249 266.592 336.047 268.047 335.933 269.511Z" fill="white"/>
<path d="M337.313 291.602C337.974 288.786 338.431 285.925 338.68 283.044C339.148 280.19 339.399 277.305 339.431 274.413C338.771 277.229 338.314 280.089 338.063 282.971C337.595 285.825 337.345 288.71 337.313 291.602Z" fill="white"/>
<path d="M323.634 290.621C323.761 289.962 323.842 289.294 323.876 288.624L324.349 283.177C324.748 278.589 325.341 272.283 326.14 265.25C326.939 258.217 327.81 251.935 328.464 247.371C328.779 245.168 329.045 243.34 329.239 241.961C329.362 241.301 329.435 240.634 329.457 239.963C329.245 240.602 329.091 241.258 328.997 241.924C328.742 243.135 328.416 245.023 328.028 247.299C327.254 251.862 326.322 258.193 325.511 265.177C324.7 272.162 324.191 278.492 323.901 283.153C323.768 285.452 323.671 287.317 323.634 288.612C323.571 289.28 323.571 289.953 323.634 290.621Z" fill="white"/>
<path d="M311.99 291.275C312.077 290.601 312.11 289.921 312.087 289.241C312.087 287.825 312.087 285.949 312.087 283.697C312.087 279.025 312.256 272.561 312.583 265.443C312.91 258.326 313.418 251.874 313.793 247.214C313.987 244.975 314.144 243.11 314.265 241.706C314.351 241.032 314.387 240.352 314.374 239.673C314.196 240.326 314.079 240.995 314.023 241.67C313.83 242.965 313.6 244.854 313.345 247.178C312.837 251.826 312.28 258.278 311.929 265.407C311.578 272.537 311.542 279.013 311.614 283.697C311.614 286.033 311.699 287.934 311.76 289.241C311.786 289.924 311.863 290.603 311.99 291.275Z" fill="white"/>
<g opacity="0.3">
<path opacity="0.3" d="M352.867 281.458C350.971 282.666 348.727 283.211 346.488 283.007C344.263 282.805 342.087 282.237 340.048 281.325C337.27 280.29 334.765 278.634 332.725 276.483C330.742 274.019 329.485 271.051 329.094 267.913C328.692 264.778 328.587 261.613 328.779 258.459C328.767 258.323 328.801 258.187 328.876 258.072C328.92 258.026 328.972 257.99 329.031 257.966C329.089 257.941 329.151 257.928 329.215 257.928C329.278 257.928 329.34 257.941 329.399 257.966C329.457 257.99 329.51 258.026 329.554 258.072C329.734 258.258 329.863 258.487 329.929 258.738C331.782 264.011 334.867 268.766 338.929 272.606C342.99 276.446 347.91 279.261 353.279 280.816" fill="black"/>
</g>
<path d="M360.36 382.846L367.756 368.974L384.387 291.129C384.387 291.129 399.688 282.342 412.228 301.6C412.724 302.375 394.991 358.129 390.04 373.635L389.35 388.475C389.35 388.475 390.222 406.039 389.35 407.576C388.571 408.653 387.506 409.492 386.276 409.997C386.276 409.997 386.929 414.391 381.882 414.839C381.882 414.839 381.446 419.681 377.718 419.015C376.704 418.892 375.729 418.554 374.856 418.023C373.984 417.493 373.234 416.783 372.658 415.94C372.658 415.94 372.658 422.077 369.366 421.424C366.073 420.77 365.541 418.131 364.935 417.26C364.33 416.388 363.628 407.37 363.628 407.37L363.689 392.506L355.118 399.454C352.698 400.664 349.006 402.214 346.948 400.362L360.36 382.846Z" fill="#FFBE9D"/>
<path d="M363.676 391.743C363.113 394.375 362.95 397.076 363.192 399.756C363.289 401.814 363.374 403.69 363.459 405.409C363.432 406.194 363.505 406.979 363.676 407.745C364.014 405.087 364.063 402.401 363.822 399.732C363.604 395.326 363.87 391.767 363.676 391.743Z" fill="#EB996E"/>
<path d="M373.118 402.105C372.634 406.993 372.569 411.913 372.924 416.812C373.408 411.924 373.473 407.004 373.118 402.105Z" fill="#EB996E"/>
<path d="M381.034 404.804C380.477 408.221 380.814 411.724 382.015 414.972C382.184 414.972 381.749 412.684 381.494 409.888C381.434 408.186 381.281 406.489 381.034 404.804Z" fill="#EB996E"/>
<path d="M386.13 403.085C385.927 405.314 386.149 407.561 386.784 409.706C386.997 408.603 386.997 407.469 386.784 406.365C386.768 405.241 386.547 404.129 386.13 403.085Z" fill="#EB996E"/>
<path d="M369.511 99.7919L380.647 80.1582C373.763 68.9814 371.309 55.634 373.766 42.7393C376.223 29.8447 383.414 18.3355 393.927 10.4738C404.439 2.61204 417.511 -1.03357 430.574 0.253481C443.638 1.54053 455.747 7.66715 464.523 17.4292C473.299 27.1912 478.106 39.8825 477.999 53.0088C477.893 66.135 472.881 78.7468 463.948 88.3652C455.015 97.9837 442.808 103.913 429.725 104.988C416.643 106.063 403.631 102.206 393.248 94.1753L369.511 99.7919Z" fill="#FFBE3D"/>
<path d="M466.836 114.999L464.536 119.2L460.336 121.5L464.536 123.8L466.836 128L469.136 123.8L473.336 121.5L469.136 119.2L466.836 114.999Z" fill="#7480FF"/>
<path d="M451.487 57.4783L449.103 57.3209L447.178 55.8926L447.021 58.2893L445.592 60.2139L447.989 60.3713L449.914 61.7875L450.071 59.4029L451.487 57.4783Z" fill="#7480FF"/>
<path d="M64.3092 248.489L61.9246 248.332L60 246.903L59.8426 249.3L58.4143 251.225L60.811 251.382L62.7356 252.798L62.8929 250.414L64.3092 248.489Z" fill="#7480FF"/>
<path d="M337.038 128.98L334.654 128.823L332.717 127.407L332.56 129.791L331.143 131.716L333.528 131.873L335.465 133.29L335.61 130.905L337.038 128.98Z" fill="#7480FF"/>
<path d="M322.489 26.6963L320.104 26.5389L318.179 25.1227L318.022 27.5073L316.606 29.4319L318.99 29.5893L320.915 31.0176L321.072 28.6209L322.489 26.6963Z" fill="#7480FF"/>
<path d="M395.782 90.1729L392.151 88.0788L390.226 84.3627L388.132 87.9941L384.404 89.9308L388.035 92.0128L389.972 95.741L392.066 92.1096L395.782 90.1729Z" fill="#7480FF"/>
<path d="M90.6852 296.569L87.0538 294.475L85.1292 290.758L83.0351 294.39L79.3189 296.314L82.9503 298.409L84.875 302.125L86.9691 298.493L90.6852 296.569Z" fill="#7480FF"/>
<path d="M108.927 230.175L105.295 228.081L103.359 224.365L101.265 227.996L97.5485 229.921L101.18 232.015L103.117 235.743L105.199 232.099L108.927 230.175Z" fill="#7480FF"/>
<path d="M443.01 23.1113L426.943 18.4102L418.07 58.6685L428.781 61.8026L443.01 23.1113ZM417.082 81.9164C419.443 82.6073 421.649 82.44 423.699 81.4146C425.709 80.3147 427.034 78.6707 427.674 76.4824C428.314 74.2942 428.068 72.2528 426.934 70.3582C425.818 68.406 424.05 67.0761 421.631 66.3684C419.213 65.6607 417.007 65.828 415.014 66.8702C413.038 67.8549 411.73 69.4414 411.09 71.6296C410.449 73.8179 410.708 75.9253 411.865 77.9519C412.982 79.9041 414.721 81.2256 417.082 81.9164Z" fill="#7480FF"/>
</svg>
