<svg width="288" height="211" viewBox="0 0 288 211" fill="none" xmlns="http://www.w3.org/2000/svg">
<rect width="288" height="211" fill="white"/>
<path d="M70.142 73.56C70.142 73.56 63.5451 74.9166 68.1981 89.373C72.851 103.829 76.47 111.211 76.47 111.211C76.47 111.211 77.1593 114.508 74.5123 114.578C71.8653 114.647 66.2886 112.811 64.6274 115.823C62.911 118.947 64.8066 122.46 69.2114 125.987C73.6162 129.514 82.9978 137.584 83.8388 138.315C84.6798 139.045 85.3622 140.631 83.5562 140.972C81.7502 141.313 68.7082 140.597 68.7426 146.865C68.7771 153.133 82.6739 160.911 84.1766 161.787C85.6793 162.664 85.9482 163.415 85.6793 164.278C85.4105 165.14 81.0471 164.487 77.3316 164.438C73.6162 164.389 69.2941 164.987 69.6181 168.612C69.9421 172.236 77.5453 180.919 98.3698 186.415L108.2 188.328L114.907 180.766C128.286 163.707 129.141 152.159 127.246 149.077C125.35 145.995 121.538 148.138 118.601 150.434C115.665 152.729 112.57 155.909 111.839 155.38C111.108 154.851 110.881 154.093 111.557 152.479C112.232 150.865 118.67 136.221 114.962 131.198C111.253 126.175 101.265 134.655 99.6036 135.483C97.9424 136.311 97.5357 134.621 97.7976 133.542C98.0596 132.464 100.707 120.324 102.127 114.807C103.547 109.291 102.961 105.36 99.7208 103.906C96.5982 102.515 93.255 107.35 91.0905 108.915C88.926 110.48 87.5198 107.419 87.5198 107.419C87.5198 107.419 86.0309 99.3214 81.116 84.9415C76.2011 70.5616 69.9972 73.5948 69.9972 73.5948" fill="#EBEBEB"/>
<path d="M184.019 128.683L127.084 155.403L139.847 95.7374H161.713C164.242 95.7374 173.184 98.7553 175.349 104.512C175.349 104.512 184.941 127.418 184.033 128.683" fill="#7480FF"/>
<path d="M181.741 120.67L197.18 179.686L186.226 182.697C186.226 182.697 165.213 137.338 165.548 136.59C165.883 135.843 181.741 120.67 181.741 120.67Z" fill="#7480FF"/>
<g opacity="0.2">
<path opacity="0.2" d="M169.621 117.442C171.682 117.477 173.54 118.84 174.637 120.614C175.641 122.422 176.286 124.408 176.537 126.461C177.188 130.264 177.527 134.115 177.55 137.974C177.55 140.028 177.55 142.221 178.612 143.961C179.673 145.7 181.769 146.664 183.502 147.831C185.87 149.448 187.803 151.623 189.131 154.165C190.459 156.706 191.141 159.536 191.116 162.403C191.004 168.125 187.239 171.883 182.482 174.852L174.797 150.401L168.559 122.668L169.621 117.442Z" fill="black"/>
</g>
<path d="M171.493 108.354C171.263 110.392 170.913 112.414 170.445 114.41C170.095 116.431 169.629 118.43 169.048 120.397C169.278 118.359 169.63 116.337 170.103 114.341C170.449 112.32 170.913 110.32 171.493 108.354Z" fill="#343C44"/>
<path d="M161.552 96.436C161.596 96.6164 161.608 96.8033 161.587 96.9878C161.57 97.493 161.495 97.9946 161.364 98.4828C160.939 100.123 159.983 101.576 158.647 102.617C157.31 103.659 155.667 104.229 153.973 104.239C153.465 104.245 152.959 104.194 152.464 104.085C152.28 104.065 152.102 104.008 151.94 103.918C151.94 103.848 152.715 104.051 153.959 103.981C155.583 103.904 157.143 103.326 158.425 102.325C159.706 101.324 160.645 99.9496 161.112 98.392C161.489 97.2254 161.482 96.429 161.552 96.436Z" fill="#343C44"/>
<path d="M157.731 111.176C157.923 110.474 158.23 109.808 158.639 109.206C158.942 108.545 159.355 107.94 159.862 107.418C159.667 108.117 159.36 108.78 158.953 109.381C158.649 110.043 158.236 110.65 157.731 111.176Z" fill="#FAFAFA"/>
<path d="M166.603 114.676C166.046 114.071 165.62 113.358 165.353 112.58C164.98 111.839 164.768 111.027 164.731 110.198C165.11 110.918 165.43 111.668 165.688 112.44C166.057 113.158 166.363 113.906 166.603 114.676Z" fill="#FAFAFA"/>
<path d="M168.873 104.784C168.111 104.749 167.364 104.549 166.687 104.197C165.961 103.957 165.298 103.558 164.745 103.031C165.469 103.237 166.171 103.516 166.84 103.862C167.547 104.101 168.228 104.41 168.873 104.784Z" fill="#FAFAFA"/>
<path d="M176.02 119.566C176.537 118.279 177.036 116.984 177.515 115.682C177.506 117.116 176.975 118.497 176.02 119.566Z" fill="#FAFAFA"/>
<path d="M182.901 145.861C182.247 145.62 181.64 145.267 181.106 144.82C180.501 144.471 179.964 144.017 179.52 143.479C180.779 144.067 181.923 144.873 182.901 145.861Z" fill="#FAFAFA"/>
<path d="M188.399 176.032C188.983 174.454 189.657 172.91 190.418 171.408C190.113 173.085 189.422 174.669 188.399 176.032Z" fill="#FAFAFA"/>
<path d="M146.973 76.3238C145.534 71.6153 146.183 63.7493 149.439 59.8652C152.694 55.981 158.318 53.7665 163.341 53.1797C164.175 53.0145 165.04 53.1071 165.821 53.4452C166.194 53.6299 166.485 53.9467 166.637 54.3341C166.789 54.7214 166.792 55.1516 166.645 55.5409C167.665 54.9597 168.775 54.5513 169.928 54.3324C170.506 54.2305 171.101 54.2715 171.66 54.4517C172.219 54.6319 172.725 54.9458 173.135 55.3663C173.327 55.5842 173.474 55.8381 173.567 56.1133C173.66 56.3885 173.698 56.6795 173.678 56.9694C173.658 57.2593 173.58 57.5423 173.45 57.8019C173.319 58.0616 173.139 58.2927 172.918 58.482C173.634 58.2952 174.389 58.3219 175.09 58.5588C175.791 58.7957 176.408 59.2325 176.864 59.8154C177.319 60.3983 177.595 61.1017 177.656 61.8392C177.717 62.5766 177.561 63.3159 177.207 63.9658C176.403 65.2895 175.35 66.4448 174.106 67.3679C172.988 68.2202 172.709 69.1842 172.757 70.5884" fill="#343C44"/>
<path d="M173.072 70.8958C173.471 67.6223 172.623 64.3185 170.697 61.6417C168.771 58.9649 165.908 57.1111 162.677 56.4491L161.978 56.3094C154.713 55.2545 149.76 60.8362 148.908 68.1294L145.289 94.8222C145 96.9576 145.559 99.1213 146.847 100.849C148.135 102.577 150.048 103.731 152.177 104.064C153.269 104.234 154.383 104.182 155.454 103.912C156.525 103.643 157.53 103.16 158.411 102.494C159.292 101.829 160.03 100.992 160.582 100.036C161.134 99.0789 161.487 98.021 161.622 96.925C161.818 95.3182 161.964 94.1306 161.978 94.0468C161.992 93.963 169.104 94.3891 170.599 87.5011C171.36 84.1828 172.296 77.211 173.072 70.8958Z" fill="#FFCBB1"/>
<path d="M162.013 94.0259C158.829 93.3607 155.901 91.7999 153.574 89.527C153.574 89.527 154.79 94.927 161.797 95.7164L162.013 94.0259Z" fill="#D16F43"/>
<path d="M170.096 75.0942C170.047 75.3535 169.897 75.583 169.681 75.7333C169.464 75.8836 169.196 75.9426 168.936 75.8976C168.809 75.8813 168.687 75.8399 168.576 75.7757C168.465 75.7115 168.368 75.6258 168.29 75.5237C168.213 75.4216 168.157 75.3051 168.125 75.1809C168.093 75.0568 168.086 74.9276 168.105 74.8008C168.156 74.5439 168.304 74.3166 168.519 74.1668C168.734 74.017 168.999 73.9563 169.258 73.9975C169.385 74.0129 169.509 74.0537 169.62 74.1176C169.732 74.1814 169.83 74.2669 169.908 74.3691C169.986 74.4713 170.043 74.5882 170.075 74.7127C170.107 74.8372 170.115 74.967 170.096 75.0942Z" fill="#343C44"/>
<path d="M170.892 73.9696C170.746 74.0743 170.11 73.3688 169.055 73.1522C168 72.9356 167.106 73.3129 167.015 73.1522C166.924 72.9915 167.141 72.8728 167.532 72.6981C168.056 72.4718 168.637 72.4156 169.195 72.5375C169.734 72.6541 170.223 72.9377 170.592 73.3478C170.906 73.6692 170.969 73.9276 170.892 73.9696Z" fill="#343C44"/>
<path d="M159.617 73.3268C159.568 73.5842 159.419 73.812 159.204 73.961C158.988 74.1099 158.723 74.1682 158.464 74.1232C158.337 74.107 158.215 74.0655 158.104 74.0013C157.993 73.9371 157.896 73.8514 157.819 73.7493C157.741 73.6472 157.685 73.5307 157.653 73.4066C157.621 73.2824 157.614 73.1532 157.633 73.0265C157.682 72.769 157.831 72.5413 158.046 72.3923C158.262 72.2433 158.528 72.1851 158.786 72.2301C158.913 72.2454 159.036 72.2863 159.148 72.3502C159.259 72.4141 159.357 72.4998 159.434 72.6021C159.512 72.7045 159.568 72.8214 159.599 72.9459C159.631 73.0704 159.637 73.1999 159.617 73.3268Z" fill="#343C44"/>
<path d="M160.434 72.0275C160.281 72.1323 159.645 71.4267 158.59 71.2101C157.535 70.9936 156.641 71.3708 156.55 71.2101C156.46 71.0495 156.676 70.9307 157.067 70.7561C157.592 70.5342 158.172 70.4782 158.73 70.5954C159.269 70.712 159.758 70.9956 160.127 71.4057C160.441 71.7271 160.504 71.9856 160.434 72.0275Z" fill="#343C44"/>
<path d="M162.663 80.6829C163.258 80.6202 163.859 80.6343 164.451 80.7248C164.731 80.7248 164.996 80.7248 165.08 80.5781C165.166 80.3053 165.166 80.0127 165.08 79.7398C164.954 79.0412 164.829 78.2868 164.703 77.5113C164.193 74.3468 163.878 71.769 164.004 71.748C164.13 71.7271 164.654 74.2769 165.164 77.4415C165.283 78.2239 165.394 78.9644 165.506 79.677C165.606 80.0389 165.576 80.4243 165.422 80.7667C165.363 80.8528 165.285 80.9245 165.195 80.9765C165.104 81.0285 165.003 81.0595 164.898 81.0671C164.741 81.0893 164.581 81.0893 164.423 81.0671C163.822 81.0166 163.23 80.8874 162.663 80.6829Z" fill="#343C44"/>
<path d="M159.394 80.7528C159.568 80.7528 159.338 81.9334 160.155 82.9533C160.972 83.9732 162.251 84.099 162.195 84.2597C162.139 84.4203 161.88 84.4273 161.357 84.3365C160.682 84.2035 160.075 83.8405 159.638 83.3096C159.221 82.7955 159.02 82.1389 159.079 81.4793C159.128 81.0113 159.317 80.7528 159.394 80.7528Z" fill="#343C44"/>
<path d="M161.559 67.9338C161.392 68.1992 160.365 67.843 159.086 67.7382C157.808 67.6334 156.739 67.7382 156.627 67.4727C156.578 67.333 156.809 67.1025 157.27 66.9069C157.879 66.6636 158.539 66.5725 159.191 66.6414C159.842 66.6994 160.471 66.9075 161.028 67.2492C161.447 67.5286 161.629 67.8011 161.559 67.9338Z" fill="#343C44"/>
<path d="M171.137 70.8189C170.899 71.0215 170.222 70.6233 169.341 70.4347C168.461 70.2461 167.686 70.2601 167.567 69.9736C167.518 69.8339 167.686 69.6174 168.056 69.4567C168.55 69.2764 169.086 69.2466 169.597 69.3709C170.108 69.4953 170.571 69.7682 170.927 70.1553C171.193 70.4557 171.242 70.7211 171.137 70.8189Z" fill="#343C44"/>
<path d="M148.44 73.3548C148.328 73.2779 143.983 70.9796 143.166 75.73C142.348 80.4803 147.287 80.3196 147.315 80.1799C147.343 80.0402 148.44 73.3548 148.44 73.3548Z" fill="#FFCBB1"/>
<path d="M146.197 78.1331C146.197 78.1331 146.107 78.175 145.953 78.2169C145.742 78.2684 145.519 78.2358 145.331 78.1261C145.06 77.8775 144.86 77.562 144.749 77.2113C144.639 76.8606 144.623 76.4871 144.702 76.1282C144.76 75.7189 144.908 75.3276 145.136 74.9825C145.206 74.8418 145.31 74.7201 145.438 74.6277C145.565 74.5354 145.713 74.4749 145.869 74.4516C145.969 74.4432 146.068 74.4702 146.15 74.5276C146.231 74.5851 146.29 74.6694 146.316 74.7659C146.358 74.9056 146.316 74.9965 146.316 75.0104C146.316 75.0244 146.428 74.9475 146.428 74.745C146.419 74.6231 146.37 74.5076 146.288 74.4166C146.176 74.2953 146.02 74.2226 145.855 74.2141C145.653 74.2196 145.457 74.2764 145.283 74.379C145.11 74.4817 144.965 74.6269 144.863 74.8009C144.59 75.1788 144.412 75.6175 144.346 76.0793C144.213 77.0363 144.549 78.0213 145.205 78.3357C145.326 78.3934 145.459 78.4233 145.593 78.4233C145.727 78.4233 145.86 78.3934 145.981 78.3357C146.169 78.2449 146.211 78.1471 146.197 78.1331Z" fill="#D16F43"/>
<path d="M177.648 62.4499C177.138 68.7022 169.118 69.9597 166.379 65.9428C165.122 64.0846 164.123 61.8631 162.188 60.7873C161.509 60.4498 160.77 60.2501 160.013 60.1997C159.257 60.1494 158.498 60.2493 157.78 60.4939H157.738C155.642 61.1925 154.056 63.2393 153.379 65.384C152.429 68.3529 152.45 71.1193 151.178 73.767C151.037 74.1689 150.764 74.5112 150.403 74.738C149.76 75.0524 149.006 74.5494 148.607 73.9416C148.072 72.915 147.849 71.7543 147.965 70.6024C147.989 67.9729 148.538 65.3748 149.579 62.9599C150.627 60.5381 152.364 58.478 154.573 57.0359C157.41 55.3216 160.802 54.778 164.032 55.52C167.246 56.2805 170.138 58.0357 172.296 60.5358C173.35 61.6426 174.111 62.9943 174.511 64.4688" fill="#343C44"/>
<path d="M173.205 58.1955C173.431 58.1905 173.656 58.2383 173.861 58.3353C174.422 58.5839 174.905 58.9798 175.258 59.4809C175.799 60.2362 176.067 61.1522 176.02 62.0797C175.919 63.2134 175.404 64.2703 174.574 65.0486C173.763 65.828 172.752 66.3673 171.654 66.6065C170.773 66.7965 169.866 66.839 168.971 66.7322C168.37 66.6652 167.777 66.546 167.197 66.376C166.98 66.3275 166.773 66.245 166.582 66.1314C166.582 66.0686 167.497 66.362 168.992 66.4737C169.859 66.5405 170.73 66.4745 171.577 66.2781C172.608 66.0354 173.554 65.5189 174.315 64.7832C175.085 64.0674 175.569 63.097 175.678 62.0517C175.734 61.1983 175.511 60.3498 175.042 59.6346C174.727 59.1438 174.292 58.7421 173.777 58.468C173.582 58.3869 173.391 58.2959 173.205 58.1955Z" fill="#94447C"/>
<path d="M170.403 55.4711C170.403 55.4711 170.592 55.4711 170.843 55.6318C171.016 55.7683 171.156 55.9411 171.253 56.1379C171.351 56.3348 171.404 56.5507 171.409 56.7705C171.388 57.4207 171.141 58.0433 170.711 58.5309C170.251 59.134 169.708 59.6681 169.097 60.1167C167.992 60.9438 166.697 61.4817 165.332 61.6815C164.774 61.801 164.198 61.801 163.641 61.6815C163.641 61.6116 164.291 61.6396 165.29 61.43C166.588 61.1589 167.813 60.6109 168.88 59.8233C169.463 59.3899 169.988 58.8853 170.445 58.3213C170.837 57.8943 171.081 57.3534 171.144 56.7774C171.15 56.3943 171.007 56.0237 170.746 55.7435C170.557 55.5479 170.396 55.506 170.403 55.4711Z" fill="#94447C"/>
<path d="M139.456 162.857C140.155 162.913 173.756 151.596 173.756 151.596C173.756 151.596 189 148.215 190.767 157.995C192.534 167.775 176.795 179.365 176.795 179.365L148.901 193.399L134.426 182.047L136.522 173.448L139.456 162.857Z" fill="#FFCBB1"/>
<path d="M151.758 175.369L133.071 186.742C132.53 187.069 132.137 187.593 131.973 188.203C131.809 188.814 131.887 189.464 132.191 190.018L144.416 210.535C144.416 210.535 146.61 212.254 143.375 196.962L159.687 187.971L151.758 175.369Z" fill="#EBEBEB"/>
<path d="M160.916 168.669C159.521 169.929 158.043 171.096 156.494 172.162C155.018 173.333 153.469 174.409 151.856 175.383C153.252 174.123 154.729 172.956 156.278 171.89C157.754 170.719 159.303 169.643 160.916 168.669Z" fill="#D16F43"/>
<path d="M143.075 178.757C147.909 169.731 152.464 158.009 156.858 144.778L161.454 170.339L164.088 185.009L176.236 183.368L173.987 128.955C173.987 128.955 171.269 117.778 161.517 117.079C153.134 116.52 145.694 121.417 140.455 132.643C137.217 139.536 133.45 146.166 129.187 152.476L143.075 178.757Z" fill="#FFCBB1"/>
<path d="M103.479 184.995C107.519 187.739 112.177 189.437 117.035 189.934C121.893 190.432 126.799 189.714 131.311 187.845L143.186 179.868C143.186 179.868 142.041 166.022 138.185 160.161L134.762 161.02L137.046 158.163L131.311 149.64L116.193 164.52L103.479 184.995Z" fill="#94447C"/>
<path d="M155.621 148.452C155.608 148.56 155.579 148.666 155.537 148.767L155.216 149.654C154.923 150.478 154.518 151.568 154.042 152.902C153.05 155.648 151.779 159.469 150.256 163.654C148.998 167.249 147.488 170.75 145.736 174.132C145.394 174.782 145.038 175.355 144.758 175.844C144.479 176.333 144.199 176.773 143.962 177.108C143.724 177.444 143.571 177.667 143.424 177.877C143.367 177.971 143.297 178.055 143.214 178.128C143.214 178.128 143.256 178.023 143.361 177.835L143.843 177.031C144.06 176.689 144.304 176.249 144.584 175.746C144.863 175.243 145.184 174.663 145.506 174.014C147.184 170.612 148.656 167.113 149.914 163.535C151.437 159.343 152.75 155.543 153.798 152.819C154.322 151.456 154.762 150.36 155.09 149.605L155.468 148.746C155.505 148.641 155.557 148.543 155.621 148.452Z" fill="#D16F43"/>
<path d="M157.521 148.515C157.628 148.771 157.703 149.038 157.745 149.312C157.871 149.829 158.031 150.576 158.227 151.498C158.611 153.356 159.107 155.92 159.624 158.763C160.141 161.607 160.532 164.198 160.777 166.071C160.903 167.014 160.993 167.775 161.035 168.299C161.077 168.572 161.091 168.848 161.077 169.123C160.981 168.865 160.92 168.595 160.896 168.32C160.798 167.726 160.672 166.986 160.525 166.113C160.19 164.171 159.75 161.635 159.268 158.826C158.786 156.018 158.332 153.496 157.989 151.547C157.843 150.674 157.724 149.933 157.626 149.34C157.561 149.07 157.526 148.793 157.521 148.515Z" fill="#D16F43"/>
<path d="M174.923 166.853C174.825 166.853 174.686 161.6 174.616 155.124C174.546 148.648 174.574 143.388 174.672 143.388C174.769 143.388 174.909 148.641 174.979 155.117C175.049 161.593 175.028 166.853 174.923 166.853Z" fill="#D16F43"/>
<path d="M160.483 169.389L164.242 190.311C164.382 191.104 164.825 191.811 165.476 192.284C166.128 192.757 166.937 192.959 167.735 192.847L191.619 189.732C191.619 189.732 193.016 187.517 177.599 185.016L175.545 166.734L160.483 169.389Z" fill="#E0E0E0"/>
<g opacity="0.2">
<path opacity="0.2" d="M163.32 128.354C159.743 128.047 155.998 132.35 155.908 136.101C155.873 136.51 155.933 136.921 156.082 137.303C156.155 137.494 156.276 137.664 156.432 137.796C156.588 137.928 156.776 138.018 156.976 138.058C157.287 138.088 157.599 138.018 157.866 137.858C158.134 137.699 158.344 137.458 158.464 137.17C158.688 136.639 158.811 136.07 158.828 135.494C158.681 131.61 160.553 129.172 163.32 128.235" fill="black"/>
</g>
<path d="M187.56 182.32L190.173 189.732H210.837C210.837 189.732 209.692 187.999 205.479 187.587L197.753 186.853L195.846 180.091L187.56 182.32Z" fill="#FFCBB1"/>
<path d="M145.646 92.9081C145.646 92.9081 131.918 95.3252 126.91 101.892C122.928 107.103 107.845 136.269 101.795 148.068C99.9178 151.728 98.6753 155.68 98.1209 159.755C96.9613 168.481 96.2557 182.851 103.759 184.995C103.759 184.995 112.337 180.58 116.445 171.827C117.048 170.499 117.749 169.217 118.541 167.992L124.297 159.427C124.297 159.427 130.752 152.316 133.77 146.42L139.358 135.808L140.755 132.671L145.191 96.1216L145.646 92.9081Z" fill="#7480FF"/>
<path d="M136.459 122.284C135.364 122.21 134.308 121.844 133.403 121.223C132.497 120.603 131.775 119.751 131.311 118.756C132.007 119.548 132.776 120.274 133.609 120.921C134.513 121.466 135.467 121.923 136.459 122.284Z" fill="#343C44"/>
<path d="M115.285 146.049C115.617 145.986 115.954 145.955 116.291 145.958C116.619 145.958 116.99 145.958 117.479 145.875C117.968 145.791 118.457 145.791 119.029 145.693C120.377 145.511 121.712 145.243 123.025 144.89C126.251 144.029 129.317 142.656 132.107 140.824C133.244 140.078 134.332 139.259 135.362 138.372C135.816 138.009 136.187 137.638 136.529 137.324C136.871 137.01 137.151 136.737 137.374 136.5C137.6 136.245 137.847 136.011 138.115 135.801C137.927 136.082 137.714 136.347 137.479 136.59C137.226 136.897 136.955 137.188 136.669 137.464C136.34 137.792 135.97 138.162 135.53 138.56C134.515 139.483 133.434 140.331 132.296 141.096C129.498 142.975 126.401 144.364 123.137 145.204C121.809 145.55 120.457 145.797 119.092 145.945C118.513 146.028 117.982 146.035 117.514 146.07C117.118 146.09 116.722 146.09 116.326 146.07C115.979 146.099 115.63 146.092 115.285 146.049Z" fill="#343C44"/>
<path d="M105.421 166.678C105.482 166.374 105.58 166.078 105.715 165.798C106.039 165.02 106.431 164.272 106.888 163.563C108.392 161.191 110.509 159.269 113.015 158.002C115.521 156.734 118.323 156.167 121.125 156.36C121.969 156.413 122.806 156.541 123.626 156.745C123.93 156.803 124.225 156.897 124.506 157.024C123.383 156.829 122.249 156.694 121.111 156.619C118.365 156.502 115.634 157.092 113.18 158.332C110.727 159.572 108.632 161.421 107.098 163.702C106.486 164.664 105.926 165.657 105.421 166.678Z" fill="#343C44"/>
<path d="M126.679 154.907C126.679 155.012 124.492 155.138 121.789 155.368C119.085 155.599 116.899 155.829 116.899 155.725C117.349 155.561 117.819 155.456 118.296 155.41C119.169 155.271 120.392 155.117 121.733 155.005C123.074 154.893 124.311 154.837 125.226 154.83C125.711 154.79 126.2 154.816 126.679 154.907Z" fill="#343C44"/>
<g opacity="0.2">
<path opacity="0.2" d="M124.045 159.427C124.206 159.497 124.653 157.827 124.506 157.017C121.803 155.899 120.224 156.717 118.324 156.444C118.079 156.409 115.592 157.401 115.46 157.199C115.194 156.814 116.962 155.801 117.416 155.725C120.972 154.907 123.927 154.495 126.225 153.112C126.863 152.793 127.425 152.34 127.872 151.785C128.32 151.229 128.642 150.583 128.817 149.891C129.18 148.746 129.515 147.6 129.913 146.461C130.116 145.819 130.228 144.939 129.62 144.652C129.173 144.443 128.67 144.736 128.223 144.952C127.776 145.169 127.126 145.232 126.91 144.792C126.644 144.247 127.357 143.765 127.922 143.555C130.663 142.477 133.07 140.694 134.9 138.386C136.73 136.079 137.919 133.329 138.345 130.415L138.08 125.783L140.602 132.853L133.553 146.42C130.872 151.092 127.684 155.454 124.045 159.427Z" fill="black"/>
</g>
<path d="M123.368 128.955C123.09 127.543 122.934 126.111 122.9 124.673C122.744 123.239 122.706 121.795 122.788 120.355C123.07 121.769 123.229 123.204 123.263 124.645C123.415 126.076 123.45 127.518 123.368 128.955Z" fill="#FAFAFA"/>
<path d="M132.079 132.853C131.114 134.582 129.941 136.187 128.586 137.631C129.016 136.737 129.55 135.898 130.179 135.13C130.715 134.295 131.353 133.53 132.079 132.853Z" fill="#FAFAFA"/>
<path d="M119.679 144.848C119.326 144.407 119.073 143.894 118.939 143.346C118.698 142.836 118.565 142.282 118.547 141.718C118.899 142.161 119.15 142.677 119.281 143.227C119.526 143.733 119.662 144.286 119.679 144.848Z" fill="#FAFAFA"/>
<path d="M112.267 151.484C111.877 152.206 111.448 152.905 110.982 153.58C110.617 154.318 110.214 155.036 109.773 155.732C110.112 154.073 110.988 152.573 112.267 151.463V151.484Z" fill="#FAFAFA"/>
<path d="M110.381 145.861C109.631 144.146 109.112 142.34 108.837 140.489C109.263 141.322 109.58 142.208 109.78 143.122C110.101 144.005 110.303 144.925 110.381 145.861Z" fill="#FAFAFA"/>
<path d="M120.664 132.832C118.999 133.334 117.236 133.42 115.53 133.084C116.377 132.948 117.235 132.889 118.093 132.909C118.946 132.808 119.807 132.782 120.664 132.832Z" fill="#FAFAFA"/>
<path d="M133.56 126.447C133.579 125.358 133.663 124.271 133.812 123.192C134.15 124.269 134.06 125.435 133.56 126.447Z" fill="#FAFAFA"/>
<path d="M131.429 111.546C130.727 111.92 129.953 112.139 129.159 112.189C128.381 112.362 127.575 112.362 126.798 112.189C127.557 112.007 128.331 111.892 129.11 111.847C129.872 111.672 130.648 111.572 131.429 111.546Z" fill="#FAFAFA"/>
<path d="M210.362 112.608L200.372 120.202L196.118 122.102L200.372 115.696L208.462 110.009C208.808 109.768 209.234 109.671 209.65 109.739C210.066 109.807 210.439 110.034 210.69 110.373C210.939 110.714 211.044 111.139 210.983 111.557C210.921 111.975 210.699 112.353 210.362 112.608Z" fill="#343C44"/>
<path d="M170.794 130.45C171.249 130.45 184.885 125.078 185.185 124.323C185.486 123.569 185.332 121.529 188.036 120.775C190.739 120.02 193.54 119.07 193.54 119.07L200.47 114.459C200.47 114.459 202.405 115.095 200.659 117.17C199.673 118.304 198.596 119.356 197.438 120.314C196.81 120.872 197.746 121.361 197.746 121.361L207.526 114.459C207.32 116.211 206.644 117.874 205.57 119.273L204.222 121.075C204.465 121.757 204.494 122.497 204.306 123.196C204.117 123.895 203.72 124.52 203.167 124.987C201.211 126.789 198.088 131.435 194.784 131.582C191.48 131.728 189.153 131.966 189.153 131.966L171.954 140.349L170.794 130.45Z" fill="#FFCBB1"/>
<path d="M204.711 120.397C203.194 121.873 201.511 123.167 199.695 124.254C201.211 122.778 202.895 121.484 204.711 120.397Z" fill="#D16F43"/>
<path d="M133.553 98.1195C133.553 98.1195 141.992 93.928 147.147 96.9459C151.269 99.384 154.203 110.268 157.011 116.185C157.71 117.673 159.24 118.791 159.806 119.447C162.6 122.731 163.299 128.354 163.299 128.354L182.81 124.763L184.906 137.184C184.906 137.184 165.904 151.414 154.979 148.131C143.634 144.715 139.882 130.918 139.882 130.918L133.553 98.1195Z" fill="#7480FF"/>
<path d="M158.87 135.85C158.863 135.797 158.863 135.743 158.87 135.689C158.87 135.571 158.87 135.417 158.828 135.221C158.805 134.961 158.805 134.699 158.828 134.439C158.829 134.08 158.864 133.722 158.933 133.37C159.086 132.376 159.487 131.437 160.099 130.639C160.931 129.551 162.059 128.726 163.348 128.263L182.824 124.624H182.985V124.784C183.627 128.592 184.34 132.79 185.08 137.205V137.31L184.99 137.38C180.822 140.318 176.406 142.889 171.793 145.064L170.445 145.679C169.998 145.875 169.537 146.042 169.083 146.224C168.629 146.406 168.175 146.587 167.686 146.755L166.289 147.209C165.38 147.537 164.437 147.733 163.494 147.984C163.033 148.096 162.558 148.173 162.097 148.264C161.636 148.364 161.17 148.436 160.7 148.48C158.87 148.743 157.009 148.715 155.188 148.397C153.432 148.091 151.763 147.407 150.298 146.392C147.621 144.513 145.355 142.107 143.641 139.322C142.142 136.921 140.89 134.374 139.903 131.721C138.981 129.297 138.275 127.069 137.647 125.113C137.018 123.157 136.487 121.466 136.012 120.104C135.537 118.742 135.146 117.687 134.88 116.974L134.566 116.164C134.528 116.073 134.496 115.979 134.468 115.885C134.518 115.97 134.562 116.059 134.601 116.15L134.95 116.946C135.237 117.645 135.649 118.693 136.145 120.055C136.641 121.417 137.2 123.094 137.835 125.05C138.471 127.006 139.232 129.241 140.141 131.631C141.141 134.259 142.4 136.782 143.899 139.161C145.6 141.901 147.842 144.267 150.487 146.112C153.281 148.096 157.004 148.641 160.644 148.124C161.114 148.081 161.58 148.008 162.041 147.908C162.495 147.817 162.963 147.747 163.438 147.635C164.347 147.384 165.276 147.195 166.177 146.867L167.574 146.413C168.028 146.252 168.475 146.063 168.929 145.889C169.383 145.714 169.837 145.539 170.285 145.344L171.626 144.736C176.221 142.556 180.619 139.986 184.773 137.052L184.696 137.226C183.963 132.811 183.257 128.613 182.601 124.798L182.789 124.931L163.285 128.424C162.027 128.864 160.922 129.654 160.099 130.701C159.49 131.477 159.082 132.392 158.912 133.363C158.833 133.709 158.791 134.063 158.786 134.418C158.765 134.674 158.765 134.931 158.786 135.186C158.786 135.382 158.786 135.543 158.786 135.661L158.87 135.85Z" fill="#343C44"/>
<path d="M163.32 128.354C163.272 128.213 163.237 128.068 163.215 127.921C163.159 127.628 163.075 127.222 162.949 126.664C162.611 125.132 162.075 123.65 161.357 122.256C160.428 120.495 158.779 118.763 157.165 116.667C156.302 115.57 155.573 114.374 154.993 113.104C154.395 111.741 153.887 110.341 153.47 108.913C153.083 107.49 152.617 106.091 152.072 104.721C151.525 103.463 150.883 102.249 150.151 101.089C149.501 100.032 148.758 99.0362 147.93 98.1126C147.212 97.3146 146.314 96.6992 145.31 96.3172C143.846 95.7558 142.278 95.5175 140.714 95.6186C139.603 95.6955 139.009 95.8841 139.002 95.8492C139.138 95.7851 139.281 95.7359 139.428 95.7025C139.846 95.5973 140.271 95.5226 140.7 95.4789C142.291 95.3184 143.898 95.519 145.401 96.0657C146.452 96.4426 147.396 97.0682 148.153 97.889C149.001 98.8221 149.765 99.8272 150.438 100.893C151.186 102.065 151.843 103.294 152.401 104.567C152.948 105.953 153.414 107.369 153.798 108.808C154.207 110.236 154.709 111.636 155.3 112.999C155.861 114.241 156.564 115.413 157.396 116.492C158.988 118.588 160.637 120.348 161.552 122.165C162.266 123.585 162.774 125.1 163.061 126.664C163.166 127.209 163.222 127.642 163.264 127.935C163.3 128.072 163.319 128.213 163.32 128.354Z" fill="#343C44"/>
<path d="M134.063 103.806C134.007 103.078 134.073 102.346 134.259 101.64C134.329 100.917 134.515 100.209 134.811 99.5447C134.87 100.272 134.804 101.005 134.615 101.71C134.549 102.435 134.362 103.143 134.063 103.806Z" fill="#FAFAFA"/>
<path d="M146.086 101.284C145.389 101.543 144.656 101.689 143.913 101.717C143.183 101.856 142.436 101.879 141.698 101.787C142.394 101.524 143.128 101.378 143.871 101.354C144.601 101.211 145.348 101.188 146.086 101.284Z" fill="#FAFAFA"/>
<path d="M139.358 115.549C138.86 113.966 138.601 112.318 138.59 110.659C139.088 112.242 139.347 113.89 139.358 115.549Z" fill="#FAFAFA"/>
<path d="M151.346 113.677C150.578 113.814 149.793 113.833 149.02 113.733C148.238 113.749 147.458 113.645 146.707 113.425C147.475 113.288 148.26 113.269 149.034 113.37C149.816 113.355 150.595 113.459 151.346 113.677Z" fill="#FAFAFA"/>
<path d="M144.73 125.958C144.848 125.135 145.083 124.332 145.429 123.576C145.671 122.781 146.024 122.023 146.477 121.326C146.126 122.95 145.533 124.511 144.716 125.958H144.73Z" fill="#FAFAFA"/>
<path d="M156.599 125.574C155.603 124.217 154.996 122.612 154.846 120.935C155.211 121.679 155.513 122.453 155.747 123.248C156.094 123.998 156.379 124.776 156.599 125.574Z" fill="#FAFAFA"/>
<path d="M151.332 134.236C150.717 134.188 150.117 134.022 149.565 133.747C148.97 133.581 148.414 133.298 147.93 132.916C148.545 132.965 149.145 133.131 149.697 133.405C150.293 133.569 150.849 133.852 151.332 134.236Z" fill="#FAFAFA"/>
<path d="M155.097 143.625C154.195 143.291 153.318 142.894 152.471 142.438C151.567 142.098 150.688 141.699 149.837 141.243C150.814 141.356 151.762 141.65 152.631 142.109C153.541 142.456 154.378 142.97 155.097 143.625Z" fill="#FAFAFA"/>
<path d="M164.221 140.202C163.188 141.651 161.964 142.953 160.581 144.072C161.047 143.313 161.614 142.62 162.265 142.011C162.83 141.321 163.488 140.712 164.221 140.202Z" fill="#FAFAFA"/>
<path d="M165.206 134.09C164.732 133.539 164.291 132.96 163.885 132.357C163.392 131.829 162.926 131.277 162.488 130.701C163.173 131.004 163.762 131.487 164.193 132.099C164.702 132.66 165.052 133.347 165.206 134.09Z" fill="#FAFAFA"/>
<path d="M170.746 137.219C170.912 136.425 171.146 135.647 171.444 134.893C171.613 134.106 171.846 133.335 172.143 132.588C172.114 134.231 171.631 135.834 170.746 137.219Z" fill="#FAFAFA"/>
<path d="M178.262 129.451C177.429 129.575 176.581 129.575 175.747 129.451C174.903 129.449 174.062 129.325 173.254 129.081C174.09 128.966 174.939 128.966 175.775 129.081C176.618 129.085 177.455 129.21 178.262 129.451Z" fill="#FAFAFA"/>
<path d="M178.367 137.541C177.728 138.019 177.022 138.4 176.271 138.672C175.566 139.049 174.807 139.317 174.022 139.469C175.367 138.605 176.837 137.955 178.381 137.541H178.367Z" fill="#FAFAFA"/>
<path d="M112.533 168.648C112.473 167.861 112.539 167.068 112.728 166.301C112.794 165.516 112.98 164.745 113.28 164.017C113.336 164.805 113.27 165.596 113.085 166.364C113.015 167.149 112.829 167.919 112.533 168.648Z" fill="#FAFAFA"/>
<path d="M108.257 173.427C107.417 173.334 106.596 173.118 105.819 172.784C105.003 172.565 104.222 172.231 103.5 171.792C104.339 171.893 105.16 172.112 105.938 172.442C106.754 172.658 107.535 172.99 108.257 173.427Z" fill="#FAFAFA"/>
<path d="M104.674 175.76C104.693 176.677 104.592 177.593 104.373 178.484C104.269 179.398 104.049 180.295 103.717 181.153C103.796 179.321 104.118 177.508 104.674 175.76Z" fill="#FAFAFA"/>
<path d="M104.52 157.394C103.982 158.082 103.393 158.728 102.759 159.329C102.217 160.011 101.624 160.651 100.985 161.243C101.338 160.43 101.851 159.696 102.494 159.085C103.05 158.392 103.739 157.818 104.52 157.394Z" fill="#FAFAFA"/>
<path d="M127.315 149.773C126.59 150.366 125.727 150.767 124.807 150.939C123.905 151.234 122.944 151.296 122.012 151.121C122.012 151.009 123.242 150.967 124.688 150.59C126.134 150.213 127.266 149.675 127.315 149.773Z" fill="#FAFAFA"/>
<path d="M122.93 26.0344C122.929 26.426 123.044 26.8092 123.26 27.1354C123.477 27.4616 123.786 27.716 124.147 27.8665C124.509 28.017 124.907 28.0568 125.291 27.9807C125.675 27.9047 126.028 27.7162 126.305 27.4393C126.582 27.1624 126.77 26.8095 126.846 26.4254C126.922 26.0412 126.883 25.6431 126.732 25.2816C126.582 24.9201 126.327 24.6114 126.001 24.3947C125.675 24.178 125.292 24.063 124.9 24.0644C124.378 24.0662 123.878 24.2744 123.509 24.6434C123.14 25.0125 122.932 25.5125 122.93 26.0344Z" fill="#263238"/>
<path d="M116.978 28.0044C118.066 28.0044 118.948 27.1224 118.948 26.0344C118.948 24.9464 118.066 24.0644 116.978 24.0644C115.89 24.0644 115.008 24.9464 115.008 26.0344C115.008 27.1224 115.89 28.0044 116.978 28.0044Z" fill="#263238"/>
<path d="M107.135 25.0494C106.937 25.3852 106.844 25.7721 106.866 26.1611C106.888 26.5501 107.025 26.9238 107.26 27.2349C107.494 27.5461 107.816 27.7806 108.184 27.9089C108.552 28.0373 108.95 28.0536 109.327 27.9559C109.704 27.8582 110.044 27.6508 110.303 27.3599C110.562 27.0691 110.73 26.7079 110.784 26.322C110.838 25.9361 110.776 25.5429 110.607 25.192C110.437 24.8411 110.167 24.5484 109.832 24.3508C109.381 24.0878 108.845 24.0137 108.339 24.1446C107.834 24.2754 107.401 24.6007 107.135 25.0494Z" fill="#263238"/>
<path d="M116.859 3.00914C116.725 2.99695 116.589 2.99695 116.454 3.00914H115.288C115.029 3.00914 114.743 3.00914 114.421 3.00914L113.387 3.15584L112.186 3.33049L110.838 3.66581C108.518 4.24564 106.311 5.20644 104.306 6.50904C101.336 8.3975 98.8387 10.9407 97.0042 13.9437C95.1697 16.9467 94.0471 20.3299 93.7223 23.8339C93.6288 24.8837 93.6054 25.9386 93.6524 26.9915C93.6943 27.5224 93.6524 28.0673 93.7572 28.6052C93.862 29.1431 93.9249 29.688 94.0017 30.2329C94.4161 32.4715 95.1575 34.637 96.2022 36.6599C97.3154 38.7765 98.727 40.7221 100.394 42.4371C102.177 44.186 104.217 45.6514 106.443 46.7823C108.755 47.9886 111.262 48.774 113.848 49.1016C114.5 49.2066 115.159 49.2626 115.818 49.2693C116.478 49.3217 117.141 49.3357 117.802 49.3112C119.141 49.2552 120.473 49.0869 121.784 48.8082C124.611 48.1939 127.299 47.0618 129.713 45.469H129.469L137.544 48.7034L138.019 48.899L137.887 48.403C137.069 45.441 136.28 42.5559 135.511 39.7755L135.47 39.9851C137.659 37.0801 139.136 33.7014 139.78 30.1211C140.088 28.4564 140.193 26.7605 140.094 25.0704C140.078 24.2577 140.001 23.4474 139.864 22.6463C139.801 22.2481 139.738 21.8569 139.682 21.4657C139.626 21.0745 139.486 20.6972 139.396 20.32C138.048 15.0142 134.856 10.3612 130.391 7.19365C128.742 6.01985 126.939 5.07952 125.033 4.39932L123.824 3.9662L122.679 3.6728L121.631 3.41432C121.295 3.35145 120.932 3.31652 120.667 3.26762C120.052 3.19077 119.514 3.08599 119.046 3.06503L117.858 3.02312H117.16C117.079 3.01042 116.996 3.01042 116.915 3.02312C116.995 3.04584 117.077 3.05759 117.16 3.05804L117.858 3.11393L119.039 3.19077C119.5 3.19077 120.031 3.34446 120.639 3.43528C125.018 4.19206 129.084 6.20439 132.342 9.22781C135.6 12.2512 137.909 16.1556 138.99 20.4667C139.081 20.837 139.193 21.2072 139.263 21.5845C139.333 21.9617 139.382 22.3599 139.438 22.7511C139.57 23.5385 139.642 24.3349 139.654 25.1333C139.745 26.7914 139.635 28.4545 139.326 30.0862C138.68 33.5888 137.226 36.8924 135.078 39.7336L135.002 39.8244V39.9432C135.763 42.7375 136.545 45.6157 137.356 48.5777L137.698 48.2773L129.629 45.0289L129.504 44.973L129.392 45.0498C125.923 47.3343 121.897 48.6311 117.747 48.8012C117.099 48.8245 116.451 48.8129 115.804 48.7663C115.161 48.7526 114.519 48.6966 113.883 48.5986C111.37 48.2948 108.929 47.5498 106.674 46.3981C102.352 44.2651 98.8308 40.7997 96.6284 36.5132C95.5996 34.5354 94.8676 32.4169 94.4558 30.2259C94.3719 29.688 94.2951 29.1571 94.2113 28.6331C94.1275 28.1092 94.1414 27.5713 94.0995 27.0474C94.0527 26.0158 94.069 24.9823 94.1484 23.9526C94.4553 20.5025 95.5439 17.1676 97.3317 14.2009C99.1194 11.2342 101.559 8.7136 104.466 6.83039C106.437 5.52724 108.605 4.55065 110.886 3.93826L112.221 3.58198L113.415 3.38638L114.435 3.21872C114.75 3.21872 115.036 3.1768 115.295 3.15584L116.461 3.07202C116.595 3.05804 116.728 3.03705 116.859 3.00914Z" fill="#263238"/>
</svg>
