<svg width="183" height="35" viewBox="0 0 183 35" fill="none" xmlns="http://www.w3.org/2000/svg">
<path d="M4.024 3.472V16.672H21.4V19.744H4.024V34H0.472V0.399998H23.512V3.472H4.024ZM38.1033 34.24C35.6713 34.24 33.4793 33.696 31.5273 32.608C29.5753 31.488 28.0393 29.952 26.9193 28C25.7993 26.048 25.2393 23.84 25.2393 21.376C25.2393 18.912 25.7993 16.704 26.9193 14.752C28.0393 12.8 29.5753 11.28 31.5273 10.192C33.4793 9.104 35.6713 8.56 38.1033 8.56C40.5353 8.56 42.7273 9.104 44.6793 10.192C46.6313 11.28 48.1513 12.8 49.2393 14.752C50.3593 16.704 50.9193 18.912 50.9193 21.376C50.9193 23.84 50.3593 26.048 49.2393 28C48.1513 29.952 46.6313 31.488 44.6793 32.608C42.7273 33.696 40.5353 34.24 38.1033 34.24ZM38.1033 31.216C39.8953 31.216 41.4953 30.816 42.9033 30.016C44.3433 29.184 45.4633 28.016 46.2633 26.512C47.0633 25.008 47.4633 23.296 47.4633 21.376C47.4633 19.456 47.0633 17.744 46.2633 16.24C45.4633 14.736 44.3433 13.584 42.9033 12.784C41.4953 11.952 39.8953 11.536 38.1033 11.536C36.3113 11.536 34.6953 11.952 33.2553 12.784C31.8473 13.584 30.7273 14.736 29.8953 16.24C29.0953 17.744 28.6953 19.456 28.6953 21.376C28.6953 23.296 29.0953 25.008 29.8953 26.512C30.7273 28.016 31.8473 29.184 33.2553 30.016C34.6953 30.816 36.3113 31.216 38.1033 31.216ZM59.641 13.696C60.441 12 61.625 10.72 63.193 9.856C64.793 8.992 66.761 8.56 69.097 8.56V11.872L68.281 11.824C65.625 11.824 63.545 12.64 62.041 14.272C60.537 15.904 59.785 18.192 59.785 21.136V34H56.377V8.752H59.641V13.696ZM80.3346 6.736H69.5826V0.399998H98.8626V6.736H88.1106V34H80.3346V6.736ZM123.69 21.184C123.69 21.28 123.642 21.952 123.546 23.2H104.01C104.362 24.8 105.194 26.064 106.506 26.992C107.818 27.92 109.45 28.384 111.402 28.384C112.746 28.384 113.93 28.192 114.954 27.808C116.01 27.392 116.986 26.752 117.882 25.888L121.866 30.208C119.434 32.992 115.882 34.384 111.21 34.384C108.298 34.384 105.722 33.824 103.482 32.704C101.242 31.552 99.5135 29.968 98.2975 27.952C97.0815 25.936 96.4735 23.648 96.4735 21.088C96.4735 18.56 97.0655 16.288 98.2495 14.272C99.4655 12.224 101.114 10.64 103.194 9.52C105.306 8.368 107.658 7.792 110.25 7.792C112.778 7.792 115.066 8.336 117.114 9.424C119.162 10.512 120.762 12.08 121.914 14.128C123.098 16.144 123.69 18.496 123.69 21.184ZM110.298 13.456C108.602 13.456 107.178 13.936 106.026 14.896C104.874 15.856 104.17 17.168 103.914 18.832H116.634C116.378 17.2 115.674 15.904 114.522 14.944C113.37 13.952 111.962 13.456 110.298 13.456ZM152.471 21.184C152.471 21.28 152.423 21.952 152.327 23.2H132.791C133.143 24.8 133.975 26.064 135.287 26.992C136.599 27.92 138.231 28.384 140.183 28.384C141.527 28.384 142.711 28.192 143.735 27.808C144.791 27.392 145.767 26.752 146.663 25.888L150.647 30.208C148.215 32.992 144.663 34.384 139.991 34.384C137.079 34.384 134.503 33.824 132.263 32.704C130.023 31.552 128.295 29.968 127.079 27.952C125.863 25.936 125.255 23.648 125.255 21.088C125.255 18.56 125.847 16.288 127.031 14.272C128.247 12.224 129.895 10.64 131.975 9.52C134.087 8.368 136.439 7.792 139.031 7.792C141.559 7.792 143.847 8.336 145.895 9.424C147.943 10.512 149.543 12.08 150.695 14.128C151.879 16.144 152.471 18.496 152.471 21.184ZM139.079 13.456C137.383 13.456 135.959 13.936 134.807 14.896C133.655 15.856 132.951 17.168 132.695 18.832H145.415C145.159 17.2 144.455 15.904 143.303 14.944C142.151 13.952 140.743 13.456 139.079 13.456ZM171.652 7.792C174.852 7.792 177.428 8.752 179.38 10.672C181.364 12.592 182.356 15.44 182.356 19.216V34H174.868V20.368C174.868 18.32 174.42 16.8 173.524 15.808C172.628 14.784 171.332 14.272 169.636 14.272C167.748 14.272 166.244 14.864 165.124 16.048C164.004 17.2 163.444 18.928 163.444 21.232V34H155.956V8.176H163.108V11.2C164.1 10.112 165.332 9.28 166.804 8.704C168.276 8.096 169.892 7.792 171.652 7.792Z" fill="white"/>
</svg>
