<svg width="18" height="18" viewBox="0 0 18 18" fill="none" xmlns="http://www.w3.org/2000/svg">
<path fill-rule="evenodd" clip-rule="evenodd" d="M9 6C8.37975 6 7.875 6.50475 7.875 7.125C7.875 7.74525 8.37975 8.25 9 8.25C9.62025 8.25 10.125 7.74525 10.125 7.125C10.125 6.50475 9.62025 6 9 6ZM9 9.75C7.5525 9.75 6.375 8.5725 6.375 7.125C6.375 5.6775 7.5525 4.5 9 4.5C10.4475 4.5 11.625 5.6775 11.625 7.125C11.625 8.5725 10.4475 9.75 9 9.75ZM9 1.5C5.69175 1.5 3 4.1655 3 7.44225C3 11.5477 8.28675 16.1265 8.51175 16.3193C8.65275 16.44 8.826 16.5 9 16.5C9.174 16.5 9.34725 16.44 9.48825 16.3193C9.71325 16.1265 15 11.5477 15 7.44225C15 4.1655 12.3082 1.5 9 1.5Z" fill="#343C44"/>
</svg>
